<svg width="109" height="46" viewBox="0 0 109 46" fill="none" xmlns="http://www.w3.org/2000/svg">
<g id="partner-aws.svg">
<path id="Vector" d="M40.7573 18.0789C40.7573 18.872 40.8424 19.5146 40.9921 19.9869C41.1633 20.4583 41.3766 20.9727 41.6759 21.5301C41.7825 21.7013 41.8256 21.8734 41.8256 22.0231C41.8256 22.2373 41.6974 22.4514 41.4196 22.6665L40.0735 23.5672C39.8817 23.6954 39.689 23.7599 39.5178 23.7599C39.3045 23.7599 39.0904 23.6524 38.8771 23.4597C38.5892 23.1492 38.3317 22.8119 38.1081 22.4523L37.4458 21.1878C35.7798 23.1594 33.6863 24.1462 31.1653 24.1462C29.3711 24.1462 27.9398 23.6317 26.8922 22.6029C25.8445 21.5741 25.3113 20.202 25.3113 18.4876C25.3113 16.6656 25.9521 15.1868 27.2551 14.072C28.5582 12.9571 30.2888 12.3997 32.4889 12.3997C33.2468 12.4057 34.0034 12.4629 34.7536 12.5708C35.5441 12.6784 36.356 12.8496 37.2101 13.0422V11.4775C37.2101 9.84818 36.8687 8.7127 36.2064 8.04772C35.5226 7.38363 34.3692 7.0619 32.7237 7.0619C31.9461 7.06185 31.1713 7.15543 30.416 7.34061C29.6256 7.5333 28.8566 7.769 28.1092 8.06923C27.7678 8.21889 27.5106 8.30493 27.3618 8.34794C27.213 8.39096 27.1055 8.41247 27.0203 8.41247C26.721 8.41247 26.5713 8.19828 26.5713 7.74839V6.69714C26.5713 6.3539 26.6144 6.09669 26.721 5.94702C26.8276 5.79736 27.0203 5.6468 27.3197 5.49713C28.0671 5.11087 28.9642 4.79003 30.011 4.53282C31.0577 4.2541 32.169 4.12595 33.3439 4.12595C35.8864 4.12595 37.7443 4.70489 38.9407 5.86188C40.1156 7.01977 40.7143 8.77722 40.7143 11.1351V18.0798L40.7573 18.0789ZM32.0839 21.3375C32.7892 21.3375 33.5151 21.2093 34.284 20.9512C35.053 20.6931 35.7368 20.2226 36.3139 19.5791C36.6554 19.1722 36.9126 18.7215 37.0407 18.207C37.1689 17.6926 37.254 17.0707 37.254 16.342V15.4414C36.6063 15.2831 35.9501 15.1613 35.2887 15.0766C34.6049 14.9906 33.9426 14.9476 33.2803 14.9476C31.8491 14.9476 30.8023 15.2263 30.097 15.8052C29.3917 16.3842 29.0502 17.1988 29.0502 18.2698C29.0502 19.2771 29.3065 20.0272 29.8407 20.5416C30.3533 21.0776 31.1007 21.3348 32.0839 21.3348V21.3375ZM49.2389 23.6524C48.8545 23.6524 48.5981 23.5878 48.427 23.4382C48.2558 23.31 48.1061 23.0098 47.978 22.602L42.9575 6.03216C42.8293 5.60378 42.7657 5.32506 42.7657 5.1745C42.7657 4.83125 42.9368 4.63857 43.2783 4.63857H45.3718C45.7778 4.63857 46.0556 4.7031 46.2053 4.85276C46.3765 4.98092 46.5046 5.28115 46.6328 5.68892L50.2221 19.8785L53.5532 5.68892C53.6599 5.26053 53.788 4.98182 53.9592 4.85276C54.1304 4.72371 54.4288 4.63857 54.8133 4.63857H56.5223C56.9283 4.63857 57.2061 4.7031 57.3764 4.85276C57.5476 4.98092 57.6973 5.28115 57.7824 5.68892L61.1575 20.0505L64.8552 5.68892C64.9834 5.26053 65.133 4.98182 65.2827 4.85276C65.4539 4.72371 65.7317 4.63857 66.1162 4.63857H68.103C68.4445 4.63857 68.6372 4.80975 68.6372 5.1745C68.6372 5.28204 68.6157 5.38869 68.5942 5.51774C68.5726 5.6468 68.5296 5.81797 68.4445 6.05367L63.2958 22.6226C63.1677 23.051 63.018 23.3297 62.8468 23.4588C62.6757 23.5878 62.3978 23.673 62.0349 23.673H60.1977C59.7917 23.673 59.5139 23.6084 59.3427 23.4588C59.1715 23.3091 59.0218 23.0304 58.9367 22.6011L55.6261 8.77543L52.3362 22.5796C52.2295 23.008 52.1014 23.2867 51.9302 23.4373C51.759 23.5878 51.4606 23.6515 51.0761 23.6515L49.2389 23.6524ZM76.6904 24.2313C75.5791 24.2313 74.4687 24.1031 73.4005 23.8459C72.3322 23.5887 71.4987 23.31 70.944 22.9883C70.6025 22.7956 70.3668 22.5814 70.2817 22.3878C70.1984 22.1985 70.1548 21.9942 70.1535 21.7874V20.694C70.1535 20.2441 70.3247 20.0299 70.6447 20.0299C70.7728 20.0299 70.901 20.0514 71.0291 20.0944C71.1573 20.1375 71.35 20.2226 71.5633 20.3086C72.3176 20.6416 73.1054 20.893 73.9131 21.0588C74.7681 21.2299 75.6006 21.316 76.4556 21.316C77.8017 21.316 78.8485 21.0803 79.5744 20.6089C80.3003 20.1375 80.6857 19.451 80.6857 18.5727C80.6857 17.9722 80.493 17.4793 80.1085 17.0725C79.7241 16.6656 78.9972 16.3008 77.9505 15.9576L74.8523 14.9933C73.2929 14.5004 72.1395 13.7717 71.4342 12.8065C70.7289 11.8637 70.3659 10.8134 70.3659 9.69852C70.3659 8.79784 70.5586 8.0056 70.9431 7.31911C71.3276 6.63262 71.8402 6.03306 72.481 5.56166C73.1218 5.06875 73.8486 4.70399 74.7026 4.44678C75.5567 4.18958 76.4547 4.08203 77.3948 4.08203C77.8644 4.08203 78.3565 4.10354 78.8261 4.16807L80.2143 4.40377L81.4322 4.74701C81.8167 4.87606 82.116 5.00422 82.3293 5.13327C82.6286 5.30445 82.8419 5.47652 82.9701 5.6692C83.0983 5.84038 83.1628 6.07608 83.1628 6.3763V7.38274C83.1628 7.83263 82.9916 8.06833 82.6717 8.06833C82.5005 8.06833 82.2227 7.98229 81.8597 7.81112C80.6418 7.25368 79.2751 6.97497 77.7578 6.97497C76.5399 6.97497 75.5791 7.16765 74.9168 7.57542C74.2545 7.98319 73.9131 8.60426 73.9131 9.48343C73.907 9.76786 73.961 10.0504 74.0714 10.3126C74.1818 10.5748 74.3462 10.8108 74.5539 11.0052C74.9814 11.4121 75.7718 11.8198 76.9037 12.1837L79.9374 13.148C81.4752 13.6409 82.5865 14.3274 83.2488 15.2057C83.9111 16.0839 84.2319 17.0922 84.2319 18.2061C84.2319 19.1283 84.0393 19.9636 83.6763 20.6922C83.2918 21.4208 82.7792 22.0643 82.1169 22.5787C81.4546 23.1146 80.6642 23.5 79.7456 23.7787C78.7839 24.0789 77.7802 24.2286 76.6904 24.2286V24.2313Z" fill="#252F3E"/>
<path id="Vector_2" d="M80.7276 34.6483C73.6987 39.857 63.4874 42.6217 54.7064 42.6217C42.4016 42.6217 31.3138 38.0565 22.9397 30.4684C22.2774 29.8679 22.8752 29.0533 23.6656 29.5256C32.7235 34.7988 43.8964 37.992 55.4538 37.992C63.2517 37.992 71.8184 36.3627 79.7014 33.019C80.8763 32.483 81.881 33.7906 80.7276 34.6483ZM83.6546 31.3045C82.7575 30.1475 77.7154 30.7471 75.4292 31.0258C74.7454 31.1119 74.6388 30.5114 75.2581 30.0615C79.2739 27.2322 85.8753 28.0468 86.6443 28.9896C87.4132 29.954 86.431 36.5778 82.6705 39.7494C82.0934 40.2423 81.5386 39.9851 81.7949 39.3426C82.6499 37.2203 84.5516 32.4409 83.6546 31.3045Z" fill="#FF9900"/>
</g>
</svg>
