<svg width="181" height="80" viewBox="0 0 181 80" fill="none" xmlns="http://www.w3.org/2000/svg">
<g id="cartoon-network-logo.svg" clip-path="url(#clip0_605_3614)">
<g id="cartoon-network-logo">
<g id="cartoon-network">
<path id="Path 29643" d="M45.0469 58.5039H90.5569V13.0039H45.0469V58.5039ZM69.0387 15.4169C72.6381 15.3923 76.1783 16.333 79.2908 18.1411C82.4034 19.9493 84.9744 22.5587 86.7364 25.6979L75.4379 32.1649C74.8147 31.0607 73.9136 30.1388 72.824 29.4906C71.7344 28.8424 70.4943 28.4905 69.2267 28.4699C68.2616 28.4477 67.3018 28.617 66.4025 28.9679C65.5033 29.3189 64.6825 29.8446 63.9875 30.5146C63.2925 31.1846 62.7372 31.9857 62.3536 32.8716C61.9699 33.7575 61.7656 34.7106 61.7524 35.676C61.7392 36.6413 61.9174 37.5997 62.2766 38.4958C62.6359 39.3918 63.1691 40.2078 63.8454 40.8966C64.5218 41.5854 65.3279 42.1333 66.2172 42.5088C67.1065 42.8842 68.0614 43.0797 69.0267 43.0839C70.3279 43.0775 71.6048 42.7306 72.7305 42.0776C73.8561 41.4246 74.7912 40.4884 75.4429 39.3619L86.7414 45.8449C84.9692 48.9456 82.4117 51.5248 79.3264 53.3231C76.241 55.1213 72.7365 56.0752 69.1655 56.0887C65.5944 56.1022 62.0828 55.1749 58.984 53.4C55.8851 51.6252 53.3082 49.0654 51.5126 45.9782C49.717 42.891 48.766 39.3853 48.7553 35.8138C48.7447 32.2422 49.6746 28.7309 51.4517 25.633C53.2288 22.5351 55.7903 19.9599 58.8785 18.1665C61.9667 16.3731 65.4727 15.4248 69.0437 15.4169H69.0387Z" fill="black"/>
<path id="Path 29644" d="M106.823 39.0198L119.833 55.2598H132.819V16.2598H119.833V32.5258L106.823 16.2608H93.8242V55.2608H106.823V39.0198Z" fill="black"/>
<path id="Path 29645" d="M49.3099 63.4326C49.5343 63.4108 49.7604 63.451 49.9635 63.5489C50.1667 63.6468 50.3391 63.7985 50.4619 63.9876L51.9619 63.1316C51.5795 62.4934 50.9736 62.0201 50.2619 61.8036C49.8549 61.6838 49.4266 61.6547 49.0071 61.7185C48.5877 61.7823 48.1873 61.9373 47.8343 62.1726C47.4813 62.408 47.1842 62.7179 46.964 63.0806C46.7439 63.4432 46.6059 63.8498 46.56 64.2716C46.5141 64.6934 46.5613 65.1201 46.6982 65.5217C46.8352 65.9232 47.0586 66.2898 47.3526 66.5956C47.6467 66.9014 48.0043 67.139 48.4002 67.2916C48.7961 67.4441 49.2206 67.508 49.6439 67.4786C50.1176 67.4351 50.5744 67.2812 50.9779 67.0292C51.3813 66.7772 51.72 66.4342 51.9669 66.0276L50.4669 65.1626C50.3527 65.3406 50.1945 65.4861 50.0076 65.5851C49.8206 65.6841 49.6113 65.7332 49.3999 65.7276C49.2272 65.7175 49.0589 65.6691 48.9072 65.586C48.7555 65.5029 48.6242 65.3871 48.5227 65.247C48.4213 65.1068 48.3522 64.9459 48.3206 64.7758C48.289 64.6058 48.2956 64.4308 48.3399 64.2636C48.4019 64.0441 48.5277 63.848 48.7012 63.7001C48.8748 63.5521 49.0884 63.459 49.3149 63.4326H49.3099Z" fill="black"/>
<path id="Path 29646" d="M75.753 63.2126C75.3977 62.557 74.7968 62.0692 74.0821 61.8564C73.3675 61.6435 72.5976 61.723 71.9415 62.0774C71.2854 62.4318 70.7968 63.0321 70.583 63.7464C70.3692 64.4608 70.4477 65.2308 70.8012 65.8874C71.1547 66.5439 71.7544 67.0333 72.4685 67.248C73.1826 67.4628 73.9527 67.3853 74.6097 67.0327C75.2667 66.68 75.7569 66.081 75.9726 65.3672C76.1883 64.6534 76.1118 63.8831 75.76 63.2256C75.7581 63.2211 75.7557 63.2167 75.753 63.2126ZM74.029 65.6506C73.7469 65.8068 73.4147 65.8462 73.1039 65.7602C72.7931 65.6742 72.5284 65.4698 72.3666 65.1909C72.2048 64.9119 72.1589 64.5807 72.2386 64.2682C72.3183 63.9558 72.5173 63.687 72.793 63.5197C72.9799 63.4103 73.1925 63.3527 73.409 63.3527C73.6252 63.3531 73.8375 63.4101 74.0249 63.5179C74.2122 63.6258 74.3681 63.7809 74.477 63.9677V63.9756C74.6379 64.2575 74.6812 64.5914 74.5975 64.905C74.5139 65.2185 74.3089 65.4865 74.029 65.6506Z" fill="black"/>
<path id="Path 29647" d="M122.247 63.2215C122.246 62.5322 121.971 61.8716 121.484 61.3847C120.996 60.8978 120.334 60.6245 119.645 60.625C118.956 60.6255 118.295 60.8996 117.808 61.3871C117.321 61.8747 117.047 62.5357 117.047 63.225C117.047 63.9143 117.321 64.5753 117.808 65.0629C118.295 65.5504 118.956 65.8245 119.645 65.825C120.334 65.8255 120.996 65.5522 121.484 65.0653C121.971 64.5785 122.246 63.9178 122.247 63.2285V63.2215ZM121.094 64.9065C121.021 65.1819 120.854 65.4235 120.623 65.5899C120.391 65.7564 120.11 65.8374 119.825 65.8193C119.541 65.8012 119.271 65.6851 119.063 65.4907C118.854 65.2962 118.72 65.0356 118.682 64.7531C118.644 64.4706 118.706 64.1837 118.856 63.9414C119.006 63.699 119.235 63.5162 119.505 63.424C119.775 63.3319 120.068 63.336 120.335 63.4359C120.602 63.5357 120.826 63.725 120.969 63.9715V63.9765C121.132 64.2564 121.177 64.5895 121.094 64.9025V64.9065Z" fill="black"/>
<path id="Path 29648" d="M53.8122 61.8066L52.0742 67.3636H54.0282L54.3132 66.4316H56.0922L56.3722 67.3636H58.3252L56.5872 61.8066H53.8122ZM54.7032 65.0636L55.2032 63.3396L55.7032 65.0636H54.7032Z" fill="black"/>
<path id="Path 29649" d="M64.2008 63.6966C64.1804 63.2041 63.9763 62.737 63.6287 62.3874C63.2811 62.0377 62.8153 61.8309 62.3228 61.8076H58.8828V67.3646H60.7238V65.7406H61.3238L62.1488 67.3646H64.1958L63.1228 65.5426C63.4571 65.3664 63.7353 65.1001 63.9259 64.7738C64.1164 64.4475 64.2117 64.0743 64.2008 63.6966ZM61.9468 64.3586H60.7238V63.4266H61.9488C62.0589 63.4362 62.162 63.485 62.2392 63.5641C62.3165 63.6431 62.3628 63.7473 62.3698 63.8576C62.3772 63.9793 62.3373 64.0991 62.2585 64.192C62.1797 64.285 62.068 64.3439 61.9468 64.3566V64.3586Z" fill="black"/>
<path id="Path 29650" d="M64.7109 63.4286H66.4569V67.3626H68.5399V63.4286H70.2819V61.8057H64.7139L64.7109 63.4286Z" fill="black"/>
<path id="Path 29651" d="M86.8712 64.1166L84.9933 61.8066H83.1562V67.3636H84.9933V65.0476L86.8753 67.3636H88.7133V61.8066H86.8753L86.8712 64.1166Z" fill="black"/>
<path id="Path 29652" d="M96.1838 64.1167L94.3018 61.8057H92.4648V67.3627H94.3018V65.0467L96.1838 67.3627H98.0219V61.8067H96.1838V64.1167Z" fill="black"/>
<path id="Path 29653" d="M98.8203 67.3626H103.672V65.8786H100.658V65.2966H103.197V63.9966H100.658V63.4276H103.672V61.8066H98.8203V67.3626Z" fill="black"/>
<path id="Path 29654" d="M104.285 63.4286H106.031V67.3626H108.113V63.4286H109.856V61.8057H104.288L104.285 63.4286Z" fill="black"/>
<path id="Path 29655" d="M114.511 64.2386L113.573 62.0056L112.652 64.2436C112.652 64.2336 112.183 61.8066 112.183 61.8066H110.316C110.336 61.9316 111.392 67.3636 111.392 67.3636H112.906L113.573 65.8636L114.232 67.3636H115.772L116.83 61.8066H114.98L114.511 64.2386Z" fill="black"/>
<path id="Path 29656" d="M128.658 63.6966C128.637 63.2041 128.433 62.737 128.086 62.3874C127.738 62.0377 127.272 61.8309 126.78 61.8076H123.34V67.3646H125.18V65.7406H125.78L126.605 67.3646H128.652L127.579 65.5426C127.913 65.3665 128.192 65.1002 128.382 64.7739C128.573 64.4476 128.668 64.0744 128.658 63.6966ZM126.404 64.3586H125.181V63.4266H126.406C126.516 63.4364 126.619 63.4853 126.696 63.5644C126.773 63.6434 126.819 63.7474 126.826 63.8576C126.833 63.9792 126.793 64.0989 126.714 64.1918C126.635 64.2847 126.524 64.3437 126.403 64.3566L126.404 64.3586Z" fill="black"/>
<path id="Path 29657" d="M134.865 61.8057H132.495L131.109 63.6057V61.8057H129.25V67.3626H131.109V65.2976L132.495 67.3657H134.865L132.715 64.4576L134.865 61.8057Z" fill="black"/>
<path id="Path 29658" d="M82.0336 63.212C81.6437 62.6025 81.0279 62.1728 80.3214 62.0171C79.6148 61.8614 78.8754 61.9926 78.2655 62.3817C77.6556 62.7709 77.2251 63.3862 77.0686 64.0925C76.912 64.7989 77.0423 65.5385 77.4307 66.1488C77.8191 66.7592 78.434 67.1904 79.1401 67.3478C79.8463 67.5051 80.586 67.3758 81.1968 66.9881C81.8077 66.6004 82.2396 65.9861 82.3978 65.2801C82.556 64.5742 82.4276 63.8343 82.0406 63.223L82.0336 63.212ZM80.3106 65.65C80.1705 65.7403 80.0136 65.8012 79.8493 65.8292C79.685 65.8571 79.5167 65.8513 79.3547 65.8123C79.1926 65.7733 79.0402 65.7019 78.9066 65.6022C78.773 65.5026 78.6609 65.3769 78.5773 65.2328C78.4937 65.0886 78.4402 64.9289 78.42 64.7635C78.3999 64.598 78.4135 64.4302 78.4601 64.2702C78.5067 64.1102 78.5852 63.9613 78.691 63.8325C78.7968 63.7037 78.9277 63.5977 79.0756 63.521C79.2624 63.4115 79.4751 63.3538 79.6916 63.354C79.9078 63.3543 80.1202 63.4112 80.3076 63.5191C80.495 63.627 80.6508 63.7821 80.7596 63.969V63.977C80.9198 64.2598 80.9621 64.5943 80.8773 64.908C80.7925 65.2218 80.5875 65.4894 80.3066 65.653L80.3106 65.65Z" fill="black"/>
</g>
</g>
</g>
<defs>
<clipPath id="clip0_605_3614">
<rect width="179.976" height="80" fill="white" transform="translate(0.0546875)"/>
</clipPath>
</defs>
</svg>
