<svg width="49" height="48" viewBox="0 0 49 48" fill="none" xmlns="http://www.w3.org/2000/svg">
<g id="okf-client-centric-development.svg" clip-path="url(#clip0_420_7022)">
<path id="Vector" fill-rule="evenodd" clip-rule="evenodd" d="M4.052 0.100657C2.45785 0.495132 1.03879 2.15577 0.65452 4.07649C0.450015 5.09919 0.447766 33.3444 0.652177 34.3571C1.05491 36.3522 2.48372 37.9829 4.14993 38.3487C4.76853 38.4847 10.524 38.4977 10.859 38.3639C11.4294 38.1362 11.5971 37.2583 11.1581 36.7971L10.9129 36.5396L7.658 36.4903C4.52679 36.4429 4.38838 36.433 4.01619 36.2241C3.49125 35.9292 2.90782 35.2095 2.64886 34.5375L2.43489 33.982V24.5381V15.0942L22.7963 15.0695L43.1578 15.0446V20.0619V25.0791L42.8063 25.0813C42.3841 25.0838 41.7045 25.3907 41.3638 25.7326L41.1162 25.9809L40.4733 25.6885C40.1199 25.5278 39.7394 25.3673 39.6279 25.3321C39.4672 25.2813 39.4119 25.1629 39.3592 24.7556C39.2477 23.8908 38.846 23.2704 38.1569 22.8985C37.7009 22.6525 36.0636 22.5448 35.2428 22.7069C34.2162 22.9098 33.5433 23.6582 33.4397 24.7122L33.3879 25.2399L32.5542 25.6096L31.7207 25.9794L31.4297 25.7225C30.9312 25.2823 30.5857 25.1435 29.9896 25.1438C29.6009 25.144 29.3116 25.2077 29.0524 25.3503C28.5477 25.6279 26.9869 27.3005 26.8068 27.7566C26.5114 28.5048 26.719 29.5869 27.2753 30.1979L27.5022 30.447L27.1405 31.3291L26.7788 32.2111L26.2754 32.264C25.7004 32.3244 25.3174 32.5145 24.9627 32.9156C24.4647 33.4785 24.3791 33.789 24.337 35.187L24.2976 36.4903H21.3958H18.494L18.2201 36.7779C17.7603 37.2606 17.8871 38.0302 18.4789 38.348C18.6204 38.4238 19.9383 38.4579 22.7448 38.4579H26.806L27.1636 39.3458L27.5211 40.2336L27.2439 40.565C26.6494 41.2757 26.5127 42.2976 26.9048 43.1007C27.15 43.6029 28.6395 45.1167 29.108 45.3398C29.6902 45.6169 30.3551 45.5997 30.9427 45.2925C31.2036 45.1561 31.4871 44.9631 31.5728 44.8638C31.7232 44.6893 31.7574 44.6953 32.5593 45.0382L33.3901 45.3931L33.4908 46.0297C33.6213 46.855 33.9604 47.3647 34.6179 47.7252C35.0916 47.9851 35.1857 48 36.3393 48C37.0103 48 37.7202 47.9493 37.9166 47.8878C38.7093 47.6385 39.2875 46.8437 39.3832 45.8724C39.4116 45.5818 39.4817 45.3434 39.5392 45.3428C39.5963 45.3421 39.979 45.1875 40.3896 44.9995L41.1361 44.6575L41.4206 44.9465C42.0165 45.552 43.0223 45.7222 43.7669 45.3438C44.2561 45.0955 45.8275 43.4231 46.0154 42.9511C46.3198 42.1867 46.1373 41.1618 45.5909 40.5693L45.3156 40.2707L45.6415 39.4871C45.8205 39.0564 45.9677 38.6486 45.9683 38.5807C45.9689 38.5053 46.1006 38.4579 46.31 38.4579C46.9116 38.4579 47.4014 38.2391 47.8466 37.772C48.4015 37.1894 48.5 36.8071 48.5 35.236C48.5 34.025 48.4858 33.9264 48.2382 33.4292C47.8801 32.7095 47.3755 32.348 46.6211 32.2705L46.0428 32.2111L45.8281 31.6103C45.71 31.2798 45.5467 30.8749 45.4659 30.7103C45.332 30.4386 45.332 30.3993 45.4653 30.283C45.5461 30.2126 45.7343 29.9314 45.8837 29.6583C46.3798 28.7508 46.2276 27.7616 45.4542 26.8629L45.1343 26.4914L45.1062 15.4315L45.0778 4.37161L44.8217 3.57696C44.3891 2.23437 43.4695 1.00411 42.518 0.494542C41.5359 -0.0312614 42.5237 -0.00676644 22.7298 0.00385781C12.4955 0.00946507 4.24807 0.0521588 4.052 0.100657ZM41.3142 2.11858C41.8839 2.32231 42.4924 2.94934 42.8376 3.68792L43.111 4.27326L43.1379 8.67542L43.1651 13.0776H22.7711H2.37725L2.40715 8.7738C2.4363 4.56354 2.44164 4.45788 2.64999 3.91448C2.99573 3.0123 3.68789 2.29654 4.44939 2.05336C4.57855 2.01214 12.8272 1.97456 22.7796 1.96994C39.1185 1.96227 40.9176 1.97673 41.3142 2.11858ZM8.48006 4.37575C7.89989 4.54328 7.11535 5.06632 6.82416 5.47978C6.29452 6.23166 6.18431 6.59229 6.18551 7.56874C6.18655 8.34293 6.22356 8.58157 6.40147 8.95935C6.7472 9.69368 7.21403 10.1879 7.89374 10.5391C8.44125 10.822 8.6107 10.8619 9.27232 10.863C9.90437 10.864 10.1176 10.8195 10.5888 10.5881C11.314 10.232 11.9679 9.50777 12.2326 8.76771C12.5075 7.99902 12.4664 6.84569 12.1392 6.14489C11.4783 4.72929 9.89941 3.96593 8.48006 4.37575ZM16.7211 4.35274C15.0963 4.83466 14.1023 6.45123 14.396 8.13438C14.5908 9.25178 15.2295 10.1038 16.2479 10.605C16.9922 10.9713 18.0434 10.9694 18.8035 10.6003C19.4757 10.2739 20.0521 9.67018 20.3691 8.96051C20.5765 8.4961 20.6172 8.26768 20.6172 7.56874C20.6172 6.85248 20.5797 6.6523 20.3554 6.17283C19.6956 4.76266 18.0751 3.95106 16.7211 4.35274ZM27.9508 4.33089C26.0272 4.80672 24.9346 7.04382 25.7181 8.90268C25.9759 9.51446 26.691 10.2751 27.3068 10.5925L27.834 10.8642H32.8012C37.7669 10.8642 37.7688 10.8641 38.2299 10.641C38.9363 10.2991 39.4359 9.81262 39.7833 9.12884C40.5468 7.62472 40.1202 5.82194 38.7683 4.84164C37.9495 4.24797 37.7019 4.22297 32.7582 4.2339C30.3076 4.23939 28.1443 4.28299 27.9508 4.33089ZM10.0898 6.55147C10.6658 7.0985 10.6871 7.98938 10.137 8.51851C9.70457 8.93455 9.25488 9.02317 8.79001 8.78393C7.92052 8.33664 7.75915 7.22069 8.46664 6.54862C8.85888 6.17598 9.69614 6.17743 10.0898 6.55147ZM18.3209 6.57074C18.8836 7.01018 18.9108 7.95307 18.3773 8.51311C17.9634 8.94753 17.5114 9.0283 16.9865 8.76159C16.4875 8.50808 16.2591 8.12061 16.2591 7.52753C16.2591 7.15253 16.3121 7.01323 16.5652 6.72341C17.0435 6.17558 17.7378 6.11517 18.3209 6.57074ZM37.7088 6.47669C38.2839 6.90697 38.4415 7.68599 38.0714 8.26739C37.6343 8.95392 37.6972 8.94564 32.9303 8.94574C30.5783 8.94584 28.5174 8.91724 28.3504 8.88222C27.9429 8.79661 27.452 8.2651 27.3732 7.8239C27.295 7.38624 27.5752 6.6583 27.89 6.48152C28.3494 6.22338 28.7223 6.20441 32.9887 6.22229L37.3937 6.2407L37.7088 6.47669ZM15.3508 20.7517C15.2378 20.7994 15.0776 20.9471 14.9948 21.0797C14.8199 21.3598 12.9682 29.3702 12.9481 29.9333C12.937 30.2453 12.9881 30.3617 13.2393 30.5974C13.7792 31.1037 14.5267 30.8915 14.7508 30.1683C14.9679 29.468 16.6453 21.9598 16.6489 21.6726C16.6541 21.2616 16.4989 20.9809 16.1673 20.8009C15.8622 20.6353 15.6553 20.6228 15.3508 20.7517ZM9.07953 21.5657C8.68242 21.8062 6.04653 25.0191 5.9347 25.3988C5.74286 26.0506 5.91203 26.365 7.4072 28.134C8.15935 29.0238 8.86068 29.8294 8.96575 29.924C9.08215 30.0288 9.3109 30.0961 9.55075 30.0961C10.0904 30.0961 10.4483 29.7156 10.4483 29.1417C10.4483 28.7652 10.3694 28.6458 9.22984 27.2962C8.55974 26.5026 8.01143 25.8213 8.01143 25.7821C8.01143 25.7429 8.25399 25.4239 8.55036 25.0731C10.5112 22.7523 10.4483 22.8406 10.4483 22.4149C10.4483 21.6661 9.69023 21.1958 9.07953 21.5657ZM19.464 21.6842C19.1327 21.9768 19.0425 22.3645 19.2121 22.7674C19.2805 22.9297 19.8456 23.6601 20.468 24.3905C21.0904 25.1209 21.5999 25.7466 21.6004 25.7807C21.601 25.8149 21.0713 26.4678 20.4233 27.2317C19.01 28.8978 18.868 29.2662 19.4172 29.8426C19.6 30.0346 19.7525 30.0953 20.0442 30.093C20.2563 30.0913 20.4971 30.0359 20.5794 29.97C20.9929 29.6387 23.5831 26.4652 23.6728 26.18C23.867 25.5624 23.7223 25.2489 22.651 23.9664C22.1001 23.3069 21.3733 22.4686 21.036 22.1033C20.5003 21.5234 20.3796 21.4393 20.082 21.4393C19.8557 21.4393 19.6481 21.5215 19.464 21.6842ZM37.4407 25.3988C37.4411 25.8806 37.4941 26.2237 37.6049 26.4563C37.7534 26.7684 37.8522 26.8292 38.659 27.1048C39.1488 27.2721 39.8963 27.5931 40.3204 27.818C40.7445 28.043 41.1885 28.227 41.3073 28.227C41.5747 28.227 41.8589 28.0317 42.4321 27.4534L42.8777 27.0036L43.58 27.7358C43.9665 28.1385 44.2823 28.5151 44.2823 28.5726C44.2823 28.6301 44.072 28.8946 43.8149 29.1605C43.5576 29.4264 43.3008 29.7913 43.2443 29.9714C43.1499 30.2714 43.1808 30.383 43.6113 31.3041C43.8699 31.8571 44.1683 32.6222 44.2744 33.0043C44.5526 34.0062 44.7418 34.1611 45.764 34.2257L46.5787 34.277L46.6056 35.2462C46.6229 35.8762 46.5945 36.2635 46.5238 36.3529C46.448 36.4489 46.1966 36.4903 45.6895 36.4903C44.7143 36.4903 44.5722 36.6127 44.2378 37.7419C44.0969 38.2169 43.7922 38.9892 43.5601 39.4586C43.1726 40.2429 43.1471 40.3389 43.2427 40.6441C43.3002 40.8265 43.5576 41.1933 43.8149 41.4594C44.072 41.7252 44.2823 41.9897 44.2823 42.047C44.2823 42.1801 42.9513 43.5731 42.8243 43.5731C42.7722 43.5731 42.5022 43.3314 42.2243 43.0361C41.5239 42.2916 41.3597 42.2721 40.3615 42.8157C39.9149 43.059 39.1817 43.3754 38.7323 43.5188C37.658 43.8621 37.5342 44.02 37.5342 45.0502C37.5342 45.5821 37.4947 45.8463 37.4035 45.9257C37.3182 45.9999 36.9494 46.03 36.3491 46.0115L35.4257 45.9833L35.3767 45.1283C35.3155 44.057 35.1677 43.8584 34.2131 43.5618C33.8489 43.4486 33.1308 43.1351 32.6174 42.865C31.7566 42.4125 31.658 42.3823 31.3518 42.4787C31.166 42.5369 30.8149 42.8011 30.555 43.0782C30.2994 43.3503 30.0455 43.5731 29.9908 43.5731C29.936 43.5731 29.5822 43.2467 29.2045 42.8478C28.4452 42.0454 28.4287 41.9384 28.9987 41.5124C29.3364 41.2601 29.6616 40.7252 29.6616 40.4223C29.6616 40.2978 29.4761 39.8162 29.2494 39.3517C29.0227 38.8873 28.7435 38.1749 28.6289 37.7694C28.3253 36.6935 28.1609 36.5508 27.1528 36.4903L26.3344 36.4413L26.3079 35.3346L26.2813 34.2276H26.9639C27.4263 34.2276 27.7522 34.172 27.9739 34.0555C28.272 33.8989 28.3311 33.791 28.6352 32.8506C28.8189 32.2825 29.125 31.5122 29.3153 31.1388C29.5058 30.7655 29.6616 30.3759 29.6616 30.2732C29.6616 29.9762 29.4289 29.5893 28.9661 29.1165C28.7301 28.8753 28.5369 28.6329 28.5369 28.5779C28.5369 28.4146 29.7843 27.1449 29.9446 27.1449C30.0258 27.1449 30.2589 27.3256 30.4626 27.5465C30.8911 28.011 31.243 28.227 31.5709 28.227C31.6983 28.227 32.1614 28.0301 32.5997 27.7894C33.038 27.5487 33.7059 27.2567 34.0833 27.1404C34.5506 26.9966 34.8516 26.8376 35.0272 26.6421C35.2631 26.3792 35.2848 26.2896 35.2848 25.5858C35.2848 25.1628 35.3129 24.7872 35.3474 24.7512C35.3818 24.7151 35.8668 24.6856 36.4255 24.6856H37.4407V25.3988ZM35.0038 29.4636C33.4289 29.8958 31.9615 31.1533 31.2719 32.6614C30.7903 33.7149 30.6561 34.4508 30.7126 35.7282C30.748 36.5297 30.8111 36.8776 31.0202 37.4248C31.7073 39.2239 32.9139 40.4441 34.6444 41.089C35.5248 41.417 37.0624 41.4571 37.9561 41.1751C39.9089 40.5593 41.4178 38.9747 41.996 36.9332C42.2486 36.0407 42.2303 34.5742 41.9549 33.6374C41.3556 31.5978 39.692 29.9272 37.7925 29.4571C37.0561 29.2749 35.6796 29.278 35.0038 29.4636ZM38.0448 31.6533C40.454 32.8366 41.0404 36.0854 39.2114 38.1153C37.3533 40.1773 34.1736 39.6652 32.9701 37.11C32.6789 36.4916 32.6202 36.2552 32.5858 35.5653C32.5353 34.555 32.7055 33.8837 33.2152 33.0845C33.6768 32.3606 34.3823 31.791 35.1825 31.4964C36.0762 31.1673 37.1786 31.2277 38.0448 31.6533ZM14.1867 36.6379C13.6431 36.9481 13.6135 37.7641 14.1293 38.2196C14.3735 38.4351 14.4856 38.4695 14.8017 38.4252C15.3181 38.3523 15.603 37.9978 15.603 37.4281C15.603 37.0706 15.5554 36.9577 15.3147 36.7452C14.9898 36.4582 14.5715 36.4184 14.1867 36.6379Z" fill="#0088CC"/>
</g>
<defs>
<clipPath id="clip0_420_7022">
<rect width="48" height="48" fill="white" transform="translate(0.5)"/>
</clipPath>
</defs>
</svg>
