<svg width="49" height="48" viewBox="0 0 49 48" fill="none" xmlns="http://www.w3.org/2000/svg">
<g id="coding.svg">
<path id="Vector" d="M39.575 8.21289H9.42505C8.07505 8.21289 6.98755 9.45039 6.98755 10.9504V31.5004C6.98755 33.0004 8.07505 34.2379 9.42505 34.2379H20.525L20.15 38.5129H17.6375C17.2625 38.5129 16.9625 38.8129 16.9625 39.1879C16.9625 39.5629 17.2625 39.8629 17.6375 39.8629H31.4001C31.7751 39.8629 32.075 39.5629 32.075 39.1879C32.075 38.8129 31.7751 38.5129 31.4001 38.5129H28.8875L28.5125 34.2379H39.6125C40.9625 34.2379 42.05 33.0004 42.05 31.5004V10.9129C42.05 9.41289 40.925 8.21289 39.575 8.21289ZM9.42505 9.52539H39.575C40.2125 9.52539 40.7 10.1629 40.7 10.9504V10.9879H8.30005V10.9504C8.30005 10.1254 8.78755 9.52539 9.42505 9.52539ZM8.30005 12.3004H40.7375V29.0254H8.30005V12.3004ZM27.5375 38.4754H21.4625L21.8375 34.2004H27.1625L27.5375 38.4754ZM39.575 32.8879H27.7625H21.2375H9.42505C8.78755 32.8879 8.30005 32.2504 8.30005 31.4629V30.2629H40.7375V31.5004C40.7375 32.2504 40.2125 32.8879 39.575 32.8879Z" fill="#FE7F2D"/>
<g id="Group">
<path id="Vector_2" d="M33.0128 20.7753L28.6253 18.6003C28.2878 18.4503 27.9128 18.5628 27.7628 18.9003C27.6128 19.2378 27.7253 19.6128 28.0628 19.7628L31.2503 21.3753L28.0253 22.9503C27.6878 23.1003 27.5753 23.5128 27.7253 23.8128C27.8378 24.0378 28.0628 24.1878 28.3253 24.1878C28.4378 24.1878 28.5128 24.1503 28.6253 24.1128L33.0128 21.9378C33.2378 21.8253 33.3878 21.6003 33.3878 21.3378C33.3878 21.0753 33.2378 20.8878 33.0128 20.7753Z" fill="#FE7F2D"/>
<path id="Vector_3" d="M21.2754 18.9003C21.1254 18.5628 20.7129 18.4503 20.4129 18.6003L16.0254 20.7753C15.8004 20.8878 15.6504 21.1128 15.6504 21.3753C15.6504 21.6378 15.8004 21.8628 16.0254 21.9753L20.3754 24.1503C20.4879 24.1878 20.5629 24.2253 20.6754 24.2253C20.9004 24.2253 21.1629 24.0753 21.2754 23.8503C21.4254 23.5128 21.3129 23.1378 20.9754 22.9878L17.7504 21.3753L20.9754 19.8003C21.3129 19.6128 21.4254 19.2378 21.2754 18.9003Z" fill="#FE7F2D"/>
<path id="Vector_4" d="M26.3754 17.0249C26.0379 16.8749 25.6629 17.0249 25.5129 17.3624L22.2504 25.0874C22.1004 25.4249 22.2504 25.7999 22.5879 25.9499C22.6629 25.9874 22.7754 25.9874 22.8504 25.9874C23.1129 25.9874 23.3379 25.8374 23.4504 25.5749L26.7504 17.8874C26.8629 17.5499 26.7129 17.1374 26.3754 17.0249Z" fill="#FE7F2D"/>
</g>
</g>
</svg>
