<svg width="49" height="48" viewBox="0 0 49 48" fill="none" xmlns="http://www.w3.org/2000/svg">
<g id="computer.svg" clip-path="url(#clip0_420_7094)">
<path id="Vector" d="M30.125 32.4375C29.6075 32.4375 29.1875 32.8575 29.1875 33.375C29.1875 33.8925 29.6075 34.3125 30.125 34.3125C30.6425 34.3125 31.0625 33.8925 31.0625 33.375C31.0625 32.8575 30.6425 32.4375 30.125 32.4375Z" fill="#0088CC"/>
<path id="Vector_2" d="M43.8125 0H5.1875C2.60278 0 0.5 2.10278 0.5 4.6875V33.375C0.5 35.9597 2.60278 38.0625 5.1875 38.0625H19.8125V42.375H18.875C17.6233 42.375 16.4467 42.8628 15.5608 43.7483C14.6753 44.6342 14.1875 45.8108 14.1875 47.0625C14.1875 47.5803 14.6072 48 15.125 48H33.875C34.3928 48 34.8125 47.5803 34.8125 47.0625C34.8125 44.4778 32.7097 42.375 30.125 42.375H29.1875V38.0625H43.8125C46.3972 38.0625 48.5 35.9597 48.5 33.375V4.6875C48.5 2.10278 46.3972 0 43.8125 0ZM5.1875 1.875H43.8125C45.3634 1.875 46.625 3.1366 46.625 4.6875V28.6875H42.3125V7.125C42.3125 6.60718 41.8928 6.1875 41.375 6.1875H33.875C33.3572 6.1875 32.9375 6.60718 32.9375 7.125V28.6875H28.2449C28.235 27.7178 28.2097 26.762 28.1694 25.8347C28.0054 22.0166 27.6315 19.459 27.437 18.334C29.3713 16.9098 29.8994 14.2701 28.7169 12.2194L25.4675 6.59143C25.2998 6.30139 24.9904 6.12268 24.6556 6.12268C24.3206 6.12268 24.0111 6.30139 23.8438 6.59143L20.5929 12.2197C19.4781 14.1533 19.8733 16.6578 21.6245 18.1359C21.4216 19.2576 21.0122 21.9067 20.8342 25.8329C20.7921 26.77 20.7654 27.7266 20.7551 28.6875H16.0625V14.625C16.0625 14.4763 16.0273 14.3408 15.9698 14.2203C15.9673 14.2156 15.9658 14.2104 15.9636 14.2057L12.2136 6.70569C12.0547 6.38818 11.7302 6.1875 11.375 6.1875C11.0198 6.1875 10.6953 6.38818 10.5364 6.70569L6.78638 14.2057C6.78418 14.2104 6.78271 14.2156 6.78052 14.2203C6.72192 14.3419 6.6875 14.4796 6.6875 14.625V28.6875H2.375V4.6875C2.375 3.1366 3.6366 1.875 5.1875 1.875ZM34.8125 28.6875V8.0625H40.4375V9.9375H39.5C38.9822 9.9375 38.5625 10.3572 38.5625 10.875C38.5625 11.3928 38.9822 11.8125 39.5 11.8125H40.4375V14.625H39.5C38.9822 14.625 38.5625 15.0447 38.5625 15.5625C38.5625 16.0803 38.9822 16.5 39.5 16.5H40.4375V19.3125H39.5C38.9822 19.3125 38.5625 19.7322 38.5625 20.25C38.5625 20.7678 38.9822 21.1875 39.5 21.1875H40.4375V24.9375H39.5C38.9822 24.9375 38.5625 25.3572 38.5625 25.875C38.5625 26.3928 38.9822 26.8125 39.5 26.8125H40.4375V28.6875H34.8125ZM24.6556 19.2477C24.9962 19.2477 25.3353 19.2085 25.6671 19.1353C25.8411 20.2504 26.0967 22.2235 26.2479 24.9375H22.7583C22.9169 22.2253 23.1846 20.2214 23.3695 19.0686C23.7848 19.1869 24.2173 19.2477 24.6556 19.2477ZM24.6556 17.3727C22.5129 17.3727 21.1312 15.0406 22.217 13.1569L24.6556 8.93518L27.0928 13.1565C28.1746 15.0326 26.8119 17.3727 24.6556 17.3727ZM22.6722 26.8125H26.3303C26.3501 27.4285 26.3636 28.0551 26.3702 28.6875H22.6301C22.6371 28.0591 22.6514 27.4325 22.6722 26.8125ZM12.3125 28.6875V15.5625H14.1875V28.6875H12.3125ZM8.5625 28.6875V15.5625H10.4375V28.6875H8.5625ZM9.14185 13.6875L11.375 9.22119L13.6082 13.6875H9.14185ZM32.7767 46.125H16.2222C16.3599 45.7343 16.5847 45.3761 16.8865 45.074C17.4182 44.5426 18.1243 44.25 18.875 44.25H30.125C31.3474 44.25 32.39 45.0337 32.7767 46.125ZM27.3125 42.375H21.6875V38.0625H27.3125V42.375ZM43.8125 36.1875H5.1875C3.6366 36.1875 2.375 34.9259 2.375 33.375V30.5625H46.625V33.375C46.625 34.9259 45.3634 36.1875 43.8125 36.1875Z" fill="#0088CC"/>
<path id="Vector_3" d="M26.375 32.4375H20.75C20.2322 32.4375 19.8125 32.8572 19.8125 33.375C19.8125 33.8928 20.2322 34.3125 20.75 34.3125H26.375C26.8928 34.3125 27.3125 33.8928 27.3125 33.375C27.3125 32.8572 26.8928 32.4375 26.375 32.4375Z" fill="#0088CC"/>
</g>
<defs>
<clipPath id="clip0_420_7094">
<rect width="48" height="48" fill="white" transform="translate(0.5)"/>
</clipPath>
</defs>
</svg>
