<svg width="262" height="47" viewBox="0 0 262 47" fill="none" xmlns="http://www.w3.org/2000/svg">
<path d="M16.75 17.0625L16.244 17.925L16.249 17.9279L16.75 17.0625ZM23.8125 19.3125L23.629 20.2955L23.6312 20.2959L23.8125 19.3125ZM31.125 21.1875L30.7816 22.1268L30.7938 22.131L31.125 21.1875ZM39.0938 27.6562L38.1662 28.0299L38.168 28.0344L39.0938 27.6562ZM9.15625 43.5625L8.67638 44.4398L8.67808 44.4408L9.15625 43.5625ZM0.65625 33.1875L0.122949 32.3416L-0.575678 32.782L-0.275229 33.5513L0.65625 33.1875ZM9.28125 27.75L10.2437 27.4785L9.88032 26.1902L8.74795 26.9041L9.28125 27.75ZM14 35.1562L13.3964 35.9536L14 35.1562ZM27.6875 36.5312L28.171 37.4067L28.1808 37.4011L27.6875 36.5312ZM28.9375 30.7188L28.152 31.3376L28.1624 31.3508L28.1732 31.3636L28.9375 30.7188ZM25.9375 28.9062L25.5968 29.8465L25.6012 29.848L25.9375 28.9062ZM19.8438 27.5625L19.7017 28.5524L19.7023 28.5524L19.8438 27.5625ZM8.75 4.21875L9.37208 5.00171L9.37275 5.00117L8.75 4.21875ZM31.7188 3.4375L31.1777 4.2785L31.1819 4.28116L31.7188 3.4375ZM38.0938 11.75L38.5948 12.6154L39.3101 12.2013L39.038 11.4209L38.0938 11.75ZM29.7812 16.5625L28.8258 16.8577L29.1962 18.0567L30.2823 17.4279L29.7812 16.5625ZM26.3438 10.9688L25.7177 11.7485L25.7237 11.7534L25.7298 11.7581L26.3438 10.9688ZM20.5 8.1875C18.5462 8.1875 16.8579 8.61447 15.5183 9.55719L16.6692 11.1928C17.5796 10.5522 18.8288 10.1875 20.5 10.1875V8.1875ZM15.5183 9.55719C14.1697 10.5062 13.4062 11.7924 13.4062 13.375H15.4062C15.4062 12.5409 15.7678 11.8272 16.6692 11.1928L15.5183 9.55719ZM13.4062 13.375C13.4062 15.3394 14.439 16.8661 16.244 17.925L17.256 16.2C15.936 15.4256 15.4062 14.494 15.4062 13.375H13.4062ZM16.249 17.9279C17.9775 18.9287 20.462 19.7043 23.629 20.2955L23.996 18.3295C20.913 17.754 18.6891 17.0297 17.251 16.1971L16.249 17.9279ZM23.6312 20.2959C26.5357 20.8315 28.9144 21.4441 30.7816 22.1267L31.4684 20.2483C29.4606 19.5143 26.9643 18.8768 23.9938 18.3291L23.6312 20.2959ZM30.7938 22.131C32.6702 22.7898 34.2378 23.618 35.5136 24.6038L36.7364 23.0212C35.2622 21.882 33.4965 20.9602 31.4562 20.244L30.7938 22.131ZM35.5136 24.6038C36.7588 25.566 37.6333 26.707 38.1662 28.0299L40.0213 27.2826C39.3458 25.6055 38.2412 24.184 36.7364 23.0212L35.5136 24.6038ZM38.168 28.0344C38.7107 29.3631 39 31.0088 39 33H41C41 30.8245 40.6851 28.9077 40.0195 27.2781L38.168 28.0344ZM39 33C39 36.6761 37.5091 39.6599 34.4513 42.021L35.6737 43.604C39.1992 40.8817 41 37.3239 41 33H39ZM34.4513 42.021C31.3856 44.3882 27.1969 45.625 21.7812 45.625V47.625C27.4906 47.625 32.156 46.3201 35.6737 43.604L34.4513 42.021ZM21.7812 45.625C17.2657 45.625 13.2243 44.6387 9.63442 42.6842L8.67808 44.4408C12.5882 46.5696 16.9634 47.625 21.7812 47.625V45.625ZM9.63612 42.6852C6.11288 40.7581 3.41695 37.5073 1.58773 32.8237L-0.275229 33.5513C1.68722 38.576 4.65795 42.2419 8.67638 44.4398L9.63612 42.6852ZM1.18955 34.0334L9.81455 28.5959L8.74795 26.9041L0.122949 32.3416L1.18955 34.0334ZM8.3188 28.0215C9.28199 31.4364 10.9598 34.109 13.3964 35.9536L14.6036 34.3589C12.5819 32.8285 11.1138 30.5636 10.2437 27.4785L8.3188 28.0215ZM13.3964 35.9536C15.822 37.7898 18.7395 38.6875 22.0938 38.6875V36.6875C19.1147 36.6875 16.6363 35.8977 14.6036 34.3589L13.3964 35.9536ZM22.0938 38.6875C24.5232 38.6875 26.5742 38.2884 28.1709 37.4066L27.2041 35.6559C26.0091 36.3158 24.3309 36.6875 22.0938 36.6875V38.6875ZM28.1808 37.4011C29.8209 36.4709 30.7812 35.0995 30.7812 33.3125H28.7812C28.7812 34.2339 28.3458 35.0083 27.1942 35.6614L28.1808 37.4011ZM30.7812 33.3125C30.7812 32.0675 30.4478 30.958 29.7018 30.0739L28.1732 31.3636C28.5522 31.8128 28.7812 32.4325 28.7812 33.3125H30.7812ZM29.723 30.0999C29.006 29.1899 27.7907 28.5062 26.2738 27.9645L25.6012 29.848C27.001 30.3479 27.7857 30.8726 28.152 31.3376L29.723 30.0999ZM26.2781 27.9661C24.7459 27.4109 22.6364 26.9513 19.9852 26.5726L19.7023 28.5524C22.3011 28.9237 24.2541 29.3599 25.5969 29.8464L26.2781 27.9661ZM19.9858 26.5726C15.1694 25.8817 11.5268 24.3922 8.96612 22.1807L7.65888 23.6943C10.5982 26.2328 14.6431 27.8267 19.7017 28.5524L19.9858 26.5726ZM8.96612 22.1807C6.46601 20.0215 5.1875 17.0743 5.1875 13.2188H3.1875C3.1875 17.5715 4.65899 21.1035 7.65888 23.6943L8.96612 22.1807ZM5.1875 13.2188C5.1875 9.96864 6.54614 7.24697 9.37208 5.00171L8.12792 3.43579C4.87053 6.02386 3.1875 9.30219 3.1875 13.2188H5.1875ZM9.37275 5.00117C12.2148 2.73912 15.997 1.5625 20.8125 1.5625V-0.4375C15.6697 -0.4375 11.4102 0.823382 8.12725 3.43633L9.37275 5.00117ZM20.8125 1.5625C24.9532 1.5625 28.3912 2.48575 31.1777 4.27849L32.2598 2.59651C29.088 0.555918 25.2551 -0.4375 20.8125 -0.4375V1.5625ZM31.1819 4.28116C33.9532 6.04473 35.9453 8.62466 37.1495 12.0791L39.038 11.4209C37.7005 7.58368 35.4426 4.62194 32.2556 2.59384L31.1819 4.28116ZM37.5927 10.8846L29.2802 15.6971L30.2823 17.4279L38.5948 12.6154L37.5927 10.8846ZM30.7367 16.2673C29.9085 13.5867 28.6736 11.514 26.9577 10.1794L25.7298 11.7581C27.0139 12.7568 28.0706 14.4133 28.8258 16.8577L30.7367 16.2673ZM26.9698 10.189C25.2692 8.82372 23.0809 8.1875 20.5 8.1875V10.1875C22.7525 10.1875 24.4599 10.7388 25.7177 11.7485L26.9698 10.189ZM66.375 34.4062L66.7433 33.4765L65.8012 33.1033L65.4405 34.0503L66.375 34.4062ZM74.5 37.625L75.4378 37.9723L75.7773 37.0554L74.8683 36.6953L74.5 37.625ZM69.25 44.25L69.7915 45.0907L69.7965 45.0875L69.25 44.25ZM48.5938 42.1562L47.8988 42.8753L47.9013 42.8777L48.5938 42.1562ZM45.875 22.7812L44.9997 22.2976L44.9965 22.3035L45.875 22.7812ZM51.375 17.125L50.8683 16.2629L50.865 16.2648L51.375 17.125ZM69.8438 18.875L69.1366 19.5821L69.1453 19.5908L69.1542 19.5993L69.8438 18.875ZM73.375 32.875V33.875H74.2049L74.3579 33.0593L73.375 32.875ZM53.5312 32.875V31.875H52.4234L52.5365 32.977L53.5312 32.875ZM55.6562 36.8438L55.0237 37.6183L55.03 37.6234L55.6562 36.8438ZM64.2188 37.375L63.6392 36.56L64.2188 37.375ZM53.5312 26.4688L52.5975 26.1108L52.077 27.4688H53.5312V26.4688ZM64.5312 26.4688V27.4688H65.5312V26.4688H64.5312ZM63.125 23.5938L62.5024 24.3764L62.5111 24.3831L63.125 23.5938ZM55.8125 23.5625L56.3633 24.3971L56.3672 24.3946L55.8125 23.5625ZM66.0067 35.336L74.1317 38.5547L74.8683 36.6953L66.7433 33.4765L66.0067 35.336ZM73.5622 37.2777C72.5933 39.8938 70.9781 41.9283 68.7035 43.4125L69.7965 45.0875C72.4386 43.3634 74.3233 40.9812 75.4378 37.9723L73.5622 37.2777ZM68.7085 43.4093C66.4411 44.8697 63.6587 45.625 60.3125 45.625V47.625C63.9663 47.625 67.1423 46.797 69.7915 45.0907L68.7085 43.4093ZM60.3125 45.625C55.8357 45.625 52.1858 44.2176 49.2862 41.4348L47.9013 42.8777C51.2101 46.0532 55.3727 47.625 60.3125 47.625V45.625ZM49.2887 41.4372C46.3973 38.6428 44.9375 35.0672 44.9375 30.625H42.9375C42.9375 35.5578 44.5819 39.6697 47.8988 42.8753L49.2887 41.4372ZM44.9375 30.625C44.9375 27.9281 45.546 25.4792 46.7535 23.259L44.9965 22.3035C43.6206 24.8333 42.9375 27.6135 42.9375 30.625H44.9375ZM46.7502 23.2649C47.9759 21.0471 49.6825 19.2911 51.885 17.9852L50.865 16.2648C48.3591 17.7506 46.3991 19.7654 44.9998 22.2976L46.7502 23.2649ZM51.8817 17.9871C54.0929 16.6876 56.5722 16.0312 59.3438 16.0312V14.0312C56.2403 14.0312 53.4071 14.7707 50.8683 16.2629L51.8817 17.9871ZM59.3438 16.0312C63.5794 16.0312 66.8022 17.2476 69.1366 19.5821L70.5509 18.1679C67.7603 15.3774 63.9831 14.0312 59.3438 14.0312V16.0312ZM69.1542 19.5993C71.5242 21.8554 72.75 24.9385 72.75 28.9688H74.75C74.75 24.499 73.3717 20.8529 70.5333 18.1507L69.1542 19.5993ZM72.75 28.9688C72.75 30.1738 72.6315 31.4141 72.3921 32.6907L74.3579 33.0593C74.6185 31.6692 74.75 30.3054 74.75 28.9688H72.75ZM73.375 31.875H53.5312V33.875H73.375V31.875ZM52.5365 32.977C52.7298 34.8617 53.5659 36.4278 55.0237 37.6183L56.2888 36.0692C55.2466 35.2181 54.6661 34.1383 54.526 32.773L52.5365 32.977ZM55.03 37.6234C56.5085 38.811 58.3349 39.375 60.4375 39.375V37.375C58.7068 37.375 57.3457 36.9182 56.2825 36.0641L55.03 37.6234ZM60.4375 39.375C62.1523 39.375 63.6385 39.0147 64.7983 38.19L63.6392 36.56C62.924 37.0686 61.8894 37.375 60.4375 37.375V39.375ZM64.7983 38.19C65.9294 37.3856 66.7548 36.2183 67.3095 34.7622L65.4405 34.0503C64.9952 35.2192 64.3831 36.031 63.6392 36.56L64.7983 38.19ZM53.5312 27.4688H64.5312V25.4688H53.5312V27.4688ZM65.5312 26.4688C65.5312 24.9726 64.92 23.723 63.7389 22.8044L62.5111 24.3831C63.205 24.9228 63.5312 25.5899 63.5312 26.4688H65.5312ZM63.7475 22.8111C62.5985 21.8971 61.0912 21.5 59.3438 21.5V23.5C60.8046 23.5 61.8182 23.832 62.5025 24.3764L63.7475 22.8111ZM59.3438 21.5C57.8571 21.5 56.4866 21.9113 55.2578 22.7304L56.3672 24.3946C57.2634 23.7971 58.2471 23.5 59.3438 23.5V21.5ZM55.2617 22.7279C54.0328 23.5389 53.1457 24.6808 52.5975 26.1108L54.465 26.8267C54.8752 25.7567 55.5089 24.9611 56.3633 24.3971L55.2617 22.7279ZM79.9062 15.6562V14.6562H78.9062V15.6562H79.9062ZM89.5 15.6562H90.5V14.6562H89.5V15.6562ZM89.5 19.125H88.5L90.379 19.6018L89.5 19.125ZM103.219 17.5312L102.466 18.1898L102.471 18.195L103.219 17.5312ZM104.938 28.0938V29.0938H105.724L105.909 28.3293L104.938 28.0938ZM96.0938 28.0938L95.1451 27.7775L94.7063 29.0938H96.0938V28.0938ZM95.5312 23.5938L94.7891 24.264L94.7946 24.2701L94.8002 24.2761L95.5312 23.5938ZM89.5 46V47H90.5V46H89.5ZM79.9062 46H78.9062V47H79.9062V46ZM79.9062 16.6562H89.5V14.6562H79.9062V16.6562ZM88.5 15.6562V19.125H90.5V15.6562H88.5ZM90.379 19.6018C90.9544 18.5409 91.7908 17.6806 92.9145 17.0175L91.898 15.295C90.48 16.1319 89.3789 17.2507 88.621 18.6482L90.379 19.6018ZM92.9145 17.0175C94.0141 16.3685 95.2931 16.0312 96.7812 16.0312V14.0312C94.9778 14.0312 93.34 14.444 91.898 15.295L92.9145 17.0175ZM96.7812 16.0312C99.4125 16.0312 101.248 16.7975 102.466 18.1898L103.971 16.8727C102.273 14.9316 99.8167 14.0312 96.7812 14.0312V16.0312ZM102.471 18.195C103.744 19.6295 104.438 21.6488 104.438 24.375H106.438C106.438 21.3096 105.652 18.7664 103.967 16.8675L102.471 18.195ZM104.438 24.375C104.438 25.3812 104.285 26.5399 103.966 27.8582L105.909 28.3293C106.256 26.8976 106.438 25.5771 106.438 24.375H104.438ZM104.938 27.0938H96.0938V29.0938H104.938V27.0938ZM97.0424 28.41C97.2891 27.67 97.4062 26.8741 97.4062 26.0312H95.4062C95.4062 26.6884 95.3151 27.2675 95.1451 27.7775L97.0424 28.41ZM97.4062 26.0312C97.4062 24.8238 97.0474 23.7526 96.2623 22.9114L94.8002 24.2761C95.1817 24.6849 95.4062 25.2387 95.4062 26.0312H97.4062ZM96.2734 22.9235C95.4713 22.0355 94.3926 21.625 93.1562 21.625V23.625C93.9199 23.625 94.4245 23.8603 94.7891 24.264L96.2734 22.9235ZM93.1562 21.625C91.7513 21.625 90.5543 22.1257 89.6939 23.1804L91.2436 24.4446C91.6749 23.916 92.2696 23.625 93.1562 23.625V21.625ZM89.6939 23.1804C88.8551 24.2086 88.5 25.5661 88.5 27.125H90.5C90.5 25.8506 90.7908 24.9997 91.2436 24.4446L89.6939 23.1804ZM88.5 27.125V46H90.5V27.125H88.5ZM89.5 45H79.9062V47H89.5V45ZM80.9062 46V15.6562H78.9062V46H80.9062ZM118.625 15.6562L119.568 15.3226L119.332 14.6562H118.625V15.6562ZM126.312 37.375L125.37 37.7087L126.312 40.372L127.255 37.7087L126.312 37.375ZM134 15.6562V14.6562H133.293L133.057 15.3226L134 15.6562ZM144.25 15.6562L145.182 16.0199L145.714 14.6562H144.25V15.6562ZM132.406 46V47H133.089L133.338 46.3636L132.406 46ZM120.25 46L119.318 46.3636L119.567 47H120.25V46ZM108.406 15.6562V14.6562H106.942L107.475 16.0199L108.406 15.6562ZM117.682 15.9899L125.37 37.7087L127.255 37.0413L119.568 15.3226L117.682 15.9899ZM127.255 37.7087L134.943 15.9899L133.057 15.3226L125.37 37.0413L127.255 37.7087ZM134 16.6562H144.25V14.6562H134V16.6562ZM143.318 15.2926L131.475 45.6364L133.338 46.3636L145.182 16.0199L143.318 15.2926ZM132.406 45H120.25V47H132.406V45ZM121.182 45.6364L109.338 15.2926L107.475 16.0199L119.318 46.3636L121.182 45.6364ZM108.406 16.6562H118.625V14.6562H108.406V16.6562ZM148.969 15.6562V14.6562H147.969V15.6562H148.969ZM158.562 15.6562H159.562V14.6562H158.562V15.6562ZM158.562 46V47H159.562V46H158.562ZM148.969 46H147.969V47H148.969V46ZM148.656 11.75H147.656V12.75H148.656V11.75ZM148.656 1.84375V0.84375H147.656V1.84375H148.656ZM158.875 1.84375H159.875V0.84375H158.875V1.84375ZM158.875 11.75V12.75H159.875V11.75H158.875ZM148.969 16.6562H158.562V14.6562H148.969V16.6562ZM157.562 15.6562V46H159.562V15.6562H157.562ZM158.562 45H148.969V47H158.562V45ZM149.969 46V15.6562H147.969V46H149.969ZM149.656 11.75V1.84375H147.656V11.75H149.656ZM148.656 2.84375H158.875V0.84375H148.656V2.84375ZM157.875 1.84375V11.75H159.875V1.84375H157.875ZM158.875 10.75H148.656V12.75H158.875V10.75ZM185.75 36.2812L186.444 37.0009L186.451 36.9946L185.75 36.2812ZM187.906 31.5938L188.232 30.6484L187.07 30.2475L186.914 31.4671L187.906 31.5938ZM196.875 34.6875L197.842 34.9431L198.079 34.0451L197.201 33.7422L196.875 34.6875ZM166.5 22.5625L165.649 22.0372L165.646 22.0426L166.5 22.5625ZM172.344 17L171.87 16.1195L171.866 16.1212L172.344 17ZM190.188 17.875L189.608 18.69L189.611 18.6921L190.188 17.875ZM195.344 25.8438L195.665 26.7907L196.512 26.5031L196.32 25.6293L195.344 25.8438ZM186.875 28.7188L185.89 28.8895L186.089 30.0415L187.196 29.6657L186.875 28.7188ZM184.75 25.0312L184.118 25.8065L184.126 25.8129L184.134 25.8191L184.75 25.0312ZM175.938 36.0312L175.236 36.7438L175.242 36.7493L175.938 36.0312ZM180.938 39C183.156 39 185.03 38.3652 186.444 37.0009L185.056 35.5616C184.095 36.489 182.761 37 180.938 37V39ZM186.451 36.9946C187.827 35.6427 188.625 33.8584 188.898 31.7204L186.914 31.4671C186.687 33.2458 186.048 34.5865 185.049 35.5679L186.451 36.9946ZM187.58 32.5391L196.549 35.6328L197.201 33.7422L188.232 30.6484L187.58 32.5391ZM195.908 34.4319C194.9 38.2469 193.149 41.0156 190.713 42.8402C188.273 44.6676 185.043 45.625 180.938 45.625V47.625C185.352 47.625 189.039 46.5928 191.912 44.441C194.788 42.2865 196.746 39.0865 197.842 34.9431L195.908 34.4319ZM180.938 45.625C176.191 45.625 172.444 44.2261 169.598 41.4971L168.214 42.9404C171.494 46.0864 175.768 47.625 180.938 47.625V45.625ZM169.598 41.4971C166.759 38.7733 165.312 35.1828 165.312 30.625H163.312C163.312 35.6505 164.929 39.7892 168.214 42.9404L169.598 41.4971ZM165.312 30.625C165.312 27.8174 165.997 25.3118 167.354 23.0824L165.646 22.0426C164.086 24.6049 163.312 27.4743 163.312 30.625H165.312ZM167.351 23.0878C168.741 20.8367 170.561 19.106 172.821 17.8788L171.866 16.1212C169.293 17.519 167.218 19.4967 165.649 22.0372L167.351 23.0878ZM172.818 17.8805C175.104 16.6495 177.596 16.0312 180.312 16.0312V14.0312C177.279 14.0312 174.459 14.7255 171.87 16.1195L172.818 17.8805ZM180.312 16.0312C184.063 16.0312 187.142 16.9367 189.608 18.69L190.767 17.06C187.9 15.0216 184.395 14.0312 180.312 14.0312V16.0312ZM189.611 18.6921C192.081 20.4344 193.667 22.8684 194.367 26.0582L196.32 25.6293C195.521 21.9858 193.669 19.1073 190.764 17.0579L189.611 18.6921ZM195.022 24.8968L186.554 27.7718L187.196 29.6657L195.665 26.7907L195.022 24.8968ZM187.86 28.548C187.551 26.765 186.725 25.3064 185.366 24.2434L184.134 25.8191C185.066 26.5478 185.657 27.5475 185.89 28.8895L187.86 28.548ZM185.382 24.256C184.057 23.1765 182.451 22.6562 180.625 22.6562V24.6562C182.049 24.6562 183.193 25.0527 184.118 25.8065L185.382 24.256ZM180.625 22.6562C178.51 22.6562 176.675 23.4038 175.174 24.881L176.576 26.3065C177.7 25.2003 179.031 24.6562 180.625 24.6562V22.6562ZM175.174 24.881C173.64 26.3899 172.906 28.3706 172.906 30.7188H174.906C174.906 28.8169 175.485 27.3809 176.576 26.3065L175.174 24.881ZM172.906 30.7188C172.906 33.1479 173.66 35.1919 175.236 36.7438L176.639 35.3187C175.507 34.2039 174.906 32.7062 174.906 30.7188H172.906ZM175.242 36.7493C176.792 38.2523 178.713 39 180.938 39V37C179.204 37 177.791 36.4352 176.633 35.3132L175.242 36.7493ZM222.938 34.4062L223.306 33.4765L222.364 33.1033L222.003 34.0503L222.938 34.4062ZM231.062 37.625L232 37.9723L232.34 37.0554L231.431 36.6953L231.062 37.625ZM225.812 44.25L226.354 45.0907L226.359 45.0875L225.812 44.25ZM205.156 42.1562L204.461 42.8753L204.464 42.8777L205.156 42.1562ZM202.438 22.7812L201.562 22.2976L201.559 22.3035L202.438 22.7812ZM207.938 17.125L207.431 16.2629L207.427 16.2648L207.938 17.125ZM226.406 18.875L225.699 19.5821L225.708 19.5908L225.717 19.5993L226.406 18.875ZM229.938 32.875V33.875H230.767L230.92 33.0593L229.938 32.875ZM210.094 32.875V31.875H208.986L209.099 32.977L210.094 32.875ZM212.219 36.8438L211.586 37.6183L211.592 37.6234L212.219 36.8438ZM220.781 37.375L220.202 36.56L220.781 37.375ZM210.094 26.4688L209.16 26.1108L208.639 27.4688H210.094V26.4688ZM221.094 26.4688V27.4688H222.094V26.4688H221.094ZM219.688 23.5938L219.065 24.3764L219.074 24.3831L219.688 23.5938ZM212.375 23.5625L212.926 24.3971L212.93 24.3946L212.375 23.5625ZM222.569 35.336L230.694 38.5547L231.431 36.6953L223.306 33.4765L222.569 35.336ZM230.125 37.2777C229.156 39.8938 227.541 41.9283 225.266 43.4125L226.359 45.0875C229.001 43.3634 230.886 40.9812 232 37.9723L230.125 37.2777ZM225.271 43.4093C223.004 44.8697 220.221 45.625 216.875 45.625V47.625C220.529 47.625 223.705 46.797 226.354 45.0907L225.271 43.4093ZM216.875 45.625C212.398 45.625 208.748 44.2176 205.849 41.4348L204.464 42.8777C207.773 46.0532 211.935 47.625 216.875 47.625V45.625ZM205.851 41.4372C202.96 38.6428 201.5 35.0672 201.5 30.625H199.5C199.5 35.5578 201.144 39.6697 204.461 42.8753L205.851 41.4372ZM201.5 30.625C201.5 27.9281 202.109 25.4792 203.316 23.259L201.559 22.3035C200.183 24.8333 199.5 27.6135 199.5 30.625H201.5ZM203.313 23.2649C204.538 21.0471 206.245 19.2911 208.448 17.9852L207.427 16.2648C204.922 17.7506 202.962 19.7654 201.562 22.2976L203.313 23.2649ZM208.444 17.9871C210.655 16.6876 213.135 16.0312 215.906 16.0312V14.0312C212.803 14.0312 209.97 14.7707 207.431 16.2629L208.444 17.9871ZM215.906 16.0312C220.142 16.0312 223.365 17.2476 225.699 19.5821L227.113 18.1679C224.323 15.3774 220.546 14.0312 215.906 14.0312V16.0312ZM225.717 19.5993C228.087 21.8554 229.312 24.9385 229.312 28.9688H231.312C231.312 24.499 229.934 20.8529 227.096 18.1507L225.717 19.5993ZM229.312 28.9688C229.312 30.1738 229.194 31.4141 228.955 32.6907L230.92 33.0593C231.181 31.6692 231.312 30.3054 231.312 28.9688H229.312ZM229.938 31.875H210.094V33.875H229.938V31.875ZM209.099 32.977C209.292 34.8617 210.128 36.4278 211.586 37.6183L212.851 36.0692C211.809 35.2181 211.229 34.1383 211.089 32.773L209.099 32.977ZM211.592 37.6234C213.071 38.811 214.897 39.375 217 39.375V37.375C215.269 37.375 213.908 36.9182 212.845 36.0641L211.592 37.6234ZM217 39.375C218.715 39.375 220.201 39.0147 221.361 38.19L220.202 36.56C219.487 37.0686 218.452 37.375 217 37.375V39.375ZM221.361 38.19C222.492 37.3856 223.317 36.2183 223.872 34.7622L222.003 34.0503C221.558 35.2192 220.946 36.031 220.202 36.56L221.361 38.19ZM210.094 27.4688H221.094V25.4688H210.094V27.4688ZM222.094 26.4688C222.094 24.9726 221.482 23.723 220.301 22.8044L219.074 24.3831C219.768 24.9228 220.094 25.5899 220.094 26.4688H222.094ZM220.31 22.8111C219.161 21.8971 217.654 21.5 215.906 21.5V23.5C217.367 23.5 218.381 23.832 219.065 24.3764L220.31 22.8111ZM215.906 21.5C214.42 21.5 213.049 21.9113 211.82 22.7304L212.93 24.3946C213.826 23.7971 214.81 23.5 215.906 23.5V21.5ZM211.824 22.7279C210.595 23.5389 209.708 24.6808 209.16 26.1108L211.027 26.8267C211.438 25.7567 212.071 24.9611 212.926 24.3971L211.824 22.7279ZM234.156 38.7188L233.688 37.8351L232.87 38.2684L233.239 39.1175L234.156 38.7188ZM241.531 34.8125L242.437 34.3881L241.991 33.4373L241.063 33.9288L241.531 34.8125ZM244.312 37.9062L243.802 38.7664L243.813 38.7727L244.312 37.9062ZM251.469 38.3438L250.962 37.4818L251.469 38.3438ZM245.875 33.5312L246.028 32.543L246.026 32.5427L245.875 33.5312ZM238.25 30.4375L237.588 31.1869L237.597 31.1949L238.25 30.4375ZM255.094 16.625L254.605 17.4974L254.609 17.4996L255.094 16.625ZM259.375 21.2812L259.846 22.1633L260.677 21.7196L260.284 20.864L259.375 21.2812ZM252.062 25.1875L251.105 25.4769L251.458 26.6441L252.534 26.0695L252.062 25.1875ZM250.469 23.125L249.925 23.964L249.938 23.9724L249.951 23.9805L250.469 23.125ZM245.75 25.875L245.294 26.7648L245.303 26.7695L245.312 26.774L245.75 25.875ZM250.281 27L250.123 27.9874L250.13 27.9886L250.281 27ZM258.781 30.2188L258.111 30.9612L258.116 30.9657L258.781 30.2188ZM257.562 43.8438L258.155 44.6493L258.159 44.6461L257.562 43.8438ZM234.624 39.6024L241.999 35.6962L241.063 33.9288L233.688 37.8351L234.624 39.6024ZM240.626 35.2369C241.333 36.746 242.395 37.9316 243.802 38.7663L244.823 37.0462C243.771 36.4226 242.979 35.5457 242.437 34.3881L240.626 35.2369ZM243.813 38.7727C245.201 39.5723 246.728 39.9688 248.375 39.9688V37.9688C247.063 37.9688 245.883 37.6568 244.812 37.0398L243.813 38.7727ZM248.375 39.9688C249.804 39.9688 251.044 39.7536 251.976 39.2057L250.962 37.4818C250.477 37.7672 249.654 37.9688 248.375 37.9688V39.9688ZM251.976 39.2057C252.954 38.6301 253.531 37.7373 253.531 36.5938H251.531C251.531 36.9502 251.4 37.224 250.962 37.4818L251.976 39.2057ZM253.531 36.5938C253.531 35.2986 252.695 34.4104 251.548 33.8751L250.702 35.6874C251.43 36.0271 251.531 36.3472 251.531 36.5938H253.531ZM251.548 33.8751C250.466 33.3702 248.585 32.938 246.028 32.543L245.722 34.5195C248.29 34.9162 249.909 35.3173 250.702 35.6874L251.548 33.8751ZM246.026 32.5427C242.873 32.0607 240.529 31.0815 238.903 29.6801L237.597 31.1949C239.596 32.9185 242.336 34.0018 245.724 34.5198L246.026 32.5427ZM238.912 29.6882C237.35 28.3078 236.562 26.5255 236.562 24.25H234.562C234.562 27.0579 235.566 29.4006 237.588 31.1868L238.912 29.6882ZM236.562 24.25C236.562 21.9116 237.562 19.9907 239.686 18.431L238.502 16.819C235.917 18.7176 234.562 21.2134 234.562 24.25H236.562ZM239.686 18.431C241.852 16.8395 244.411 16.0312 247.406 16.0312V14.0312C244.026 14.0312 241.043 14.9522 238.502 16.819L239.686 18.431ZM247.406 16.0312C250.541 16.0312 252.914 16.5495 254.605 17.4973L255.583 15.7527C253.482 14.5755 250.73 14.0312 247.406 14.0312V16.0312ZM254.609 17.4996C256.334 18.456 257.615 19.8454 258.466 21.6985L260.284 20.864C259.26 18.6338 257.687 16.919 255.579 15.7504L254.609 17.4996ZM258.904 20.3992L251.591 24.3055L252.534 26.0695L259.846 22.1633L258.904 20.3992ZM253.02 24.8981C252.678 23.7687 251.992 22.8782 250.987 22.2695L249.951 23.9805C250.529 24.3301 250.905 24.8146 251.105 25.4769L253.02 24.8981ZM251.013 22.286C250.056 21.6653 248.943 21.375 247.719 21.375V23.375C248.619 23.375 249.34 23.5847 249.925 23.964L251.013 22.286ZM247.719 21.375C246.678 21.375 245.73 21.5758 244.932 22.0436L245.943 23.7689C246.354 23.5284 246.926 23.375 247.719 23.375V21.375ZM244.932 22.0436C244.124 22.5169 243.531 23.2484 243.531 24.25H245.531C245.531 24.1683 245.542 24.004 245.943 23.7689L244.932 22.0436ZM243.531 24.25C243.531 25.4285 244.29 26.2499 245.294 26.7648L246.206 24.9852C245.585 24.6668 245.531 24.4048 245.531 24.25H243.531ZM245.312 26.774C246.273 27.2421 247.919 27.6339 250.123 27.9874L250.44 26.0126C248.227 25.6578 246.852 25.2996 246.188 24.976L245.312 26.774ZM250.13 27.9886C254.021 28.5824 256.62 29.6157 258.111 30.9611L259.451 29.4764C257.525 27.7385 254.458 26.6259 250.432 26.0114L250.13 27.9886ZM258.116 30.9657C259.564 32.2542 260.344 34.1207 260.344 36.7188H262.344C262.344 33.6918 261.415 31.225 259.446 29.4718L258.116 30.9657ZM260.344 36.7188C260.344 39.2451 259.26 41.3348 256.966 43.0414L258.159 44.6461C260.907 42.6027 262.344 39.9424 262.344 36.7188H260.344ZM256.97 43.0382C254.656 44.7399 251.7 45.625 248.031 45.625V47.625C252.029 47.625 255.427 46.656 258.155 44.6493L256.97 43.0382ZM248.031 45.625C244.674 45.625 241.961 44.9889 239.839 43.7796C237.729 42.5776 236.14 40.774 235.073 38.32L233.239 39.1175C234.464 41.9343 236.333 44.0839 238.849 45.5173C241.351 46.9434 244.43 47.625 248.031 47.625V45.625Z" fill="#CACACA"/>
</svg>
