<svg width="49" height="48" viewBox="0 0 49 48" fill="none" xmlns="http://www.w3.org/2000/svg">
<g id="okf-data-security.svg" clip-path="url(#clip0_420_7060)">
<path id="Vector" fill-rule="evenodd" clip-rule="evenodd" d="M8.00768 0.150756C6.95058 0.448863 6.03854 1.29762 5.72029 2.2795C5.62643 2.5688 5.56566 3.13248 5.56566 3.71248V4.66847L4.31203 4.70776C3.23361 4.74152 2.97766 4.78105 2.48041 4.99067C1.74727 5.29986 1.1175 5.87507 0.770987 6.55209L0.5 7.08155V25.5023V43.9232L0.802813 44.4711C1.17972 45.1532 1.92053 45.7746 2.65786 46.0273C3.21611 46.2186 3.32428 46.2199 19.9416 46.2199H36.6633L37.133 46.5919C38.1548 47.4022 39.3317 47.9984 39.9121 48C40.8031 48.0025 42.1661 47.2194 43.6399 45.858C45.8289 43.836 47.5866 40.8218 48.2559 37.9412C48.5525 36.6651 48.586 34.6058 48.3173 34.1561C48.0103 33.6417 47.4616 33.3145 44.1976 31.6986L41.0251 30.1281L40.974 19.2989C40.9295 9.8843 40.9029 8.44759 40.7703 8.30116C40.5541 8.06286 30.5611 0.262499 30.2947 0.12432C29.9441 -0.0575438 8.65672 -0.0323264 8.00768 0.150756ZM28.816 4.48014C28.8502 7.07087 28.8515 7.08369 29.1232 7.61776C29.6791 8.71026 30.8287 9.52629 32.1199 9.74501C32.4692 9.80416 34.026 9.84701 35.8249 9.84701H38.9273L38.9269 19.9948L38.9262 30.1426L35.7907 31.6895C34.0662 32.5402 32.4741 33.3549 32.2528 33.4999C31.6301 33.9076 31.4617 34.3513 31.459 35.5911C31.4565 36.7071 31.6418 37.9146 31.9699 38.9223C32.0817 39.2656 32.1731 39.5713 32.1731 39.6019C32.1731 39.6325 30.6948 39.6578 28.8881 39.6578H25.6031L25.2552 39.9764C24.8829 40.3175 24.8215 40.6014 25.0295 41.0195C25.2771 41.5175 25.4054 41.5326 29.3793 41.5329L33.043 41.5333L33.3948 42.1563C33.5883 42.4993 33.9892 43.1214 34.2856 43.5388L34.8247 44.298L19.2136 44.3217C1.82495 44.3482 3.14795 44.3984 2.71701 43.6961L2.49556 43.3352L2.49576 25.4895C2.49586 8.68506 2.5063 7.62527 2.67485 7.32256C2.99997 6.73835 3.29869 6.61677 4.49716 6.58086L5.56341 6.549L5.59011 22.8476L5.6168 39.1462L5.9537 39.7731C6.32009 40.4548 6.84374 40.9307 7.60459 41.2743C8.06615 41.4827 8.13849 41.4862 12.6052 41.5127L17.1373 41.5399L17.4405 41.2623C17.8371 40.8988 17.8607 40.3554 17.4968 39.9676L17.2499 39.7045L12.899 39.6578C8.70165 39.6126 8.53779 39.6041 8.25925 39.4165C8.10051 39.3098 7.88983 39.078 7.79117 38.9012C7.62189 38.5977 7.61329 37.5789 7.63763 20.6579L7.66353 2.73622L7.87549 2.47149C7.99204 2.32591 8.24534 2.13307 8.43834 2.04298C8.76529 1.89018 9.47079 1.87903 18.7853 1.87893L28.7816 1.87875L28.816 4.48014ZM34.5613 5.89389L37.1029 7.87838H34.6852C31.9199 7.87838 31.6952 7.82915 31.1754 7.11035C30.8953 6.72287 30.8937 6.71154 30.8604 4.84677L30.827 2.97265L31.4233 3.441C31.7512 3.69859 33.1634 4.80243 34.5613 5.89389ZM11.4398 5.75975C11.0472 6.11937 10.9957 6.43491 11.2622 6.84812C11.3559 6.99354 11.5423 7.15822 11.6764 7.21421C11.8439 7.28403 14.0485 7.31593 18.719 7.31593H25.5179L25.8498 7.04425C26.1245 6.81944 26.1818 6.70472 26.1818 6.37847C26.1818 6.05223 26.1245 5.93751 25.8498 5.71269L25.5179 5.44102H18.6528H11.7877L11.4398 5.75975ZM11.757 11.2893C11.3548 11.45 11.1956 11.636 11.1331 12.0182C11.06 12.466 11.3819 12.9015 11.8796 13.028C12.4523 13.1737 21.9776 13.1535 22.4511 13.0056C22.7061 12.926 22.8643 12.7907 22.9999 12.5363C23.1706 12.2162 23.1757 12.143 23.0485 11.8333C22.7682 11.1505 22.8458 11.1592 17.1297 11.1633C13.1897 11.166 11.9958 11.194 11.757 11.2893ZM27.1363 12.6174C25.8594 12.901 24.495 13.7969 23.7751 14.8247C23.3236 15.4691 22.977 16.3829 22.8971 17.1389C22.8313 17.7615 22.826 17.7705 22.4106 17.962C22.1514 18.0814 21.9024 18.2967 21.7602 18.5245C21.5306 18.8919 21.5298 18.9077 21.5555 22.5494L21.5813 26.2054L21.827 26.521C21.9622 26.6945 22.2615 26.9151 22.4922 27.0111C22.8846 27.1743 23.2713 27.1857 28.4929 27.1876L34.0741 27.1897L34.5248 26.9788C34.7726 26.8627 35.07 26.6488 35.186 26.5032C35.3905 26.2464 35.3967 26.1261 35.3967 22.4649V18.6912L35.1149 18.353C34.9601 18.167 34.6723 17.9614 34.4754 17.8962C34.1707 17.7952 34.1175 17.7342 34.1175 17.4856C34.1175 15.8158 32.8248 13.894 31.1639 13.0945C29.9286 12.4999 28.4529 12.325 27.1363 12.6174ZM30.0611 14.7084C31.1444 15.1969 31.8703 16.1277 32.0271 17.2294L32.0972 17.7215H28.5022C25.4291 17.7215 24.9072 17.7017 24.9072 17.5855C24.9072 17.3094 25.1415 16.4475 25.2906 16.1747C26.1724 14.5623 28.2923 13.9107 30.0611 14.7084ZM11.592 17.1122C11.0048 17.4045 10.9655 18.1848 11.5165 18.6096L11.8238 18.8465H14.9818C16.741 18.8465 18.2536 18.8068 18.3969 18.7569C18.7523 18.6331 19.0136 18.2323 19.0011 17.8299C18.9933 17.5775 18.9103 17.4265 18.6726 17.2319L18.3544 16.9716L15.1069 16.9753C12.5016 16.9783 11.8064 17.0054 11.592 17.1122ZM33.4011 22.4556V25.3148H28.489H23.5768V22.4556V19.5964H28.489H33.4011V22.4556ZM28.211 21.1645C28.0863 21.1853 27.8676 21.3293 27.7249 21.4846C27.4985 21.7311 27.4656 21.8549 27.4656 22.4613C27.4656 23.095 27.4915 23.1823 27.7622 23.4597C28.0076 23.7113 28.1328 23.7638 28.489 23.7638C28.8451 23.7638 28.9704 23.7113 29.2158 23.4597C29.4869 23.1819 29.5123 23.0956 29.5123 22.4556C29.5123 21.8207 29.4862 21.73 29.2309 21.4818C28.9421 21.201 28.6106 21.0978 28.211 21.1645ZM11.8082 22.7562C11.5044 22.8579 11.1961 23.1944 11.1355 23.4904C11.0645 23.8372 11.2919 24.3184 11.5979 24.4683C11.7213 24.5289 13.0329 24.5648 15.1134 24.5648H18.4321L18.6905 24.3283C19.015 24.031 19.0946 23.6666 18.9193 23.2821C18.6596 22.7127 18.504 22.6891 15.0625 22.6974C13.357 22.7014 11.8926 22.7279 11.8082 22.7562ZM11.5779 28.6034C11.0454 28.8875 10.9819 29.6929 11.4597 30.1042L11.7221 30.3301L15.4472 30.3569C19.6113 30.3868 19.6717 30.3788 19.9537 29.7606C20.1327 29.3682 20.0596 29.0555 19.7152 28.7399L19.4554 28.5021L15.6063 28.5049C13.1826 28.5068 11.6907 28.5432 11.5779 28.6034ZM43.2345 33.372L46.4491 34.9604L46.4809 35.3994C46.5285 36.0622 46.2191 37.7981 45.8731 38.8071C45.4618 40.0055 44.3993 41.9466 43.5857 42.9856C42.7493 44.0539 41.6902 45.0521 40.7547 45.654L40.0247 46.1236L39.6203 45.9152C37.0083 44.5705 34.2768 40.5635 33.6614 37.1735C33.5678 36.6578 33.5055 35.9454 33.5229 35.5898L33.5546 34.9437L36.7272 33.3692C38.4718 32.5029 39.9267 31.7918 39.9598 31.7889C39.993 31.7858 41.4668 32.4982 43.2345 33.372ZM11.5125 34.4605C10.9779 34.8726 10.9896 35.5219 11.5387 35.9293C11.741 36.0793 12.3029 36.0913 19.2098 36.0935L26.6627 36.0954L26.9618 35.8213C27.4428 35.3807 27.3032 34.584 26.701 34.3326C26.5009 34.2489 24.5734 34.2205 19.1283 34.2205H11.8238L11.5125 34.4605ZM42.4579 36.1112C42.3453 36.168 41.5797 36.8523 40.7568 37.6317L39.2605 39.0483L38.659 38.5254C38.3281 38.2377 37.931 37.9731 37.7767 37.9377C37.0967 37.7817 36.3491 38.4486 36.5169 39.0613C36.6081 39.3947 38.5022 41.0678 38.9559 41.2156C39.5513 41.4098 39.783 41.2582 41.7859 39.3651C42.8308 38.3776 43.7418 37.4804 43.8102 37.3715C43.9642 37.1264 43.9763 36.7045 43.8364 36.4652C43.6133 36.0834 42.883 35.8958 42.4579 36.1112ZM20.7027 39.9186C20.4148 40.1545 20.3578 40.266 20.3578 40.5951C20.3578 40.9213 20.4152 41.0362 20.6898 41.2611C21.1441 41.6327 21.6421 41.6318 22.0497 41.2585C22.6657 40.6942 22.3322 39.7945 21.4677 39.6881C21.1032 39.6436 21.0018 39.6739 20.7027 39.9186Z" fill="#0088CC"/>
</g>
<defs>
<clipPath id="clip0_420_7060">
<rect width="48" height="48" fill="white" transform="translate(0.5)"/>
</clipPath>
</defs>
</svg>
