<svg width="49" height="48" viewBox="0 0 49 48" fill="none" xmlns="http://www.w3.org/2000/svg">
<g id="engineering.svg">
<path id="Vector" d="M2.06 32.7063C2.08625 33.0363 2.3255 33.31 2.6495 33.3798L5.26325 33.9438C5.3555 34.3893 5.4725 34.8288 5.61425 35.2578L3.63575 37.0503C3.3905 37.2723 3.32 37.6293 3.4625 37.9285C3.824 38.689 4.22675 39.3918 4.6595 40.0173C4.847 40.2888 5.1905 40.4058 5.50625 40.3045L8.0465 39.4863C8.35025 39.8268 8.6735 40.15 9.014 40.4538L8.19575 42.994C8.0945 43.3083 8.21075 43.6525 8.483 43.8408C9.1085 44.2735 9.81125 44.6763 10.5717 45.0378C10.8717 45.1803 11.228 45.109 11.45 44.8645L13.2425 42.886C13.6722 43.027 14.1117 43.1448 14.5573 43.237L15.1213 45.8508C15.191 46.174 15.4648 46.4133 15.794 46.4403C16.193 46.4718 16.5927 46.5003 17 46.5003C17.4073 46.5003 17.807 46.4718 18.206 46.4403C18.536 46.414 18.8097 46.1748 18.8795 45.8508L19.4435 43.237C19.889 43.1448 20.3293 43.0278 20.7582 42.886L22.5507 44.8645C22.7735 45.1098 23.1305 45.181 23.429 45.0378C24.1895 44.6763 24.8922 44.2728 25.5177 43.8408C25.79 43.6525 25.9063 43.3083 25.805 42.994L24.9867 40.4538C25.3272 40.15 25.6505 39.8268 25.9543 39.487L28.4945 40.3053C28.8088 40.4073 29.153 40.2903 29.3413 40.018C29.774 39.3925 30.1767 38.6898 30.5382 37.9293C30.6807 37.63 30.6103 37.273 30.365 37.051L28.3865 35.2585C28.5275 34.8288 28.6453 34.3893 28.7375 33.9438L31.3512 33.3798C31.6745 33.31 31.9138 33.0363 31.9408 32.707C31.9715 32.3073 32 31.9075 32 31.5003C32 31.093 31.9715 30.6933 31.94 30.2943C31.9137 29.9643 31.6745 29.6905 31.3505 29.6208L28.7367 29.0568C28.6445 28.6113 28.5275 28.171 28.3857 27.742L30.3643 25.9495C30.6095 25.7275 30.68 25.3705 30.5375 25.0713C30.176 24.3108 29.7725 23.608 29.3405 22.9825C29.1522 22.7103 28.808 22.5933 28.4938 22.6953L25.9535 23.5135C25.6497 23.173 25.3265 22.8498 24.986 22.546L25.8042 20.0058C25.9055 19.6915 25.7892 19.3473 25.517 19.159C24.8915 18.7263 24.1887 18.3235 23.4282 17.962C23.1283 17.8188 22.772 17.89 22.55 18.1353L20.7575 20.1138C20.3277 19.9728 19.8883 19.855 19.4427 19.7628L18.8787 17.149C18.809 16.8258 18.5352 16.5865 18.206 16.5595C17.4072 16.495 16.592 16.4965 15.7933 16.5595C15.4633 16.5858 15.1895 16.825 15.1198 17.149L14.5557 19.7628C14.1102 19.855 13.6708 19.972 13.2418 20.1138L11.4493 18.1353C11.2273 17.89 10.871 17.8195 10.571 17.962C9.8105 18.3235 9.10775 18.7263 8.48225 19.159C8.21 19.3473 8.09375 19.6915 8.195 20.0058L9.01325 22.546C8.67275 22.8498 8.3495 23.173 8.04575 23.5135L5.50625 22.6953C5.19125 22.5933 4.847 22.7103 4.6595 22.9825C4.22675 23.608 3.824 24.3108 3.4625 25.0713C3.32 25.3705 3.3905 25.7275 3.63575 25.9495L5.61425 27.742C5.47325 28.1718 5.3555 28.6113 5.26325 29.0568L2.6495 29.6208C2.32625 29.6905 2.087 29.9643 2.06 30.2935C2.0285 30.6933 2 31.093 2 31.5003C2 31.9075 2.0285 32.3073 2.06 32.7063ZM3.51575 30.9685L6.06725 30.4173C6.36875 30.352 6.59975 30.109 6.64925 29.8045C6.76175 29.113 6.94325 28.4343 7.1885 27.7863C7.298 27.4983 7.21925 27.172 6.9905 26.965L5.06375 25.219C5.23175 24.8973 5.40725 24.589 5.58875 24.2973L8.06075 25.0938C8.35325 25.1875 8.67575 25.0938 8.8715 24.8553C9.314 24.3138 9.8135 23.815 10.355 23.3718C10.5935 23.1768 10.6888 22.855 10.5935 22.561L9.797 20.089C10.0887 19.9068 10.3962 19.7313 10.7188 19.564L12.4648 21.4915C12.6725 21.7203 12.9995 21.799 13.2867 21.6895C13.9332 21.4443 14.612 21.2628 15.3043 21.1503C15.6088 21.1008 15.8517 20.8698 15.917 20.5683L16.4675 18.0168C16.8208 17.998 17.18 17.9973 17.5317 18.0168L18.083 20.5683C18.1483 20.8698 18.3913 21.1008 18.6957 21.1503C19.3872 21.2628 20.066 21.4443 20.714 21.6895C21.0005 21.799 21.3275 21.721 21.5353 21.4915L23.2812 19.5648C23.603 19.7328 23.9112 19.9083 24.203 20.0898L23.4065 22.5618C23.312 22.8558 23.4065 23.1768 23.645 23.3725C24.1865 23.815 24.6853 24.3145 25.1285 24.856C25.3243 25.0953 25.646 25.1905 25.9392 25.0945L28.4113 24.298C28.5935 24.5898 28.769 24.8973 28.9363 25.219L27.0088 26.965C26.78 27.172 26.7013 27.4983 26.8108 27.787C27.056 28.4335 27.2375 29.1123 27.35 29.8045C27.3995 30.109 27.6305 30.352 27.932 30.4173L30.4835 30.9678C30.4932 31.144 30.5 31.3218 30.5 31.5003C30.5 31.6788 30.494 31.8565 30.4842 32.032L27.9328 32.5833C27.6313 32.6485 27.4002 32.8915 27.3507 33.196C27.2382 33.8875 27.0568 34.5663 26.8115 35.2143C26.702 35.5023 26.7808 35.8285 27.0095 36.0355L28.9363 37.7815C28.7683 38.1033 28.5928 38.4115 28.4113 38.7033L25.9392 37.9068C25.6445 37.8108 25.3243 37.906 25.1285 38.1453C24.6868 38.6853 24.1873 39.1848 23.645 39.6288C23.4065 39.8238 23.312 40.1455 23.4065 40.4388L24.203 42.9108C23.9112 43.093 23.6038 43.2685 23.282 43.4358L21.536 41.5083C21.329 41.2795 21.0028 41.2023 20.714 41.3103C20.0675 41.5555 19.3888 41.737 18.6965 41.8495C18.392 41.899 18.149 42.13 18.0837 42.4315L17.5333 44.983C17.18 45.0018 16.8208 45.0025 16.469 44.983L15.9177 42.4315C15.8525 42.13 15.6095 41.899 15.305 41.8495C14.6135 41.737 13.9347 41.5555 13.2867 41.3103C12.9995 41.2008 12.6725 41.2788 12.4655 41.5083L10.7195 43.435C10.3977 43.267 10.0895 43.0915 9.79775 42.91L10.5942 40.438C10.6887 40.144 10.5942 39.823 10.3558 39.6273C9.81425 39.1848 9.3155 38.6853 8.87225 38.1438C8.6765 37.9045 8.354 37.81 8.0615 37.9053L5.5895 38.7018C5.40725 38.41 5.23175 38.1025 5.0645 37.78L6.992 36.034C7.22075 35.827 7.2995 35.5008 7.19 35.212C6.94475 34.5655 6.76325 33.8868 6.65075 33.1945C6.60125 32.89 6.37025 32.647 6.06875 32.5818L3.51575 32.0328C3.50675 31.8565 3.5 31.6788 3.5 31.5003C3.5 31.3218 3.506 31.144 3.51575 30.9685Z" fill="#0088CC"/>
<path id="Vector_2" d="M41.1643 12.1759C41.4463 12.0874 41.6502 11.8406 41.684 11.5466C41.729 11.1679 41.75 10.8251 41.75 10.4996C41.75 10.1741 41.729 9.83137 41.6847 9.45262C41.651 9.15862 41.447 8.91187 41.165 8.82337L39.0852 8.17012C39.023 7.99987 38.954 7.83262 38.8783 7.66912L39.8862 5.73787C40.0227 5.47612 39.9927 5.15812 39.8097 4.92562C39.3755 4.37662 38.876 3.87713 38.3255 3.44138C38.093 3.25763 37.775 3.22837 37.5133 3.36412L35.5805 4.37212C35.417 4.29712 35.2497 4.22812 35.0795 4.16587L34.4263 2.08613C34.3378 1.80413 34.091 1.60012 33.797 1.56637C33.038 1.47788 32.4613 1.47788 31.7023 1.56637C31.4083 1.60012 31.1615 1.80413 31.073 2.08613L30.4198 4.16587C30.2495 4.22812 30.0822 4.29712 29.9187 4.37287L27.9875 3.36487C27.7258 3.22912 27.4085 3.25838 27.1753 3.44138C26.6263 3.87562 26.1268 4.37512 25.691 4.92562C25.5073 5.15812 25.4773 5.47537 25.6138 5.73787L26.621 7.66912C26.546 7.83262 26.477 7.99987 26.4148 8.17012L24.335 8.82337C24.053 8.91187 23.849 9.15862 23.8152 9.45262C23.771 9.83137 23.75 10.1741 23.75 10.4996C23.75 10.8251 23.771 11.1679 23.8152 11.5466C23.849 11.8406 24.053 12.0874 24.335 12.1759L26.4148 12.8291C26.477 12.9994 26.546 13.1666 26.6217 13.3301L25.6138 15.2614C25.4773 15.5231 25.5073 15.8411 25.6903 16.0736C26.1245 16.6226 26.624 17.1221 27.1745 17.5579C27.4063 17.7416 27.725 17.7709 27.9867 17.6351L29.918 16.6279C30.0815 16.7029 30.2487 16.7719 30.419 16.8341L31.0723 18.9139C31.1608 19.1959 31.4075 19.3999 31.7015 19.4336C32.0818 19.4786 32.4245 19.4996 32.75 19.4996C33.0755 19.4996 33.4183 19.4786 33.797 19.4344C34.091 19.4006 34.3378 19.1966 34.4263 18.9146L35.0795 16.8349C35.2497 16.7726 35.417 16.7036 35.5805 16.6279L37.5117 17.6359C37.7735 17.7724 38.0915 17.7431 38.324 17.5594C38.873 17.1251 39.3725 16.6256 39.8083 16.0751C39.992 15.8426 40.022 15.5254 39.8855 15.2629L38.8775 13.3316C38.9532 13.1681 39.0222 13.0009 39.0845 12.8306L41.1643 12.1759ZM38.2693 11.5129C38.0323 11.5879 37.8477 11.7746 37.7758 12.0131C37.6737 12.3521 37.5387 12.6784 37.3752 12.9836C37.2575 13.2026 37.2552 13.4659 37.3707 13.6856L38.3225 15.5096C38.1448 15.7069 37.9565 15.8951 37.76 16.0721L35.936 15.1204C35.7155 15.0049 35.4523 15.0079 35.234 15.1249C34.9288 15.2884 34.6025 15.4234 34.2635 15.5254C34.0258 15.5966 33.8383 15.7819 33.7633 16.0189L33.1453 17.9869C32.8715 18.0034 32.6292 18.0034 32.3547 17.9869L31.7367 16.0189C31.6617 15.7819 31.475 15.5974 31.2365 15.5254C30.8967 15.4234 30.5705 15.2884 30.2667 15.1249C30.0477 15.0071 29.7845 15.0049 29.564 15.1204L27.74 16.0721C27.5427 15.8944 27.3545 15.7061 27.1775 15.5096L28.1293 13.6856C28.244 13.4659 28.2425 13.2019 28.1248 12.9836C27.9613 12.6784 27.8263 12.3521 27.7242 12.0131C27.653 11.7754 27.4677 11.5879 27.2307 11.5129L25.2627 10.8949C25.2537 10.7576 25.25 10.6264 25.25 10.4996C25.25 10.3729 25.2537 10.2416 25.2627 10.1044L27.2307 9.48637C27.4677 9.41137 27.6522 9.22462 27.7242 8.98612C27.8263 8.64637 27.9613 8.32012 28.1248 8.01637C28.2425 7.79737 28.2448 7.53412 28.1293 7.31362L27.1775 5.48962C27.3552 5.29237 27.5435 5.10412 27.74 4.92712L29.564 5.87887C29.7837 5.99362 30.0477 5.99137 30.266 5.87437C30.5712 5.71087 30.8975 5.57587 31.2365 5.47387C31.4742 5.40262 31.6617 5.21737 31.7367 4.98037L32.3547 3.01237C32.6285 2.99588 32.8708 2.99588 33.1453 3.01237L33.7633 4.98037C33.8383 5.21737 34.025 5.40187 34.2635 5.47387C34.6033 5.57587 34.9295 5.71087 35.2333 5.87437C35.4523 5.99212 35.7155 5.99437 35.936 5.87887L37.76 4.92712C37.9573 5.10487 38.1455 5.29312 38.3225 5.48962L37.3707 7.31362C37.256 7.53337 37.2575 7.79737 37.3752 8.01562C37.5387 8.32087 37.6737 8.64712 37.7758 8.98612C37.847 9.22388 38.0323 9.41137 38.2693 9.48637L40.2373 10.1044C40.2463 10.2416 40.25 10.3729 40.25 10.4996C40.25 10.6264 40.2463 10.7576 40.2373 10.8949L38.2693 11.5129Z" fill="#0088CC"/>
<path id="Vector_3" d="M46.4465 26.2234L45.158 25.7659C45.0845 25.5567 45.0005 25.3519 44.9053 25.1532L45.491 23.9194C45.6132 23.6629 45.5795 23.3599 45.404 23.1364C45.029 22.6572 44.5955 22.2229 44.1147 21.8464C43.8905 21.6709 43.586 21.6379 43.331 21.7594L42.0965 22.3452C41.8985 22.2507 41.6938 22.1659 41.4845 22.0932L41.0262 20.8047C40.931 20.5369 40.6918 20.3457 40.4098 20.3112C39.7415 20.2309 39.2577 20.2309 38.5895 20.3112C38.3075 20.3449 38.0683 20.5362 37.973 20.8047L37.5155 22.0932C37.3063 22.1667 37.1015 22.2507 36.9027 22.3459L35.669 21.7602C35.414 21.6387 35.1102 21.6724 34.886 21.8472C34.4067 22.2222 33.9725 22.6557 33.596 23.1364C33.4212 23.3599 33.3875 23.6637 33.509 23.9202L34.0947 25.1547C34.0002 25.3527 33.9155 25.5574 33.8428 25.7667L32.5542 26.2249C32.2865 26.3202 32.0953 26.5594 32.0608 26.8414C32.0195 27.1737 32 27.4714 32 27.7504C32 28.0294 32.0195 28.3264 32.06 28.6602C32.0938 28.9422 32.285 29.1814 32.5535 29.2767L33.842 29.7342C33.9155 29.9434 33.9995 30.1482 34.0947 30.3469L33.509 31.5807C33.3868 31.8372 33.4205 32.1402 33.596 32.3637C33.971 32.8429 34.4045 33.2772 34.8853 33.6537C35.1088 33.8284 35.4132 33.8622 35.669 33.7407L36.9035 33.1549C37.1015 33.2494 37.3063 33.3342 37.5155 33.4069L37.9738 34.6954C38.069 34.9632 38.3082 35.1544 38.5902 35.1889C38.924 35.2309 39.221 35.2504 39.5 35.2504C39.779 35.2504 40.076 35.2309 40.4098 35.1904C40.6918 35.1567 40.931 34.9654 41.0262 34.6969L41.4838 33.4084C41.693 33.3349 41.8978 33.2509 42.0965 33.1557L43.3302 33.7414C43.586 33.8637 43.8905 33.8307 44.1133 33.6544C44.5925 33.2794 45.0267 32.8459 45.4032 32.3652C45.578 32.1417 45.6117 31.8379 45.4902 31.5814L44.9045 30.3469C44.999 30.1489 45.0837 29.9442 45.1565 29.7349L46.445 29.2767C46.7127 29.1814 46.904 28.9422 46.9385 28.6602C46.9805 28.3264 47 28.0294 47 27.7504C47 27.4714 46.9805 27.1744 46.94 26.8407C46.9062 26.5579 46.715 26.3194 46.4465 26.2234ZM45.4925 28.0242L44.3037 28.4464C44.0735 28.5282 43.8973 28.7172 43.832 28.9527C43.7338 29.3089 43.5935 29.6487 43.4158 29.9629C43.2958 30.1752 43.2867 30.4332 43.391 30.6537L43.9295 31.7884C43.805 31.9249 43.6745 32.0554 43.5387 32.1792L42.404 31.6407C42.185 31.5364 41.9263 31.5454 41.7133 31.6654C41.3983 31.8439 41.0585 31.9834 40.7037 32.0817C40.4682 32.1469 40.2793 32.3232 40.1968 32.5534L39.7745 33.7422C39.593 33.7519 39.4085 33.7519 39.227 33.7422L38.8048 32.5534C38.723 32.3232 38.534 32.1469 38.2985 32.0817C37.9422 31.9834 37.6025 31.8432 37.2882 31.6654C37.076 31.5462 36.8188 31.5372 36.5975 31.6407L35.4628 32.1792C35.3263 32.0547 35.1958 31.9242 35.072 31.7884L35.6105 30.6537C35.7155 30.4332 35.7057 30.1752 35.5857 29.9629C35.4072 29.6479 35.2678 29.3082 35.1695 28.9534C35.1043 28.7179 34.928 28.5289 34.6978 28.4464L33.509 28.0242C33.503 27.9334 33.5 27.8427 33.5 27.7504C33.5 27.6582 33.503 27.5667 33.5075 27.4767L34.6963 27.0537C34.9265 26.9719 35.1027 26.7829 35.1672 26.5474C35.2662 26.1904 35.4065 25.8514 35.5842 25.5372C35.7042 25.3249 35.7133 25.0669 35.609 24.8464L35.0705 23.7117C35.195 23.5752 35.3255 23.4447 35.4613 23.3209L36.596 23.8594C36.8165 23.9644 37.0745 23.9554 37.2867 23.8347C37.6017 23.6562 37.9415 23.5167 38.2963 23.4184C38.5318 23.3532 38.7207 23.1769 38.8032 22.9467L39.2255 21.7579C39.407 21.7482 39.5915 21.7482 39.773 21.7579L40.1952 22.9467C40.277 23.1769 40.466 23.3532 40.7015 23.4184C41.0578 23.5167 41.3975 23.6569 41.7118 23.8347C41.9248 23.9554 42.182 23.9644 42.4025 23.8594L43.5372 23.3209C43.6737 23.4454 43.8042 23.5759 43.928 23.7117L43.3895 24.8464C43.2845 25.0669 43.2943 25.3249 43.4143 25.5372C43.5928 25.8522 43.7322 26.1919 43.8305 26.5467C43.8957 26.7822 44.072 26.9712 44.3022 27.0537L45.491 27.4759C45.497 27.5674 45.5 27.6582 45.5 27.7504C45.5 27.8427 45.497 27.9334 45.4925 28.0242Z" fill="#0088CC"/>
<path id="Vector_4" d="M17 39.75C21.5487 39.75 25.25 36.0487 25.25 31.5C25.25 26.9513 21.5487 23.25 17 23.25C12.4513 23.25 8.75 26.9513 8.75 31.5C8.75 36.0487 12.4513 39.75 17 39.75ZM17 24.75C20.7215 24.75 23.75 27.7785 23.75 31.5C23.75 35.2215 20.7215 38.25 17 38.25C13.2785 38.25 10.25 35.2215 10.25 31.5C10.25 27.7785 13.2785 24.75 17 24.75Z" fill="#0088CC"/>
<path id="Vector_5" d="M2.01648 19.0192L3.16848 19.98C6.60273 15.8617 11.6435 13.5 17 13.5C17.3817 13.5 17.7627 13.5217 18.1437 13.5457L17.2197 14.4697L18.2802 15.5302L20.5302 13.2802C20.8235 12.987 20.8235 12.513 20.5302 12.2197L18.2802 9.96973L17.2197 11.0302L18.239 12.0495C17.8265 12.0232 17.4132 12 17 12C11.198 12 5.73648 14.5582 2.01648 19.0192Z" fill="#0088CC"/>
<path id="Vector_6" d="M32.75 6.75C30.6823 6.75 29 8.43225 29 10.5C29 12.5677 30.6823 14.25 32.75 14.25C34.8177 14.25 36.5 12.5677 36.5 10.5C36.5 8.43225 34.8177 6.75 32.75 6.75ZM32.75 12.75C31.5095 12.75 30.5 11.7405 30.5 10.5C30.5 9.2595 31.5095 8.25 32.75 8.25C33.9905 8.25 35 9.2595 35 10.5C35 11.7405 33.9905 12.75 32.75 12.75Z" fill="#0088CC"/>
<path id="Vector_7" d="M39.5 24.75C37.8455 24.75 36.5 26.0955 36.5 27.75C36.5 29.4045 37.8455 30.75 39.5 30.75C41.1545 30.75 42.5 29.4045 42.5 27.75C42.5 26.0955 41.1545 24.75 39.5 24.75ZM39.5 29.25C38.6727 29.25 38 28.5773 38 27.75C38 26.9227 38.6727 26.25 39.5 26.25C40.3273 26.25 41 26.9227 41 27.75C41 28.5773 40.3273 29.25 39.5 29.25Z" fill="#0088CC"/>
<path id="Vector_8" d="M46.3974 3.76507L42.6474 3.01507C42.2394 2.93257 41.8456 3.19732 41.7646 3.60307L41.0146 7.35307L42.4854 7.64782L42.8896 5.62882C43.6164 7.14082 44.0004 8.80732 44.0004 10.5001C44.0004 13.0861 43.1469 15.5176 41.5329 17.5313L42.7036 18.4696C44.5074 16.2188 45.5004 13.3891 45.5004 10.5001C45.5004 8.53582 45.0466 6.59932 44.1834 4.85182L46.1034 5.23582L46.3974 3.76507Z" fill="#0088CC"/>
</g>
</svg>
