<svg width="109" height="46" viewBox="0 0 109 46" fill="none" xmlns="http://www.w3.org/2000/svg">
<g id="partner-google.svg">
<path id="Vector" d="M28.8905 18.2096H17.1959V21.6797H25.4903C25.0789 26.5362 21.0326 28.6217 17.2085 28.6217C15.9979 28.6268 14.7985 28.3906 13.6801 27.9271C12.5617 27.4638 11.5472 26.7818 10.6949 25.9223C9.84262 25.0628 9.17047 24.0412 8.71788 22.9191C8.2653 21.7971 8.03946 20.5953 8.05559 19.3845C8.03408 18.1684 8.25545 16.9603 8.70713 15.8311C9.15838 14.7018 9.83064 13.674 10.6845 12.808C11.5383 11.9421 12.5565 11.2553 13.6792 10.7882C14.8022 10.3213 16.0067 10.0829 17.2228 10.0864C19.552 10.082 21.7925 10.9809 23.4729 12.5949L25.9016 10.0784C24.7337 8.94935 23.3546 8.06165 21.8432 7.46607C20.3319 6.87048 18.718 6.5787 17.0938 6.6074C13.7182 6.63646 10.4872 7.98151 8.08827 10.3564C5.68929 12.7313 4.31167 15.9485 4.24854 19.3236C4.28528 22.7444 5.67797 26.011 8.12102 28.4066C10.5634 30.8022 13.8565 32.1308 17.2775 32.1007C24.1021 32.1007 29.0984 27.4252 29.0984 20.5119C29.1137 19.7393 29.0428 18.9674 28.8869 18.2105H28.8896L28.8905 18.2096Z" fill="#4885ED"/>
<path id="Vector_2" d="M38.4694 15.6972C36.8509 15.7026 35.2709 16.1874 33.9275 17.0899C32.5841 17.9924 31.5382 19.2721 30.9216 20.7688C30.3051 22.2655 30.1455 23.91 30.4619 25.4972C30.7783 27.0843 31.5588 28.5415 32.7033 29.6851C33.8477 30.8286 35.305 31.6092 36.8921 31.9256C38.4793 32.242 40.1238 32.0824 41.6205 31.4658C43.1167 30.8493 44.3969 29.8035 45.2993 28.4602C46.2018 27.1169 46.6861 25.5363 46.6912 23.918C46.7082 22.8336 46.5066 21.7573 46.0997 20.7518C45.6928 19.7462 45.087 18.8339 44.3207 18.0668C43.5545 17.2996 42.6413 16.6956 41.6357 16.2878C40.6302 15.88 39.5538 15.6793 38.4694 15.6963V15.6972ZM38.516 18.9155C39.1488 18.9298 39.7716 19.0714 40.3479 19.3322C40.9241 19.593 41.4421 19.9667 41.8714 20.4318C42.3007 20.897 42.6314 21.4436 42.8447 22.0387C43.058 22.6338 43.1485 23.2665 43.1118 23.8983C43.1561 24.5358 43.0686 25.1755 42.8547 25.7776C42.6408 26.3797 42.3052 26.9313 41.8687 27.398C41.4323 27.8646 40.9045 28.2364 40.3181 28.49C39.7317 28.7436 39.0994 28.8738 38.4605 28.8722C37.8216 28.8706 37.1898 28.7373 36.6047 28.4808C36.0195 28.2242 35.4935 27.8498 35.0594 27.381C34.6255 26.912 34.2929 26.3587 34.0822 25.7555C33.8716 25.1523 33.7875 24.5122 33.8352 23.875C33.8045 23.2385 33.9026 22.6023 34.1238 22.0047C34.3451 21.4069 34.6848 20.8602 35.1221 20.3969C35.5595 19.9335 36.0873 19.5643 36.6717 19.3098C37.256 19.0553 37.886 18.9217 38.5232 18.9173H38.516V18.9155Z" fill="#DB3236"/>
<path id="Vector_3" d="M56.3835 15.6972C54.765 15.7026 53.185 16.1874 51.8416 17.0899C50.4982 17.9924 49.4523 19.2721 48.8357 20.7688C48.2191 22.2655 48.0596 23.91 48.376 25.4972C48.6923 27.0843 49.4729 28.5415 50.6174 29.6851C51.7618 30.8286 53.219 31.6092 54.8062 31.9256C56.3934 32.242 58.0379 32.0824 59.5345 31.4658C61.0308 30.8493 62.3109 29.8035 63.2134 28.4602C64.1158 27.1169 64.6002 25.5363 64.6053 23.918C64.6223 22.8336 64.4206 21.7573 64.0138 20.7518C63.6069 19.7462 63.001 18.8339 62.2348 18.0668C61.4685 17.2996 60.5553 16.6956 59.5498 16.2878C58.5442 15.88 57.4679 15.6793 56.3835 15.6963V15.6972ZM56.4301 18.9155C57.0628 18.9298 57.6857 19.0714 58.2619 19.3322C58.8382 19.593 59.3562 19.9667 59.7855 20.4318C60.2148 20.897 60.5455 21.4436 60.7579 22.0387C60.9703 22.6338 61.0617 23.2665 61.0258 23.8983C61.0701 24.5358 60.9826 25.1755 60.7688 25.7776C60.5549 26.3797 60.2193 26.9313 59.7828 27.398C59.3464 27.8646 58.8186 28.2364 58.2322 28.49C57.6458 28.7436 57.0134 28.8738 56.3745 28.8722C55.7356 28.8706 55.1039 28.7373 54.5187 28.4808C53.9336 28.2242 53.4075 27.8498 52.9735 27.381C52.5396 26.912 52.2069 26.3587 51.9963 25.7555C51.7857 25.1523 51.7016 24.5122 51.7493 23.875C51.7179 23.2387 51.8165 22.6024 52.0378 22.0047C52.2592 21.4069 52.5989 20.8602 53.0362 20.3969C53.4735 19.9335 54.0014 19.5643 54.5857 19.3098C55.1701 19.0553 55.8001 18.9217 56.4373 18.9173H56.4301V18.9155Z" fill="#F4C20D"/>
<path id="Vector_4" d="M73.9555 15.7061C69.5507 15.7061 66.0896 19.5633 66.0896 23.8937C66.0568 26.0084 66.854 28.0517 68.3103 29.5854C69.7665 31.119 71.7658 32.0209 73.8794 32.0976C74.731 32.1449 75.5816 31.9891 76.3611 31.6428C77.1405 31.2966 77.8264 30.7699 78.3622 30.1062V31.722C78.3622 34.5496 76.6432 36.2425 74.055 36.2425C73.1436 36.2317 72.2563 35.9476 71.5071 35.4278C70.7579 34.908 70.1816 34.1758 69.8527 33.3253L66.7026 34.632C67.312 36.0798 68.3399 37.3125 69.6544 38.1724C70.969 39.0322 72.5104 39.4799 74.081 39.458C78.4715 39.458 81.7982 36.6995 81.7982 30.9146V16.2026H78.3765V17.5899C77.8175 16.9787 77.1339 16.4947 76.3719 16.1703C75.6098 15.8459 74.7871 15.6888 73.9591 15.7096L73.9555 15.7061ZM74.2728 18.9189C76.4326 18.9189 78.648 20.7633 78.648 23.9117C78.648 27.1147 76.4344 28.8757 74.2235 28.8757C73.598 28.8605 72.9832 28.7189 72.4132 28.4608C71.8432 28.2027 71.3324 27.8316 70.9094 27.371C70.4864 26.9103 70.161 26.369 69.9513 25.7802C69.7416 25.1914 69.6538 24.5659 69.6914 23.9412C69.6914 20.7956 71.957 18.918 74.271 18.918L74.2728 18.9189Z" fill="#4885ED"/>
<path id="Vector_5" d="M97.0926 15.6855C92.9378 15.6855 89.4498 18.9916 89.4498 23.8679C89.4089 24.9426 89.5873 26.0144 89.9741 27.018C90.3604 28.0217 90.9474 28.9359 91.6993 29.7057C92.451 30.475 93.3515 31.0832 94.3459 31.4932C95.3404 31.9032 96.4079 32.1065 97.4834 32.0905C98.833 32.095 100.165 31.7705 101.361 31.1441C102.558 30.5177 103.583 29.6089 104.348 28.4967L101.515 26.612C101.104 27.3084 100.516 27.8837 99.8117 28.2798C99.1068 28.676 98.3098 28.8788 97.5013 28.8678C96.6597 28.9027 95.8272 28.6849 95.1102 28.2413C94.3933 27.7977 93.8269 27.1515 93.4818 26.3826L104.467 21.8236L103.907 20.4883C103.382 19.0974 102.453 17.8956 101.238 17.0397C100.023 16.1834 98.5787 15.7116 97.0926 15.6855ZM97.2351 18.8366C97.8544 18.8106 98.4683 18.9612 99.0051 19.2712C99.5419 19.5813 99.9802 20.0375 100.267 20.5869L92.9298 23.6537C92.893 23.055 92.9764 22.4545 93.1726 21.8881C93.3695 21.3213 93.6765 20.7989 94.076 20.3512C94.4757 19.9031 94.9597 19.5392 95.5001 19.2793C96.0405 19.0194 96.6275 18.8688 97.227 18.8366H97.2351Z" fill="#DB3236"/>
<path id="Vector_6" d="M84.2058 31.6039H87.8148V7.45312H84.2058V31.6039Z" fill="#3CBA54"/>
</g>
</svg>
