<svg width="49" height="48" viewBox="0 0 49 48" fill="none" xmlns="http://www.w3.org/2000/svg">
<g id="SVG" clip-path="url(#clip0_420_7037)">
<g id="Group">
<g id="Group_2">
<path id="Vector" d="M48.4984 9.15987C48.4505 5.08596 46.3657 2.84224 42.6278 2.84224C41.1811 2.84224 39.787 3.17899 38.8757 3.45996C38.9664 1.79477 38.9678 0.766898 38.9678 0.715805L38.9679 0.00292969H10.0328V0.715711C10.0328 0.740086 10.0353 1.78418 10.127 3.4608C9.21579 3.17965 7.82042 2.84224 6.37226 2.84224C2.63445 2.84224 0.549541 5.08587 0.501729 9.15987C0.454666 13.1677 1.36873 16.7352 3.21832 19.7636C5.03426 22.7369 7.35532 24.5286 8.98273 25.5078C11.5893 27.0764 14.1943 27.4057 15.9208 27.4057C16.3464 27.4057 16.7565 27.3856 17.14 27.3461C17.1654 27.3434 17.1889 27.3404 17.2138 27.3377C18.0485 28.2367 18.9484 28.9568 19.91 29.4919C20.6189 29.8863 21.1119 30.5741 21.2809 31.3647C20.3251 31.6622 19.6292 32.5552 19.6292 33.6075C19.6292 34.6835 20.3569 35.5922 21.3457 35.8688V38.8603H17.4887V41.9823H13.6824V47.998H35.3181V41.9823H31.5119V38.8603H27.6548V35.8688C28.6437 35.5921 29.3715 34.6835 29.3715 33.6075C29.3715 32.5551 28.6756 31.6622 27.7198 31.3647C27.8887 30.5741 28.3817 29.8864 29.0906 29.4919C30.0499 28.9582 30.9559 28.2341 31.7886 27.3381C32.0837 27.3708 32.5261 27.4056 33.0792 27.4056C33.0794 27.4056 33.0793 27.4056 33.0796 27.4056C34.8059 27.4056 37.4108 27.0761 40.0172 25.5077C41.6445 24.5284 43.9656 22.7368 45.7816 19.7636C47.6314 16.7352 48.5454 13.1676 48.4984 9.15987ZM37.5305 1.42849C37.5242 1.68921 37.514 2.01696 37.4985 2.40059H11.5051C11.4889 2.01705 11.4782 1.68884 11.4712 1.42849H37.5305ZM38.5001 7.97346C39.4659 7.65199 40.7177 7.3278 41.839 7.3278C42.7792 7.3278 43.4562 7.55749 43.8512 8.01049C44.3051 8.53118 44.4514 9.40587 44.2859 10.6106C43.5965 15.6286 41.4207 19.5457 38.1589 21.64C37.0228 22.3695 35.7992 22.6709 34.7737 22.778C36.9428 18.2188 37.9926 12.4986 38.5001 7.97346ZM11.2339 12.9387C11.9351 16.6995 12.9032 19.929 14.1114 22.5374C14.1488 22.6184 14.1869 22.6982 14.2248 22.778C13.1997 22.6706 11.9768 22.3693 10.8411 21.6402C7.57948 19.5458 5.40354 15.6288 4.7142 10.6107C4.54873 9.40596 4.69498 8.53118 5.14901 8.01068C5.54398 7.55768 6.22104 7.32809 7.16117 7.32809C8.28345 7.32809 9.53632 7.65274 10.5025 7.9744C10.6751 9.51771 10.9111 11.207 11.2339 12.9387ZM15.9208 25.9801C14.375 25.9801 12.0439 25.6862 9.71792 24.2864C7.33901 22.8549 1.8176 18.5167 1.92729 9.17665C1.9661 5.87355 3.42007 4.2679 6.37226 4.2679C7.9511 4.2679 9.51045 4.74387 10.2232 4.99493C10.2588 5.47315 10.2986 5.95277 10.3427 6.43043C9.37376 6.1458 8.23217 5.90224 7.16117 5.90224C5.79073 5.90224 4.75226 6.29627 4.07445 7.07346C3.33767 7.91843 3.0777 9.17374 3.30176 10.8045C3.68557 13.5984 4.4877 16.0677 5.68592 18.1439C6.82976 20.126 8.3051 21.7059 10.0708 22.8395C11.7954 23.947 13.6608 24.2262 14.9914 24.253C14.9959 24.2608 15.0004 24.2683 15.0049 24.2761C15.0779 24.4039 15.1516 24.5295 15.226 24.6536C15.2492 24.6923 15.2725 24.7307 15.2959 24.7691C15.3668 24.8857 15.4384 25.0012 15.5106 25.1143C15.5378 25.1569 15.5654 25.1984 15.5928 25.2406C15.642 25.3163 15.6915 25.3913 15.7414 25.4654C15.7895 25.5371 15.8379 25.6081 15.8866 25.6783C15.9343 25.7471 15.9821 25.8154 16.0303 25.8828C16.0529 25.9145 16.0751 25.9474 16.0977 25.9787C16.0403 25.9796 15.9814 25.9801 15.9208 25.9801ZM33.8927 43.4081V46.5724H15.1082V43.4081H17.4888H31.512H33.8927ZM27.655 40.2861H30.0863V41.9824H18.9144V40.2861H21.3458H27.655ZM22.7714 38.8604V35.9559H26.2294V38.8604H22.7714ZM27.946 33.6075C27.946 34.1163 27.532 34.5302 27.0233 34.5302H21.9775C21.4687 34.5302 21.0548 34.1163 21.0548 33.6075C21.0548 33.0987 21.4687 32.6848 21.9775 32.6848H27.0233C27.5321 32.6848 27.946 33.0987 27.946 33.6075ZM31.5117 25.4584C31.5038 25.4686 31.4959 25.4788 31.4881 25.4891C31.4179 25.5798 31.3473 25.6683 31.2762 25.7556C31.2588 25.7769 31.2416 25.7985 31.2241 25.8197C31.146 25.9146 31.0672 26.0074 30.9881 26.098C30.9843 26.1023 30.9807 26.1068 30.9769 26.1111C30.1819 27.0179 29.3142 27.7361 28.3976 28.2461C27.2678 28.8746 26.4996 29.9909 26.2883 31.2592H22.7125C22.5011 29.9908 21.7329 28.8746 20.6031 28.2461C19.7185 27.7541 18.9196 27.0962 18.1978 26.3101L18.0234 26.1112C17.3147 25.3029 16.6466 24.3236 16.0379 23.2007L15.8514 22.8566C12.7861 16.9337 11.8589 8.3733 11.5793 3.82615H37.4267C37.4148 4.02396 37.4017 4.22824 37.3873 4.4404C37.3866 4.45024 37.3859 4.46037 37.3852 4.47021C37.3695 4.70009 37.3526 4.93062 37.3347 5.16134C37.3342 5.16809 37.3337 5.17484 37.3332 5.18168C37.2762 5.91293 37.2087 6.6469 37.1317 7.37215L37.0851 7.81071C36.5672 12.454 35.4732 18.3693 33.1663 22.8251L32.9626 23.2006C32.5093 24.0365 32.0231 24.7927 31.5117 25.4584ZM39.2823 24.2864C36.956 25.6863 34.6254 25.9801 33.0798 25.9801C33.0797 25.9801 33.0795 25.9801 33.0794 25.9801C33.0187 25.9801 32.9598 25.9796 32.9023 25.9787C32.9032 25.9774 32.9042 25.976 32.9051 25.9747C32.9976 25.847 33.0888 25.7174 33.1785 25.5861C33.1894 25.5701 33.2002 25.5536 33.2112 25.5376C33.287 25.4259 33.3618 25.3126 33.4356 25.1982C33.4547 25.1689 33.4737 25.1395 33.4925 25.1099C33.5743 24.9816 33.6552 24.8524 33.7345 24.721C33.747 24.7004 33.7591 24.6793 33.7714 24.6586C33.8364 24.5501 33.9006 24.4405 33.964 24.3298C33.9788 24.304 33.9941 24.2792 34.009 24.2531C35.3396 24.2264 37.2049 23.9471 38.9296 22.8397C40.6953 21.7059 42.1706 20.126 43.3144 18.1441C44.5126 16.0679 45.3147 13.5986 45.6986 10.8047C45.9225 9.17384 45.6626 7.91852 44.9259 7.07365C44.2482 6.29637 43.2096 5.90234 41.8392 5.90234C40.7683 5.90234 39.6265 6.14571 38.6577 6.43043C38.7026 5.9434 38.7411 5.47624 38.7741 5.03224C38.7751 5.01987 38.7761 5.0074 38.777 4.99512C39.49 4.74396 41.0493 4.26809 42.628 4.26809C45.5802 4.26809 47.0342 5.87374 47.0731 9.17665C47.1824 18.5167 41.6612 22.8548 39.2823 24.2864Z" fill="#FE7F2D"/>
</g>
<g id="Group_3">
<path id="Vector_2" d="M18.5334 23.085L17.3428 23.8694C17.7493 24.4865 18.1861 25.0472 18.6413 25.5359L19.6846 24.5641C19.2836 24.1336 18.8963 23.6359 18.5334 23.085Z" fill="#FE7F2D"/>
</g>
<g id="Group_4">
<path id="Vector_3" d="M15.4729 15.1797L14.083 15.4968C14.7666 18.4935 15.6793 21.0092 16.7955 22.9739L18.035 22.2696C16.9877 20.426 16.1256 18.0407 15.4729 15.1797Z" fill="#FE7F2D"/>
</g>
<g id="Group_5">
<path id="Vector_4" d="M42.0934 31.267L42.0924 29.8414L40.8889 29.8421L40.888 28.6387L39.4624 28.6396L39.4632 29.8432L38.2598 29.844L38.2607 31.2697L39.4642 31.2688L39.465 32.4722L40.8907 32.4713L40.8898 31.2678L42.0934 31.267Z" fill="#FE7F2D"/>
</g>
<g id="Group_6">
<path id="Vector_5" d="M11.074 38.6699L11.0725 37.2443L10.0627 37.2453L10.0616 36.2354L8.63598 36.2369L8.63702 37.2467L7.62695 37.2478L7.62855 38.6734L8.63842 38.6724L8.63945 39.6824L10.0651 39.6809L10.0641 38.671L11.074 38.6699Z" fill="#FE7F2D"/>
</g>
<g id="Group_7">
<path id="Vector_6" d="M6.42407 27.0156H5.07922V28.4413H6.42407V27.0156Z" fill="#FE7F2D"/>
</g>
<g id="Group_8">
<path id="Vector_7" d="M15.0673 31.2334H13.7224V32.6591H15.0673V31.2334Z" fill="#FE7F2D"/>
</g>
<g id="Group_9">
<path id="Vector_8" d="M36.7433 35.5234H35.3984V36.9491H36.7433V35.5234Z" fill="#FE7F2D"/>
</g>
</g>
</g>
<defs>
<clipPath id="clip0_420_7037">
<rect width="48" height="48" fill="white" transform="translate(0.5)"/>
</clipPath>
</defs>
</svg>
