<svg width="186" height="69" viewBox="0 0 186 69" fill="none" xmlns="http://www.w3.org/2000/svg">
<path d="M24.6259 68.4705L12.3144 47.2048L36.9373 47.2048L24.6259 68.4705Z" fill="#FE7F2D"/>
<path d="M24.7402 26.0798L0.117188 26.0798L12.4287 47.3455L24.7402 26.0798Z" fill="#0088CC"/>
<path d="M21.454 42.3907L46.077 42.3907L33.7655 21.125L21.454 42.3907Z" fill="#0088CC"/>
<path d="M21.5683 0L33.8798 21.2657H9.25681L21.5683 0Z" fill="#FE7F2D"/>
<path d="M58.3993 47V43.22L73.9873 24.428L74.7073 26.552H58.6873V21.8H79.8913V25.58L64.3393 44.372L63.6193 42.248H80.4313V47H58.3993ZM84.1716 47V21.8H96.4836C99.6516 21.8 102.028 22.4 103.612 23.6C105.22 24.8 106.024 26.384 106.024 28.352C106.024 29.672 105.7 30.824 105.052 31.808C104.404 32.768 103.516 33.512 102.388 34.04C101.26 34.568 99.9636 34.832 98.4996 34.832L99.1836 33.356C100.768 33.356 102.172 33.62 103.396 34.148C104.62 34.652 105.568 35.408 106.24 36.416C106.936 37.424 107.284 38.66 107.284 40.124C107.284 42.284 106.432 43.976 104.728 45.2C103.024 46.4 100.516 47 97.2036 47H84.1716ZM89.9676 42.608H96.7716C98.2836 42.608 99.4236 42.368 100.192 41.888C100.984 41.384 101.38 40.592 101.38 39.512C101.38 38.456 100.984 37.676 100.192 37.172C99.4236 36.644 98.2836 36.38 96.7716 36.38H89.5356V32.132H95.7636C97.1796 32.132 98.2596 31.892 99.0036 31.412C99.7716 30.908 100.156 30.152 100.156 29.144C100.156 28.16 99.7716 27.428 99.0036 26.948C98.2596 26.444 97.1796 26.192 95.7636 26.192H89.9676V42.608ZM117.063 31.952H129.195V36.488H117.063V31.952ZM117.495 42.32H131.211V47H111.699V21.8H130.743V26.48H117.495V42.32ZM141.071 41.24L140.747 34.508L152.807 21.8H159.287L148.415 33.5L145.175 36.956L141.071 41.24ZM135.851 47V21.8H141.647V47H135.851ZM153.095 47L144.131 36.02L147.947 31.88L159.899 47H153.095ZM160.88 47V43.22L176.468 24.428L177.188 26.552H161.168V21.8H182.372V25.58L166.82 44.372L166.1 42.248H182.912V47H160.88Z" fill="#0088CC"/>
</svg>
