<svg width="181" height="80" viewBox="0 0 181 80" fill="none" xmlns="http://www.w3.org/2000/svg">
<g id="marketwatch-logo.svg" clip-path="url(#clip0_605_3608)">
<g id="marketwatch-logo">
<g id="marketwatch-ar21">
<path id="Path 29617" d="M43.6452 37.8071L43.3542 39.3071H43.3032C42.9142 38.4341 41.8032 37.2721 39.4252 37.2721C37.3115 37.3568 35.2923 38.1707 33.7107 39.5754C32.1291 40.9802 31.0827 42.8892 30.7492 44.9781C29.9742 49.0981 32.0092 52.7331 36.5652 52.7331C37.4416 52.7651 38.3135 52.5936 39.1124 52.232C39.9114 51.8705 40.6158 51.3287 41.1702 50.6491H41.2212L40.9302 52.2001H45.1932L47.8662 37.7581H43.6452V37.8071ZM42.2882 44.9801C42.1032 46.0013 41.5744 46.9285 40.7896 47.6076C40.0048 48.2867 39.0113 48.6768 37.9742 48.7131C37.5231 48.7252 37.0753 48.6327 36.666 48.4427C36.2566 48.2527 35.8969 47.9704 35.615 47.6181C35.3331 47.2657 35.1366 46.8528 35.041 46.4118C34.9455 45.9708 34.9534 45.5136 35.0642 45.0761C35.2368 44.0585 35.7551 43.1316 36.5317 42.4518C37.3083 41.7719 38.2957 41.3807 39.3272 41.3441C39.7835 41.32 40.239 41.404 40.6567 41.5893C41.0744 41.7747 41.4423 42.0561 41.7306 42.4106C42.0188 42.7652 42.2192 43.1828 42.3154 43.6295C42.4117 44.0763 42.4009 44.5394 42.2842 44.9811L42.2882 44.9801ZM50.3342 37.8071H54.3572L54.0662 39.3131H54.1172C54.5538 38.6543 55.1542 38.1203 55.8595 37.7635C56.5648 37.4068 57.3507 37.2395 58.1402 37.2781L57.3662 41.6391C55.3312 41.6901 53.8132 42.0751 53.4882 44.3051L51.9882 52.2571H47.5882L50.3342 37.8071ZM61.0472 32.1361H65.4122L63.3772 43.0411H63.4772L68.4662 37.8071H73.5552L66.9152 44.1561L70.7442 52.2561H65.8442L63.0322 45.2761H62.9982L61.6892 52.2561H57.3762L61.0472 32.1361ZM80.5032 37.2741C76.1382 37.2741 72.2132 41.0551 71.4862 45.0741C71.2637 46.0047 71.259 46.9741 71.4725 47.9067C71.686 48.8394 72.1119 49.7102 72.717 50.4513C73.3221 51.1925 74.09 51.784 74.9611 52.1797C75.8322 52.5755 76.7829 52.7649 77.7392 52.7331C79.2898 52.7262 80.8055 52.2716 82.1042 51.4241C83.5803 50.4884 84.824 49.2289 85.7412 47.7411H81.3312C80.9783 48.1704 80.5338 48.5151 80.0302 48.75C79.5266 48.9848 78.9768 49.1038 78.4212 49.0981C78.0477 49.1375 77.6701 49.0956 77.3143 48.9754C76.9585 48.8552 76.6329 48.6595 76.3597 48.4018C76.0866 48.144 75.8724 47.8303 75.7318 47.482C75.5912 47.1338 75.5275 46.7593 75.5452 46.3841H86.3722C86.5163 46.0257 86.6141 45.6503 86.6632 45.2671C87.4872 40.8071 84.9202 37.2671 80.5052 37.2671L80.5032 37.2741ZM76.1382 43.4321C76.4481 42.6888 76.9743 42.0558 77.6486 41.6153C78.3228 41.1748 79.1139 40.9473 79.9192 40.9621C80.2695 40.9215 80.6245 40.9549 80.9612 41.06C81.2979 41.1652 81.6088 41.3398 81.8738 41.5726C82.1388 41.8053 82.352 42.0911 82.4997 42.4114C82.6474 42.7317 82.7262 43.0795 82.7312 43.4321H76.1382ZM24.3552 52.2521H28.6662V32.1191H24.9842L17.3262 43.5561H17.2752V32.1191H13.5922L0.0661621 52.2521H5.30116L12.9132 40.8131H12.9662V52.2521H16.6962L24.2592 40.8131H24.3592L24.3552 52.2521ZM97.6452 37.8071H94.9312L95.7062 33.5441H91.9252L91.6342 35.1921C91.2962 37.0821 90.1342 37.6621 88.5342 37.8091H88.4832L87.8062 41.0571H89.9382L87.8512 52.2231H92.1662L94.2502 41.0571H97.0132L97.6452 37.8071Z" fill="black"/>
<path id="Path 29618" d="M164.532 46.777C163.809 48.4973 162.607 49.9737 161.069 51.0306C159.531 52.0875 157.722 52.6805 155.856 52.739C151.491 52.739 148.73 49.298 149.556 44.984C149.966 42.8604 151.088 40.94 152.736 39.5392C154.383 38.1384 156.459 37.3408 158.621 37.278C162.45 37.278 165.05 39.846 165.121 43.369H160.756C160.632 42.7467 160.279 42.1933 159.768 41.8169C159.257 41.4406 158.624 41.2684 157.993 41.334C156.987 41.3531 156.02 41.7293 155.265 42.3956C154.51 43.0618 154.017 43.9746 153.873 44.971C153.484 47.055 154.55 48.654 156.636 48.654C157.335 48.6573 158.024 48.4806 158.635 48.1411C159.246 47.8015 159.76 47.3104 160.126 46.715H164.537L164.532 46.777ZM128.665 27L120.28 32.138H122.655L115.045 43.575H114.945V32.138H111.216L103.603 43.576H103.552V32.14H99.1873V52.272H102.968L110.578 40.835H110.629V52.272H114.361L127.836 32.14H129.968L128.665 27ZM136.904 52.254H132.641L132.932 50.703H132.881C132.323 51.3777 131.618 51.9162 130.82 52.2773C130.022 52.6385 129.152 52.8128 128.276 52.787C123.671 52.787 121.685 49.15 122.46 45.032C122.801 42.9465 123.85 41.042 125.43 39.6386C127.01 38.2353 129.025 37.4186 131.136 37.326C133.511 37.326 134.626 38.49 135.014 39.361H135.065L135.356 37.861H139.619L136.904 52.254ZM129.633 48.72C130.668 48.6754 131.657 48.2826 132.44 47.6051C133.223 46.9276 133.754 46.0054 133.947 44.988C134.238 43.245 133.414 41.351 130.99 41.351C129.959 41.387 128.971 41.778 128.194 42.458C127.418 43.1379 126.899 44.0652 126.727 45.083C126.608 45.5211 126.594 45.9811 126.686 46.4256C126.778 46.8701 126.974 47.2865 127.258 47.641C127.542 47.9955 127.905 48.278 128.318 48.4655C128.732 48.653 129.184 48.7402 129.637 48.72H129.633ZM150.426 37.815H147.712L148.487 33.552H144.706L144.415 35.2C144.077 37.09 142.915 37.67 141.315 37.817H141.264L140.635 41.065H142.767L140.683 52.231H144.997L147.081 41.065H149.844L150.426 37.815ZM168.603 32.144H172.917L171.608 39.317H171.659C172.097 38.7242 172.661 38.2352 173.309 37.8847C173.958 37.5343 174.676 37.331 175.412 37.2894C176.148 37.2478 176.884 37.3688 177.568 37.6439C178.252 37.919 178.867 38.3414 179.369 38.881C180.289 40.281 180.193 41.547 179.707 44.165L178.207 52.211H173.893L175.348 44.361C175.493 43.684 175.881 41.307 173.605 41.307C171.181 41.307 170.793 43.489 170.648 44.217L169.148 52.217H164.885L168.603 32.144Z" fill="#00B742"/>
</g>
</g>
</g>
<defs>
<clipPath id="clip0_605_3608">
<rect width="180" height="80" fill="white" transform="translate(0.0700684)"/>
</clipPath>
</defs>
</svg>
