<svg width="49" height="48" viewBox="0 0 49 48" fill="none" xmlns="http://www.w3.org/2000/svg">
<g id="mobile-phone.svg">
<path id="Vector" d="M35.2031 46.7023H13.7977C13.1096 46.7023 12.4496 46.4289 11.9631 45.9423C11.4765 45.4558 11.2031 44.7958 11.2031 44.1077V3.89147C11.2031 3.20334 11.4765 2.5434 11.9631 2.05681C12.4496 1.57023 13.1096 1.29688 13.7977 1.29688H35.2031C35.8913 1.29688 36.5512 1.57023 37.0378 2.05681C37.5244 2.5434 37.7977 3.20334 37.7977 3.89147V44.1077C37.7977 44.7958 37.5244 45.4558 37.0378 45.9423C36.5512 46.4289 35.8913 46.7023 35.2031 46.7023ZM13.7977 2.59417C13.4537 2.59417 13.1237 2.73085 12.8804 2.97414C12.6371 3.21743 12.5004 3.54741 12.5004 3.89147V44.1077C12.5004 44.4518 12.6371 44.7817 12.8804 45.025C13.1237 45.2683 13.4537 45.405 13.7977 45.405H35.2031C35.5472 45.405 35.8772 45.2683 36.1205 45.025C36.3637 44.7817 36.5004 44.4518 36.5004 44.1077V3.89147C36.5004 3.54741 36.3637 3.21743 36.1205 2.97414C35.8772 2.73085 35.5472 2.59417 35.2031 2.59417H13.7977Z" fill="#0088CC"/>
<path id="Vector_2" d="M37.1491 8.43206H11.8518C11.6797 8.43206 11.5148 8.36372 11.3931 8.24208C11.2715 8.12043 11.2031 7.95545 11.2031 7.78341C11.2031 7.61138 11.2715 7.4464 11.3931 7.32475C11.5148 7.20311 11.6797 7.13477 11.8518 7.13477H37.1491C37.3211 7.13477 37.4861 7.20311 37.6077 7.32475C37.7294 7.4464 37.7977 7.61138 37.7977 7.78341C37.7977 7.95545 37.7294 8.12043 37.6077 8.24208C37.4861 8.36372 37.3211 8.43206 37.1491 8.43206Z" fill="#0088CC"/>
<path id="Vector_3" d="M37.1491 38.27H11.8518C11.6797 38.27 11.5148 38.2016 11.3931 38.08C11.2715 37.9583 11.2031 37.7933 11.2031 37.6213C11.2031 37.4493 11.2715 37.2843 11.3931 37.1626C11.5148 37.041 11.6797 36.9727 11.8518 36.9727H37.1491C37.3211 36.9727 37.4861 37.041 37.6077 37.1626C37.7294 37.2843 37.7977 37.4493 37.7977 37.6213C37.7977 37.7933 37.7294 37.9583 37.6077 38.08C37.4861 38.2016 37.3211 38.27 37.1491 38.27Z" fill="#0088CC"/>
<path id="Vector_4" d="M24.4996 44.2297C24.0265 44.2297 23.564 44.0894 23.1706 43.8266C22.7772 43.5637 22.4706 43.1901 22.2895 42.753C22.1085 42.3159 22.0611 41.8349 22.1534 41.3708C22.2457 40.9068 22.4735 40.4805 22.8081 40.146C23.1426 39.8114 23.5689 39.5836 24.0329 39.4913C24.497 39.399 24.978 39.4463 25.4151 39.6274C25.8522 39.8085 26.2258 40.1151 26.4887 40.5085C26.7516 40.9019 26.8919 41.3644 26.8919 41.8375C26.8912 42.4718 26.6389 43.0798 26.1904 43.5283C25.742 43.9768 25.1339 44.2291 24.4996 44.2297ZM24.4996 40.7433C24.2831 40.7433 24.0713 40.8075 23.8913 40.9278C23.7112 41.0482 23.5709 41.2192 23.488 41.4193C23.4052 41.6194 23.3835 41.8396 23.4258 42.052C23.4681 42.2644 23.5725 42.4595 23.7256 42.6126C23.8788 42.7657 24.074 42.87 24.2864 42.9121C24.4989 42.9543 24.719 42.9325 24.9191 42.8496C25.1192 42.7666 25.2901 42.6262 25.4103 42.446C25.5306 42.2659 25.5947 42.0541 25.5946 41.8375C25.5942 41.5473 25.4787 41.2691 25.2734 41.0639C25.0682 40.8588 24.7899 40.7434 24.4996 40.7433Z" fill="#0088CC"/>
<path id="Vector_5" d="M27.0947 5.67523H21.9055C21.7335 5.67523 21.5685 5.60689 21.4468 5.48524C21.3252 5.3636 21.2568 5.19861 21.2568 5.02658C21.2568 4.85455 21.3252 4.68956 21.4468 4.56791C21.5685 4.44627 21.7335 4.37793 21.9055 4.37793H27.0947C27.2667 4.37793 27.4317 4.44627 27.5533 4.56791C27.675 4.68956 27.7433 4.85455 27.7433 5.02658C27.7433 5.19861 27.675 5.3636 27.5533 5.48524C27.4317 5.60689 27.2667 5.67523 27.0947 5.67523Z" fill="#0088CC"/>
</g>
</svg>
