<svg width="49" height="48" viewBox="0 0 49 48" fill="none" xmlns="http://www.w3.org/2000/svg">
<g id="okf-growth.svg" clip-path="url(#clip0_420_7029)">
<path id="Vector" fill-rule="evenodd" clip-rule="evenodd" d="M1.09946 0.0795078C0.990509 0.123487 0.810991 0.274272 0.700633 0.414463L0.5 0.669333V24.0044V47.3396L0.77383 47.6458L1.04766 47.952L24.4668 47.9758L47.8858 48L48.1931 47.7258L48.5 47.4516V31.4949V15.5384L48.1902 15.2619L47.8807 14.9854L43.7954 15.0118L39.7103 15.038L39.4365 15.3443L39.1627 15.6505V30.887V46.1233H38.0849H37.0072L36.9822 36.4571L36.9576 26.791L36.6478 26.5145L36.338 26.2381L32.2529 26.2644L28.1677 26.2907L27.894 26.5969L27.6202 26.9032V36.5133V46.1233H26.542H25.4638L25.4393 32.7062L25.415 19.2893L25.1053 19.0127L24.7956 18.7363L20.7104 18.7626L16.6252 18.7889L16.3515 19.0952L16.0777 19.4014V32.7624V46.1233H15.0003H13.9229L13.8977 39.2703L13.8724 32.4173L13.5628 32.1409L13.2531 31.8645L9.17774 31.8908L5.10238 31.9169L4.84223 32.1769L4.58212 32.437L4.55685 39.28L4.53162 46.1233H3.45479H2.37796L2.35394 23.3292L2.32991 0.534864L2.02343 0.261238C1.71309 -0.0158583 1.45934 -0.065745 1.09946 0.0795078ZM42.3768 0.126581C41.6433 0.332878 41.1585 0.609882 40.6596 1.10837C39.5793 2.18825 39.2521 3.87708 39.8647 5.21409C40.0065 5.52392 40.0703 5.77569 40.0226 5.83787C39.7883 6.14356 34.1549 13.5415 34.1411 13.5622C34.1319 13.5757 33.9288 13.5004 33.6901 13.3949C32.6294 12.9261 30.9329 13.1397 30.1323 13.8429C29.9286 14.0217 30.2233 14.2595 26.9782 11.2973L24.3184 8.86952L24.3975 8.4373C24.7633 6.43743 23.8624 4.69591 22.1072 4.01004C21.3534 3.71551 20.1862 3.71551 19.4324 4.01004C17.9295 4.59724 17.0609 5.90883 17.0661 7.58315C17.0681 8.24753 17.1104 8.47068 17.3207 8.9238L17.5728 9.46739L14.4653 13.2373C12.7563 15.3108 11.2878 17.0824 11.2022 17.1741C11.0532 17.3337 11.0265 17.3318 10.5826 17.13C9.92903 16.8327 8.65877 16.8364 7.88985 17.1376C5.65387 18.0136 4.81419 20.7122 6.15039 22.728C6.82015 23.7384 7.92907 24.3077 9.22728 24.3077C11.4002 24.3077 12.9378 22.7368 12.931 20.5237C12.9289 19.8593 12.8866 19.6361 12.6764 19.183L12.4243 18.6394L15.5317 14.8695C17.2408 12.796 18.7092 11.0245 18.7949 10.9328C18.9439 10.773 18.9692 10.7741 19.3885 10.9595C20.4526 11.4299 22.148 11.2174 22.9498 10.513C23.1535 10.3342 22.8588 10.0964 26.104 13.0586L28.7637 15.4864L28.6846 15.9186C28.3188 17.9185 29.2198 19.66 30.9749 20.3459C31.7287 20.6404 32.8959 20.6404 33.6497 20.3459C35.1525 19.7587 36.0213 18.4471 36.0162 16.7728C36.014 16.1053 35.972 15.8859 35.7576 15.4236C35.6044 15.0931 35.5337 14.8296 35.5814 14.7672C35.816 14.4615 41.4491 7.06356 41.4629 7.04282C41.4724 7.02933 41.6868 7.11241 41.9401 7.22755C42.59 7.52314 43.8623 7.51881 44.6294 7.21838C46.8652 6.34234 47.7048 3.6438 46.3687 1.62797C45.5537 0.398331 43.7812 -0.268292 42.3768 0.126581ZM44.2877 2.162C44.4642 2.28127 44.7241 2.54402 44.8653 2.74591C45.0822 3.05658 45.1217 3.20897 45.1217 3.73848C45.1217 4.26802 45.0822 4.42039 44.8653 4.73107C44.4377 5.34256 44.0171 5.56706 43.2986 5.56706C42.8126 5.56706 42.6058 5.51987 42.3235 5.34453C41.6186 4.90642 41.2795 4.02711 41.4999 3.2085C41.6237 2.74995 42.2398 2.09213 42.6696 1.95964C43.1332 1.81673 43.9229 1.91547 44.2877 2.162ZM21.7658 5.91288C21.9423 6.03216 22.2021 6.2949 22.3432 6.49678C22.5598 6.80681 22.5996 6.95975 22.5989 7.48141C22.5978 8.19799 22.3565 8.64417 21.7405 9.06802C21.2416 9.41123 20.3308 9.42416 19.8016 9.0954C19.0965 8.65729 18.7575 7.77801 18.978 6.95937C19.1016 6.50083 19.7177 5.84301 20.1476 5.71053C20.6112 5.56759 21.4011 5.66635 21.7658 5.91288ZM33.3431 15.3073C33.9048 15.6787 34.1423 16.1442 34.1423 16.8745C34.1423 17.3954 34.1022 17.5496 33.8856 17.8591C33.4571 18.4727 33.0383 18.6951 32.3123 18.6951C31.5863 18.6951 31.1677 18.4727 30.739 17.8591C30.5223 17.5491 30.4825 17.3962 30.4833 16.8745C30.484 16.3608 30.5259 16.1965 30.7325 15.8966C30.9866 15.5279 31.4676 15.1478 31.7985 15.0544C32.1955 14.9425 32.9875 15.0721 33.3431 15.3073ZM46.67 31.4949V46.1233H43.8547H41.0395V31.4949V16.8666H43.8547H46.67V31.4949ZM10.2581 19.0582C10.82 19.4296 11.0572 19.895 11.0572 20.6254C11.0572 21.1462 11.017 21.3005 10.8006 21.61C10.3719 22.2236 9.95322 22.446 9.22728 22.446C8.71697 22.446 8.54054 22.4033 8.25705 22.2116C7.53598 21.7239 7.2169 20.8987 7.43546 20.0875C7.55906 19.6289 8.17511 18.9711 8.60512 18.8386C9.08237 18.6915 9.85978 18.7947 10.2581 19.0582ZM23.585 33.3704V46.1233H20.7698H17.9545V33.3704V20.6174H20.7698H23.585V33.3704ZM43.5159 24.4602C43.4069 24.5042 43.2273 24.655 43.1171 24.7952C42.9194 25.0465 42.9165 25.1055 42.9165 29.0681V33.0861L43.1745 33.3722C43.3365 33.552 43.5585 33.6784 43.7717 33.712C44.0578 33.7575 44.1601 33.7217 44.4285 33.482L44.7462 33.1984V29.0569V24.9156L44.4399 24.6419C44.1295 24.3649 43.8759 24.315 43.5159 24.4602ZM35.1276 37.1213V46.1233H32.3123H29.4971V37.1213V28.1192H32.3123H35.1276V37.1213ZM12.0425 39.9344V46.1233H9.22728H6.41202V39.9344V33.7456H9.22728H12.0425V39.9344ZM43.5159 35.7129C43.2203 35.8322 42.9165 36.2667 42.9165 36.5697C42.9165 36.9453 43.3476 37.3958 43.7717 37.4629C44.0575 37.5084 44.1601 37.4726 44.4263 37.2348C44.69 36.9995 44.7421 36.8878 44.7421 36.5587C44.7421 36.2325 44.6897 36.1176 44.4377 35.8927C44.1295 35.6173 43.8753 35.5677 43.5159 35.7129Z" fill="#FE7F2D"/>
</g>
<defs>
<clipPath id="clip0_420_7029">
<rect width="48" height="48" fill="white" transform="translate(0.5)"/>
</clipPath>
</defs>
</svg>
