<svg width="108" height="46" viewBox="0 0 108 46" fill="none" xmlns="http://www.w3.org/2000/svg">
<g id="partner-oracle.svg">
<path id="Vector" d="M46.5619 25.3779H53.1355L49.66 19.5651L43.28 30.0748H40.3763L48.1356 17.4501C48.4726 16.9401 49.0354 16.6318 49.6591 16.6318C50.2623 16.6318 50.8242 16.9294 51.1513 17.4286L58.9411 30.0748H56.0374L54.6671 27.7259H48.0119L46.5601 25.3779H46.5619ZM76.7199 27.7268V16.7591H74.2562V28.7995C74.2551 29.1322 74.3833 29.4523 74.6138 29.6922C74.8486 29.9368 75.1659 30.0748 75.5136 30.0748H86.7475L88.1993 27.7259H76.719L76.7199 27.7268ZM35.9607 25.7605C38.3527 25.7605 40.2956 23.7521 40.2956 21.2652C40.2956 18.7782 38.3536 16.7591 35.9607 16.7591H25.1821V30.0748H27.6449V19.108H35.7967C36.9421 19.108 37.8616 20.075 37.8616 21.2652C37.8616 22.4553 36.9412 23.4223 35.7967 23.4223L28.8512 23.4116L36.2054 30.0748H39.7839L34.836 25.7605H35.9607ZM10.022 30.0748C6.4856 30.0748 3.61597 27.0995 3.61597 23.4223C3.61597 19.7452 6.4856 16.7591 10.022 16.7591H17.4676C21.0049 16.7591 23.8728 19.7452 23.8728 23.4223C23.8728 27.0995 21.004 30.0748 17.4667 30.0748H10.022ZM17.3018 27.7259C19.5925 27.7259 21.4486 25.8027 21.4486 23.4223C21.4486 21.042 19.5934 19.108 17.3018 19.108H10.1869C7.89711 19.108 6.04019 21.042 6.04019 23.4223C6.04019 25.8027 7.89711 27.7259 10.1869 27.7259H17.3018ZM64.0835 30.0748C60.5462 30.0748 57.6739 27.0995 57.6739 23.4223C57.6739 19.7452 60.5462 16.7591 64.0835 16.7591H72.9263L71.4852 19.108H64.2475C61.9577 19.108 60.0972 21.042 60.0972 23.4223C60.0972 25.8027 61.9577 27.7259 64.2475 27.7259H73.1315L71.6788 30.0748H64.0835ZM94.2101 27.7259C92.3192 27.7259 90.7141 26.4085 90.2238 24.591H100.753L102.205 22.2429H90.2238C90.7141 20.4362 92.3192 19.108 94.2101 19.108H101.438L102.9 16.76H94.047C90.5097 16.76 87.6374 19.7461 87.6374 23.4232C87.6374 27.1003 90.5097 30.0748 94.047 30.0748H101.642L103.094 27.7259H94.2101Z" fill="#EA1B22"/>
</g>
</svg>
