<svg width="108" height="46" viewBox="0 0 108 46" fill="none" xmlns="http://www.w3.org/2000/svg">
<g id="partner-salesforce.svg" clip-path="url(#clip0_605_3581)">
<path id="Vector" d="M23.4526 7.48934C25.271 5.59657 27.8027 4.42165 30.6016 4.42165C34.3235 4.42165 37.5704 6.49545 39.2992 9.5739C40.8459 8.88362 42.5211 8.52783 44.2149 8.52983C50.9274 8.52983 56.3691 14.0155 56.3691 20.7809C56.3691 27.5463 50.9274 33.0328 44.2149 33.0328C43.411 33.0333 42.6091 32.9534 41.8211 32.7944C40.2985 35.509 37.3966 37.3427 34.0663 37.3427C32.6718 37.3427 31.3535 37.0209 30.1795 36.4482C28.6362 40.077 25.0398 42.6213 20.8482 42.6213C16.4837 42.6213 12.7636 39.861 11.3351 35.9912C10.6992 36.1258 10.051 36.1934 9.40107 36.1928C4.204 36.1919 -0.0090332 31.9386 -0.0090332 26.6913C-0.0090332 23.1746 1.88374 20.1043 4.69602 18.4615C4.10015 17.0903 3.79354 15.6109 3.79534 14.1158C3.79534 8.08083 8.69845 3.18848 14.746 3.18848C18.2967 3.18848 21.4523 4.87512 23.4526 7.48934Z" fill="#00A1E0"/>
<path id="Vector_2" d="M8.15593 23.6384C8.12098 23.7307 8.16848 23.7504 8.18013 23.7656C8.28588 23.8427 8.39342 23.8983 8.50186 23.9601C9.07722 24.2648 9.61943 24.3544 10.1876 24.3544C11.3437 24.3544 12.0625 23.7396 12.0625 22.7502V22.7314C12.0625 21.8164 11.2523 21.4839 10.4914 21.2446L10.3928 21.2124C9.81928 21.0259 9.32458 20.8655 9.32458 20.4882V20.4685C9.32458 20.1459 9.61405 19.9084 10.0621 19.9084C10.5744 19.9189 11.0774 20.0474 11.5319 20.2839C11.5319 20.2839 11.6439 20.3565 11.6843 20.248L11.92 19.6153C11.9415 19.5544 11.9029 19.5096 11.8635 19.4854C11.4289 19.221 10.8284 19.0409 10.2064 19.0409L10.0908 19.0418C9.03242 19.0418 8.29305 19.6807 8.29305 20.5967V20.6155C8.29305 21.5807 9.10859 21.8944 9.87215 22.1121L9.99493 22.1498C10.5515 22.321 11.0309 22.4679 11.0309 22.8596V22.8793C11.0309 23.2369 10.7191 23.5039 10.2163 23.5039C10.0209 23.5039 9.39896 23.4995 8.72681 23.0756L8.53592 22.9564C8.50276 22.9357 8.42031 22.899 8.38446 23.0083L8.15593 23.6411V23.6384ZM25.0869 23.6384C25.0511 23.7307 25.0995 23.7504 25.1111 23.7656C25.2169 23.8427 25.3253 23.8983 25.4329 23.9601C26.0082 24.2648 26.5504 24.3544 27.1186 24.3544C28.2747 24.3544 28.9935 23.7396 28.9935 22.7502V22.7314C28.9935 21.8164 28.1833 21.4839 27.4224 21.2446L27.3239 21.2124C26.7503 21.0259 26.2556 20.8655 26.2556 20.4882V20.4685C26.2556 20.1459 26.5451 19.9084 26.9932 19.9084C27.5054 19.9189 28.0084 20.0474 28.4629 20.2839C28.4629 20.2839 28.575 20.3565 28.6153 20.248L28.851 19.6153C28.8725 19.5544 28.834 19.5096 28.7945 19.4854C28.3599 19.221 27.7594 19.0409 27.1374 19.0409L27.0218 19.0418C25.9634 19.0418 25.2241 19.6807 25.2241 20.5967V20.6155C25.2241 21.5807 26.0396 21.8944 26.8032 22.1121L26.9259 22.1498C27.4825 22.321 27.9628 22.4679 27.9628 22.8596V22.8793C27.9628 23.2369 27.6501 23.5039 27.1473 23.5039C26.9519 23.5039 26.33 23.4995 25.6578 23.0756L25.4678 22.9564C25.4472 22.9429 25.3486 22.9053 25.3155 23.0083L25.0869 23.6411V23.6384ZM36.6452 21.6999C36.6452 22.2591 36.5413 22.7 36.3351 23.011C36.129 23.322 35.8243 23.469 35.3959 23.469C34.9675 23.469 34.6602 23.3193 34.4603 23.011C34.2604 22.7027 34.1547 22.2591 34.1547 21.6999C34.1547 21.1407 34.2578 20.7015 34.4603 20.3932C34.6628 20.0849 34.9667 19.9397 35.3959 19.9397C35.8252 19.9397 36.1326 20.0885 36.336 20.3932C36.5395 20.6979 36.6452 21.1416 36.6452 21.6999ZM37.6104 20.663C37.5154 20.343 37.3676 20.0598 37.1713 19.825C36.969 19.5846 36.7159 19.3921 36.4301 19.2613C36.1353 19.1242 35.7867 19.0543 35.3959 19.0543C35.0399 19.0472 34.6867 19.1178 34.3608 19.2613C34.0749 19.3922 33.8215 19.5847 33.6188 19.825C33.417 20.0717 33.2676 20.3568 33.1796 20.663C33.0831 21.0001 33.0354 21.3493 33.038 21.6999C33.0353 22.0505 33.083 22.3997 33.1796 22.7368C33.2737 23.0549 33.4225 23.339 33.6197 23.5747C33.8213 23.8145 34.0747 24.0054 34.3608 24.1331C34.6566 24.2675 35.0043 24.3356 35.3959 24.3356C35.7876 24.3356 36.1344 24.2675 36.4301 24.1331C36.7259 23.9986 36.975 23.8104 37.1713 23.5747C37.3737 23.3285 37.5231 23.0433 37.6104 22.7368C37.7077 22.3998 37.7557 22.0506 37.7529 21.6999C37.7529 21.3307 37.7054 20.982 37.6104 20.663ZM45.5382 23.3202C45.506 23.2261 45.4154 23.262 45.4154 23.262C45.2707 23.3202 45.1202 23.3632 44.9665 23.3901C44.8078 23.4152 44.6277 23.4278 44.4368 23.4278C43.969 23.4278 43.5989 23.2888 43.3327 23.0146C43.0665 22.7404 42.9168 22.2968 42.9186 21.6963C42.9204 21.1496 43.0522 20.7392 43.2888 20.4255C43.5254 20.1118 43.882 19.9541 44.3597 19.9541C44.7585 19.9541 45.0614 19.9998 45.3796 20.1002C45.3796 20.1002 45.4558 20.1333 45.4916 20.0339L45.7282 19.3742C45.7542 19.3017 45.6915 19.2703 45.6691 19.2613C45.5436 19.212 45.2479 19.1332 45.0247 19.0991C44.8159 19.0669 44.5721 19.0498 44.3006 19.0498C43.8946 19.0498 43.5334 19.1188 43.2242 19.2568C42.9272 19.3858 42.6617 19.5778 42.4463 19.8197C42.2384 20.0563 42.0816 20.3377 41.9767 20.6576C41.8696 20.9933 41.8163 21.3439 41.819 21.6963C41.819 22.4966 42.035 23.1428 42.4616 23.6169C42.8882 24.0909 43.5307 24.3338 44.3678 24.3338C44.8625 24.3338 45.3697 24.2334 45.7345 24.0901C45.7345 24.0901 45.8044 24.056 45.7739 23.9753L45.5373 23.3211L45.5382 23.3202ZM47.2276 21.164C47.2733 20.8539 47.3593 20.5949 47.4919 20.3932C47.6918 20.0876 47.9974 19.92 48.4258 19.92C48.8542 19.92 49.1383 20.0885 49.3417 20.3932C49.477 20.5949 49.5353 20.8646 49.5586 21.164H47.2276ZM50.4781 20.4811C50.3965 20.1719 50.1931 19.86 50.0596 19.7175C49.8489 19.4908 49.6437 19.333 49.4394 19.2452C49.1431 19.1198 48.8246 19.0555 48.5029 19.0561C48.0951 19.0561 47.725 19.1242 47.4247 19.2658C47.1245 19.4074 46.8709 19.6001 46.6719 19.8394C46.4677 20.0886 46.317 20.3772 46.2292 20.6872C46.1342 21.0107 46.0858 21.3593 46.0858 21.7295C46.0825 22.0824 46.1326 22.4338 46.2346 22.7717C46.3332 23.0872 46.4936 23.3695 46.7087 23.6016C46.937 23.8439 47.2183 24.03 47.5305 24.1456C47.8621 24.2729 48.2582 24.3383 48.717 24.3374C49.6607 24.3338 50.1581 24.1241 50.3625 24.0112C50.3983 23.9915 50.4333 23.9556 50.3894 23.8552L50.1761 23.2575C50.1438 23.1688 50.0533 23.201 50.0533 23.201C49.8194 23.288 49.4869 23.443 48.7117 23.4421C48.2053 23.4412 47.8289 23.2924 47.5932 23.0585C47.3512 22.8192 47.2338 22.4679 47.2123 21.9723L50.4799 21.9759C50.4799 21.9759 50.5659 21.9741 50.5749 21.8908C50.5785 21.8558 50.6878 21.2204 50.4781 20.4837V20.4811ZM21.0567 21.164C21.1033 20.8539 21.1885 20.5949 21.3211 20.3932C21.521 20.0876 21.8266 19.92 22.255 19.92C22.6833 19.92 22.9674 20.0885 23.1709 20.3932C23.3053 20.5949 23.3635 20.8646 23.3869 21.164H21.0558H21.0567ZM24.3064 20.4811C24.2248 20.1719 24.0223 19.86 23.8887 19.7175C23.6781 19.4908 23.4729 19.333 23.2686 19.2452C22.9723 19.1198 22.6537 19.0555 22.332 19.0561C21.9251 19.0561 21.5541 19.1242 21.2539 19.2658C20.9537 19.4074 20.7 19.6001 20.5011 19.8394C20.2969 20.0886 20.1462 20.3772 20.0584 20.6872C19.9611 21.026 19.9128 21.377 19.915 21.7295C19.915 22.1059 19.9643 22.4563 20.0637 22.7717C20.1632 23.0872 20.3227 23.3695 20.5378 23.6016C20.7529 23.8337 21.0289 24.0184 21.3596 24.1456C21.6903 24.2729 22.0874 24.3383 22.5462 24.3374C23.4899 24.3338 23.9873 24.1241 24.1916 24.0112C24.2275 23.9915 24.2624 23.9556 24.2185 23.8552L24.0052 23.2575C23.9721 23.1688 23.8816 23.201 23.8816 23.201C23.6476 23.288 23.316 23.443 22.5399 23.4421C22.0345 23.4412 21.6581 23.2924 21.4224 23.0585C21.1804 22.8192 21.063 22.4679 21.0415 21.9723L24.309 21.9759C24.309 21.9759 24.3951 21.9741 24.404 21.8908C24.4067 21.8558 24.5161 21.2204 24.3064 20.4837V20.4811ZM13.9938 23.3023C13.8656 23.2001 13.8486 23.175 13.8047 23.1087C13.7402 23.0083 13.7079 22.8658 13.7079 22.6839C13.7079 22.3962 13.8029 22.1901 13.9992 22.0512C13.9965 22.0521 14.2806 21.8065 14.9464 21.8155C15.2432 21.821 15.5393 21.8461 15.8328 21.8908V23.3758C15.8328 23.3758 15.4187 23.4645 14.9509 23.4932C14.2859 23.5335 13.9902 23.3014 13.9929 23.3023H13.9938ZM15.2942 21.008L14.7842 20.9928C14.5126 20.9917 14.242 21.0264 13.9794 21.0958C13.7346 21.1593 13.5032 21.2664 13.2965 21.4122C13.0992 21.5529 12.937 21.7372 12.8224 21.9508C12.7068 22.1659 12.6486 22.4195 12.6486 22.7036C12.6486 22.9877 12.6988 23.244 12.7982 23.4493C12.8955 23.6523 13.0422 23.8276 13.2248 23.9592C13.4068 24.0918 13.6308 24.1886 13.8907 24.2478C14.1506 24.3069 14.4374 24.3356 14.7555 24.3356C15.0907 24.3356 15.4241 24.3087 15.7485 24.2532L16.5721 24.0945L16.8007 24.0363C16.8822 24.0166 16.8751 23.9296 16.8751 23.9296L16.8733 20.9435C16.8733 20.2884 16.6985 19.8035 16.3535 19.5024C16.0084 19.2013 15.5057 19.0507 14.8523 19.0507C14.5587 19.054 14.2659 19.0813 13.9767 19.1323C13.9767 19.1323 13.2625 19.2703 12.9685 19.4997C12.9685 19.4997 12.904 19.54 12.9398 19.6297L13.1711 20.2507C13.1997 20.3314 13.2777 20.3036 13.2777 20.3036C13.2777 20.3036 13.3028 20.2937 13.3315 20.2767C13.9606 19.9353 14.7555 19.9451 14.7555 19.9451C15.1087 19.9451 15.3802 20.0159 15.5639 20.1557C15.7423 20.292 15.8328 20.4981 15.8328 20.9336V21.0717L15.2942 21.008ZM41.6514 19.325C41.6765 19.2515 41.6236 19.2156 41.6021 19.2076C41.4231 19.1583 41.2397 19.1268 41.0545 19.1135C40.6441 19.0884 40.4164 19.1574 40.2121 19.2488C40.0078 19.3402 39.7846 19.4881 39.6592 19.6557V19.2586C39.6592 19.2031 39.6197 19.1592 39.5651 19.1592H38.7271C38.6724 19.1592 38.633 19.2031 38.633 19.2586V24.1295C38.633 24.1842 38.6778 24.229 38.7325 24.229H39.591C39.617 24.229 39.6421 24.2182 39.6609 24.1994C39.6701 24.1902 39.6773 24.1793 39.6822 24.1673C39.6872 24.1553 39.6897 24.1424 39.6896 24.1295V21.6963C39.6896 21.3701 39.7255 21.0439 39.7981 20.8395C39.8707 20.6352 39.9648 20.4748 40.084 20.3592C40.1976 20.2476 40.3361 20.1647 40.4881 20.1172C40.6396 20.0706 40.8081 20.0554 40.9264 20.0554C41.0473 20.0581 41.1677 20.0728 41.2858 20.0993C41.3485 20.1064 41.3834 20.0679 41.405 20.0114L41.6505 19.3259M33.591 17.0674C33.4861 17.0352 33.392 17.0137 33.2684 16.9904C33.1215 16.9656 32.9727 16.9542 32.8238 16.9563C32.2323 16.9563 31.7672 17.123 31.4401 17.4519C31.113 17.7808 30.8934 18.2773 30.7832 18.9333L30.7429 19.1538H30.0008C30.0008 19.1538 29.9112 19.1511 29.8915 19.2488L29.7705 19.9281C29.7615 19.9926 29.7902 20.033 29.8762 20.033H30.5986L29.8664 24.1196C29.809 24.4485 29.7436 24.7192 29.6701 24.9244C29.5966 25.1296 29.5285 25.2784 29.4416 25.3886C29.3582 25.4944 29.2794 25.5733 29.1431 25.619C29.0188 25.6579 28.889 25.6767 28.7587 25.6745C28.6707 25.673 28.5831 25.6634 28.497 25.6459C28.419 25.6297 28.3787 25.6136 28.3204 25.5885C28.3204 25.5885 28.2362 25.5562 28.2021 25.6405L27.9593 26.3046C27.9369 26.37 27.9691 26.4202 28.0094 26.4354C28.1062 26.4695 28.177 26.4919 28.3079 26.5232C28.465 26.5575 28.6257 26.5726 28.7865 26.568C29.0867 26.568 29.3618 26.5259 29.5886 26.4435C29.8214 26.3552 30.0289 26.2108 30.1926 26.0232C30.3826 25.8125 30.5027 25.593 30.6165 25.2919C30.7456 24.936 30.8419 24.5692 30.9042 24.1958L31.6409 20.033H32.7172C32.7172 20.033 32.8077 20.0365 32.8265 19.9371L32.9484 19.2577C32.9565 19.1923 32.9296 19.1529 32.8418 19.1529H31.7968C31.8022 19.1296 31.8497 18.7621 31.9698 18.4162C32.0208 18.2692 32.1176 18.15 32.1983 18.0676C32.2789 17.9851 32.3713 17.9305 32.4725 17.8973C32.5738 17.8642 32.6939 17.848 32.8238 17.848C32.9138 17.8479 33.0035 17.8566 33.0918 17.874L33.2594 17.9152C33.366 17.9475 33.3804 17.9161 33.4019 17.865L33.6519 17.1795C33.6779 17.106 33.6143 17.0746 33.5919 17.0656L33.591 17.0674ZM18.9919 24.1295C18.9919 24.1842 18.9525 24.2281 18.8978 24.2281H18.0312C17.9765 24.2281 17.938 24.1842 17.938 24.1295V17.1606C17.938 17.106 17.9765 17.0621 18.0312 17.0621H18.8978C18.9525 17.0621 18.9919 17.106 18.9919 17.1606V24.1295Z" fill="white"/>
<g id="Group">
<path id="Vector_3" d="M61.5976 25.6376H62.6426V21.6289C62.9087 21.9505 63.2437 22.2083 63.6228 22.3831C64.0019 22.5579 64.4155 22.6453 64.8329 22.6389C66.6799 22.6389 68.1112 21.006 68.1112 18.9125C68.1112 16.8333 66.7086 15.2004 64.8902 15.2004C63.96 15.2004 63.1579 15.601 62.6282 16.3288V15.2892H61.5976V25.6376ZM64.6321 16.1504C66.0347 16.1504 67.0797 17.3379 67.0797 18.9268C67.0797 20.5158 66.0347 21.7033 64.6321 21.7033C63.8309 21.7033 63.1005 21.3322 62.6426 20.6933V17.1452C63.0862 16.5071 63.8022 16.1504 64.6321 16.1504ZM72.1746 22.6685C73.0331 22.6685 73.7778 22.3414 74.3935 21.688V22.534H75.4242V17.7232C75.4242 16.0751 74.4509 15.1691 72.7185 15.1691C71.8743 15.1691 71.0435 15.3913 70.0846 15.8672L70.4709 16.6989C71.2864 16.2687 71.9451 16.0751 72.5895 16.0751C73.7779 16.0751 74.3935 16.6837 74.3935 17.872V18.8668C73.7778 18.4805 73.0627 18.3022 72.2606 18.3022C70.686 18.3022 69.641 19.1634 69.641 20.4549C69.641 21.7615 70.686 22.6685 72.1746 22.6685ZM70.6429 20.4262C70.6429 19.6241 71.3447 19.09 72.4183 19.09C73.2052 19.09 73.8065 19.2531 74.3935 19.6097V21.0051C73.8209 21.5697 73.1765 21.8368 72.3896 21.8368C71.3447 21.8368 70.6429 21.2722 70.6429 20.4262ZM77.5482 22.5349H78.5931V17.5763C78.9507 16.6406 79.6094 16.1065 80.468 16.1065C80.6974 16.1065 80.969 16.1657 81.1984 16.24V15.2596C80.9866 15.1867 80.7636 15.1516 80.5397 15.1556C79.6524 15.1556 78.9507 15.7498 78.5931 16.7589V15.2892H77.5482V22.5349ZM83.4389 20.9012C83.4389 22.0591 84.0689 22.6685 85.2716 22.6685C85.6722 22.6685 86.1015 22.6093 86.4887 22.4758V21.5106C86.1765 21.6431 85.8401 21.7087 85.501 21.7033C84.7706 21.7033 84.4848 21.3914 84.4848 20.6198V16.18H86.4887V15.2892H84.4848V13.0469L83.4398 13.2996V15.2892H81.9933V16.18H83.4389V20.9012ZM88.0185 22.5349H89.0634V17.19C89.4784 16.4623 90.1227 16.076 90.8953 16.076C92.0406 16.076 92.771 16.8781 92.771 18.1543V22.534H93.816V17.8424C93.816 16.2535 92.7854 15.17 91.2824 15.17C90.3513 15.17 89.5931 15.6001 89.0634 16.4614V15.2883H88.0185V22.5349ZM101.686 21.7033L101.027 20.9756C100.555 21.4362 99.8385 21.7176 99.1089 21.7176C97.7772 21.7176 96.7179 20.6189 96.6184 19.1491H102.1V18.8229C102.1 16.7437 100.727 15.17 98.8939 15.17C97.0333 15.17 95.6021 16.7885 95.6021 18.9116C95.6021 21.0347 97.105 22.6685 99.0659 22.6685C100.039 22.6685 100.883 22.3566 101.686 21.7033ZM98.8795 16.1056C100.025 16.1056 100.912 17.0708 101.07 18.3775H96.6471C96.8326 17.0412 97.7198 16.1056 98.8795 16.1056ZM103.885 22.5349H104.93V17.5763C105.287 16.6406 105.946 16.1065 106.805 16.1065C107.034 16.1065 107.306 16.1657 107.535 16.24V15.2596C107.32 15.1852 107.12 15.1556 106.876 15.1556C105.989 15.1556 105.287 15.7498 104.93 16.7589V15.2892H103.885V22.5349ZM62.8209 30.6447C62.0735 30.6447 61.4954 29.9967 61.4954 29.1498C61.4954 28.3181 62.0735 27.663 62.8137 27.663C63.2072 27.663 63.6078 27.8467 63.8775 28.1505L64.2396 27.7428C64.051 27.5496 63.8256 27.3964 63.5766 27.292C63.3277 27.1876 63.0604 27.1343 62.7904 27.1351C61.7419 27.1351 60.9326 28.0224 60.9326 29.1498C60.9326 30.2853 61.7499 31.1725 62.7904 31.1725C63.338 31.1725 63.8542 30.9404 64.2163 30.5407L63.8695 30.1813C63.7389 30.3301 63.5774 30.4486 63.3963 30.5287C63.2152 30.6087 63.0189 30.6483 62.8209 30.6447ZM64.7415 29.1498C64.7415 30.3014 65.5355 31.1806 66.5679 31.1806C67.6084 31.1806 68.4024 30.3095 68.4024 29.1498C68.4024 27.9982 67.6165 27.1351 66.5679 27.1351C65.5274 27.1351 64.7415 27.9982 64.7415 29.1498ZM66.5679 30.6608C65.8357 30.6608 65.2962 30.029 65.2962 29.1579C65.2962 28.2948 65.8357 27.6469 66.5679 27.6469C67.3001 27.6469 67.8477 28.2948 67.8477 29.1579C67.8477 30.0209 67.3001 30.6608 66.5679 30.6608Z" fill="#31547E"/>
<path id="Vector_4" d="M69.3896 31.1013H69.9525V28.1995C70.1756 27.8159 70.4839 27.6241 70.8693 27.6241C71.4393 27.6241 71.8022 28.048 71.8022 28.7273V31.1013H72.365V28.583C72.3668 28.4676 72.3566 28.3522 72.3346 28.2389C72.5658 27.823 72.8821 27.6232 73.2747 27.6232C73.8447 27.6232 74.1996 28.0471 74.1996 28.7264V31.1005H74.7624V28.5821C74.7624 27.7272 74.2381 27.1348 73.4826 27.1348C72.935 27.1348 72.5192 27.3902 72.2261 27.8947C72.0182 27.4314 71.6015 27.1348 71.07 27.1348C70.6076 27.1348 70.2375 27.3588 69.9525 27.806V27.1984H69.3896V31.0996V31.1013Z" fill="#31547E"/>
<path id="Vector_5" d="M75.9014 31.1013H76.4642V28.1995C76.6873 27.8159 76.9956 27.6241 77.381 27.6241C77.951 27.6241 78.3139 28.048 78.3139 28.7273V31.1013H78.8768V28.583C78.8785 28.4676 78.8683 28.3522 78.8463 28.2389C79.0775 27.823 79.3939 27.6232 79.7864 27.6232C80.3564 27.6232 80.7113 28.0471 80.7113 28.7264V31.1005H81.2741V28.5821C81.2741 27.7272 80.7498 27.1348 79.9943 27.1348C79.4467 27.1348 79.0309 27.3902 78.7378 27.8947C78.5299 27.4314 78.1132 27.1348 77.5817 27.1348C77.1193 27.1348 76.7492 27.3588 76.4642 27.806V27.1984H75.9014V31.0996V31.1013Z" fill="#31547E"/>
<path id="Vector_6" d="M82.9215 27.1991H82.3506V29.7174C82.3506 30.5733 82.9053 31.1647 83.7146 31.1647C84.2236 31.1647 84.6242 30.9326 84.9092 30.4693V31.1011H85.4721V27.2H84.9092V30.0857C84.6861 30.4693 84.3393 30.6772 83.9225 30.6772C83.3059 30.6772 82.9206 30.2452 82.9206 29.5498L82.9215 27.1991ZM86.6272 31.1011H87.1901V28.2225C87.4132 27.8309 87.76 27.623 88.1768 27.623C88.7934 27.623 89.1868 28.0549 89.1868 28.7423V31.1011H89.7496V28.5747C89.7496 27.7189 89.194 27.1354 88.3856 27.1354C87.8846 27.1354 87.476 27.3675 87.191 27.8309V27.1991H86.6281V31.1002L86.6272 31.1011ZM91.1647 26.2401C91.3888 26.2401 91.5653 26.0564 91.5653 25.8162C91.5653 25.5922 91.3807 25.4004 91.1647 25.4004C90.9416 25.4004 90.756 25.5922 90.756 25.8162C90.756 26.0564 90.9335 26.2401 91.1647 26.2401ZM91.4425 27.1991H90.8797V31.1002H91.4425V27.1991ZM93.0431 30.221C93.0431 30.8448 93.3819 31.1728 94.0299 31.1728C94.2458 31.1728 94.4771 31.1406 94.685 31.0689V30.5491C94.5167 30.6205 94.3354 30.6559 94.1526 30.653C93.7601 30.653 93.606 30.4854 93.606 30.0696V27.6794H94.685V27.2H93.606V25.9928L93.0431 26.129V27.2H92.2643V27.6794H93.0431V30.2219V30.221ZM96.3241 31.724C96.1852 32.0753 96.0078 32.2196 95.7228 32.2196C95.6385 32.2196 95.5686 32.2196 95.4145 32.1873V32.7071C95.5318 32.7434 95.6538 32.7621 95.7766 32.7627C96.3322 32.7627 96.6172 32.5306 96.8565 31.8996L98.7215 27.1991H98.0968L96.887 30.4048L95.7461 27.1991H95.1214L96.5706 31.0922L96.3241 31.724Z" fill="#31547E"/>
</g>
</g>
<defs>
<clipPath id="clip0_605_3581">
<rect width="107.544" height="44.81" fill="white" transform="translate(-0.0090332 0.5)"/>
</clipPath>
</defs>
</svg>
