<svg width="40" height="40" viewBox="0 0 40 40" fill="none" xmlns="http://www.w3.org/2000/svg">
<g id="Frame 256">
<path id="telephone-fill" fill-rule="evenodd" clip-rule="evenodd" d="M10.8272 8.76661C11.9403 7.65344 13.7772 7.7678 14.7437 9.01045L17.4343 12.4697C17.928 13.1046 18.1025 13.9311 17.9075 14.7113L17.0866 17.9949C16.9999 18.3416 17.1015 18.7083 17.3542 18.961L21.039 22.6458C21.2917 22.8985 21.6584 23.0001 22.0051 22.9134L25.2887 22.0925C26.0689 21.8975 26.8954 22.072 27.5303 22.5657L30.9895 25.2563C32.2322 26.2228 32.3466 28.0597 31.2334 29.1728L29.6825 30.7237C28.5729 31.8333 26.9133 32.3205 25.3666 31.7767C21.5263 30.4266 17.9216 28.2161 14.8527 25.1473C11.7839 22.0784 9.57342 18.4737 8.22326 14.6334C7.67948 13.0867 8.1667 11.4271 9.27627 10.3175L10.8272 8.76661Z" fill="white"/>
<rect x="0.5" y="0.5" width="39" height="39" rx="7.5" stroke="white"/>
</g>
</svg>
