<svg width="49" height="48" viewBox="0 0 49 48" fill="none" xmlns="http://www.w3.org/2000/svg">
<g id="web-programming.svg" clip-path="url(#clip0_420_7079)">
<path id="Vector" d="M19.4381 33.6375C19.2568 33.6375 19.0741 33.5752 18.9251 33.4483L13.7972 29.0818C13.6203 28.931 13.5186 28.7108 13.5186 28.4782C13.5186 28.246 13.6207 28.0258 13.7972 27.875L18.9251 23.5086C19.2581 23.2247 19.7582 23.2649 20.0421 23.5979C20.3256 23.9313 20.2858 24.4315 19.9524 24.7149L15.5333 28.4782L19.9524 32.2415C20.2858 32.5254 20.3256 33.0255 20.0421 33.3585C19.8852 33.5429 19.6623 33.6375 19.4381 33.6375Z" fill="#FE7F2D"/>
<path id="Vector_2" d="M29.5616 33.6375C29.3374 33.6375 29.1146 33.5429 28.958 33.3585C28.6741 33.0255 28.7144 32.5254 29.0473 32.2415L33.4664 28.4782L29.0473 24.7149C28.7144 24.4315 28.6741 23.9313 28.958 23.5979C29.2415 23.2649 29.7421 23.2247 30.0746 23.5086L35.2026 27.875C35.3794 28.0258 35.4812 28.246 35.4812 28.4782C35.4812 28.7108 35.3794 28.931 35.2026 29.0818L30.0746 33.4483C29.9256 33.5752 29.743 33.6375 29.5616 33.6375Z" fill="#FE7F2D"/>
<path id="Vector_3" d="M22.6843 36.9134C22.6299 36.9134 22.5751 36.9076 22.5198 36.8961C22.0918 36.8059 21.8176 36.3854 21.9078 35.9573L25.1037 20.7835C25.1939 20.3554 25.614 20.0813 26.0425 20.1715C26.4706 20.2617 26.7448 20.6818 26.6546 21.1103L23.4587 36.2841C23.3799 36.6573 23.0509 36.9134 22.6843 36.9134Z" fill="#FE7F2D"/>
<path id="Vector_4" d="M43.1793 45.1794H5.82076C2.88709 45.1794 0.5 42.7928 0.5 39.8587V8.15083C0.5 5.21717 2.88709 2.83008 5.82076 2.83008H43.1793C46.1129 2.83008 48.5 5.21717 48.5 8.15083V39.8587C48.5 42.7928 46.1129 45.1794 43.1793 45.1794ZM5.82076 4.41498C3.76091 4.41498 2.08491 6.09099 2.08491 8.15083V39.8587C2.08491 41.9185 3.76091 43.5945 5.82076 43.5945H43.1793C45.2391 43.5945 46.9151 41.9185 46.9151 39.8587V8.15083C46.9151 6.09099 45.2391 4.41498 43.1793 4.41498H5.82076Z" fill="#FE7F2D"/>
<path id="Vector_5" d="M47.7076 15.5195H1.29245C0.854658 15.5195 0.5 15.1648 0.5 14.727C0.5 14.2897 0.854658 13.9346 1.29245 13.9346H47.7076C48.1453 13.9346 48.5 14.2897 48.5 14.727C48.5 15.1648 48.1453 15.5195 47.7076 15.5195Z" fill="#FE7F2D"/>
<path id="Vector_6" d="M14.0398 11.7275C12.6574 11.7275 11.532 10.6021 11.532 9.21973C11.532 7.83691 12.6574 6.71191 14.0398 6.71191C15.4226 6.71191 16.5476 7.83691 16.5476 9.21973C16.5476 10.6021 15.4226 11.7275 14.0398 11.7275ZM14.0398 8.29682C13.5312 8.29682 13.1169 8.71073 13.1169 9.21973C13.1169 9.72872 13.5312 10.1426 14.0398 10.1426C14.5488 10.1426 14.9627 9.72872 14.9627 9.21973C14.9627 8.71073 14.5488 8.29682 14.0398 8.29682Z" fill="#FE7F2D"/>
<path id="Vector_7" d="M6.33496 11.7031C4.95215 11.7031 3.82715 10.5781 3.82715 9.19531C3.82715 7.8125 4.95215 6.6875 6.33496 6.6875C7.71777 6.6875 8.84277 7.8125 8.84277 9.19531C8.84277 10.5781 7.71777 11.7031 6.33496 11.7031ZM6.33496 8.27241C5.82641 8.27241 5.41205 8.68676 5.41205 9.19531C5.41205 9.7043 5.82641 10.1182 6.33496 10.1182C6.84395 10.1182 7.25787 9.7043 7.25787 9.19531C7.25787 8.68676 6.84395 8.27241 6.33496 8.27241Z" fill="#FE7F2D"/>
<path id="Vector_8" d="M21.7447 11.7515C20.3623 11.7515 19.2373 10.6265 19.2373 9.2437C19.2373 7.86133 20.3623 6.73633 21.7447 6.73633C23.1275 6.73633 24.2525 7.86133 24.2525 9.2437C24.2525 10.6265 23.1275 11.7515 21.7447 11.7515ZM21.7447 8.32079C21.2361 8.32079 20.8222 8.73471 20.8222 9.2437C20.8222 9.75269 21.2361 10.1666 21.7447 10.1666C22.2537 10.1666 22.6676 9.75269 22.6676 9.2437C22.6676 8.73471 22.2537 8.32079 21.7447 8.32079Z" fill="#FE7F2D"/>
</g>
<defs>
<clipPath id="clip0_420_7079">
<rect width="48" height="48" fill="white" transform="translate(0.5)"/>
</clipPath>
</defs>
</svg>
