<svg width="48" height="48" viewBox="0 0 48 48" fill="none" xmlns="http://www.w3.org/2000/svg">
<g id="quality-assurance-1.svg" clip-path="url(#clip0_420_7117)">
<g id="Group">
<path id="Vector" d="M14.7802 27.9693L13.7197 29.0298L17.3002 32.6103L25.326 22.9795L24.174 22.0195L17.1997 30.3888L14.7802 27.9693Z" fill="#FE7F2D"/>
<path id="Vector_2" d="M6 8.25C7.2405 8.25 8.25 7.2405 8.25 6C8.25 4.7595 7.2405 3.75 6 3.75C4.7595 3.75 3.75 4.7595 3.75 6C3.75 7.2405 4.7595 8.25 6 8.25ZM6 5.25C6.41325 5.25 6.75 5.58675 6.75 6C6.75 6.41325 6.41325 6.75 6 6.75C5.58675 6.75 5.25 6.41325 5.25 6C5.25 5.58675 5.58675 5.25 6 5.25Z" fill="#FE7F2D"/>
<path id="Vector_3" d="M12 8.25C13.2405 8.25 14.25 7.2405 14.25 6C14.25 4.7595 13.2405 3.75 12 3.75C10.7595 3.75 9.75 4.7595 9.75 6C9.75 7.2405 10.7595 8.25 12 8.25ZM12 5.25C12.4132 5.25 12.75 5.58675 12.75 6C12.75 6.41325 12.4132 6.75 12 6.75C11.5868 6.75 11.25 6.41325 11.25 6C11.25 5.58675 11.5868 5.25 12 5.25Z" fill="#FE7F2D"/>
<path id="Vector_4" d="M18 8.25C19.2405 8.25 20.25 7.2405 20.25 6C20.25 4.7595 19.2405 3.75 18 3.75C16.7595 3.75 15.75 4.7595 15.75 6C15.75 7.2405 16.7595 8.25 18 8.25ZM18 5.25C18.4132 5.25 18.75 5.58675 18.75 6C18.75 6.41325 18.4132 6.75 18 6.75C17.5868 6.75 17.25 6.41325 17.25 6C17.25 5.58675 17.5868 5.25 18 5.25Z" fill="#FE7F2D"/>
<path id="Vector_5" d="M47.25 19.5C47.25 14.3767 43.2757 10.173 38.25 9.78825V3C38.25 1.7595 37.2405 0.75 36 0.75H3C1.7595 0.75 0.75 1.7595 0.75 3V45C0.75 46.2405 1.7595 47.25 3 47.25H37.5C39.5677 47.25 41.25 45.5677 41.25 43.5V32.25C41.25 31.4228 40.5773 30.75 39.75 30.75V28.9778C44.043 27.9578 47.25 24.1005 47.25 19.5ZM45.75 19.5C45.75 24.0487 42.0488 27.75 37.5 27.75C32.9512 27.75 29.25 24.0487 29.25 19.5C29.25 14.9513 32.9512 11.25 37.5 11.25C42.0488 11.25 45.75 14.9513 45.75 19.5ZM27.8363 20.7315C28.0185 22.1655 28.5128 23.5012 29.25 24.672V26.67C29.25 32.733 25.251 38.0707 19.5 39.7207C13.749 38.0707 9.75 32.7338 9.75 26.67V20.9257C13.3687 20.517 16.644 19.566 19.5 18.096C21.981 19.374 24.783 20.2553 27.8363 20.7315ZM27.765 19.2015C24.8512 18.717 22.1917 17.8425 19.8547 16.5885L19.5 16.3988L19.1453 16.5885C16.2083 18.1642 12.771 19.1445 8.93025 19.503L8.25 19.566V26.67C8.25 33.4778 12.7957 39.4627 19.3043 41.223L19.5 41.2762L19.6957 41.223C26.2043 39.462 30.75 33.4778 30.75 26.67V26.5185C31.197 26.949 31.6845 27.3368 32.2073 27.6758C31.7663 34.9395 26.61 41.0752 19.5 42.7298C11.9843 40.9823 6.75 34.4025 6.75 26.6692V17.9963C11.2507 17.9393 15.642 16.692 19.5 14.3783C22.1138 15.9472 24.9502 17.0138 27.9435 17.5665C27.837 18.0975 27.7822 18.645 27.765 19.2015ZM3 2.25H36C36.4132 2.25 36.75 2.58675 36.75 3V9.75H2.25V3C2.25 2.58675 2.58675 2.25 3 2.25ZM2.25 45V11.25H32.3273C30.5228 12.3855 29.1195 14.0925 28.3665 16.119C25.3507 15.5813 22.503 14.4923 19.8967 12.864L19.4993 12.6157L19.1017 12.864C15.2955 15.243 10.9117 16.5 6.42375 16.5H5.25V26.6707C5.25 35.1675 11.043 42.3893 19.3372 44.232L19.5 44.268L19.6628 44.232C27.285 42.5385 32.889 36.1357 33.6502 28.4543C34.1618 28.6747 34.698 28.8465 35.25 28.977V30.75C34.4227 30.75 33.75 31.4228 33.75 32.25V43.5C33.75 44.3475 34.0433 45.1215 34.5195 45.75H3C2.58675 45.75 2.25 45.4132 2.25 45ZM39.75 32.25V33.75H35.25V32.25H39.75ZM37.5 45.75C36.2595 45.75 35.25 44.7405 35.25 43.5V35.25H39.75V43.5C39.75 44.7405 38.7405 45.75 37.5 45.75ZM38.25 30.75H36.75V29.2118C36.9982 29.2305 37.2465 29.25 37.5 29.25C37.7535 29.25 38.0018 29.2313 38.25 29.2118V30.75Z" fill="#FE7F2D"/>
<path id="Vector_6" d="M36.75 18.75H38.25V20.25H36.75V18.75Z" fill="#FE7F2D"/>
<path id="Vector_7" d="M39.75 18.75H41.25V20.25H39.75V18.75Z" fill="#FE7F2D"/>
<path id="Vector_8" d="M33.75 18.75H35.25V20.25H33.75V18.75Z" fill="#FE7F2D"/>
</g>
</g>
<defs>
<clipPath id="clip0_420_7117">
<rect width="48" height="48" fill="white"/>
</clipPath>
</defs>
</svg>
