<svg width="181" height="80" viewBox="0 0 181 80" fill="none" xmlns="http://www.w3.org/2000/svg">
<g id="viacom-logo.svg" clip-path="url(#clip0_605_3635)">
<g id="viacom-logo">
<g id="viacom-logo_2">
<path id="p1JEdPMen" d="M119.194 61.3068C118.572 61.2063 117.986 60.9514 117.489 60.5658C116.991 60.1803 116.599 59.6763 116.346 59.0998C116.115 58.5527 115.995 57.965 115.992 57.371C115.99 56.777 116.106 56.1886 116.333 55.6398C116.635 54.9632 117.132 54.3918 117.76 53.9987C118.387 53.6056 119.118 53.4086 119.858 53.4328C120.455 53.3777 121.055 53.5005 121.582 53.7858C122.085 54.0529 122.528 54.4208 122.882 54.8669C123.236 55.3129 123.494 55.8274 123.64 56.3778C123.786 56.9283 123.816 57.503 123.73 58.0658C123.643 58.6287 123.441 59.1675 123.137 59.6486C122.717 60.2838 122.118 60.7803 121.416 61.0754C120.714 61.3705 119.941 61.4512 119.194 61.3068ZM120.944 59.9616C121.588 59.6177 122.085 59.0519 122.344 58.3688C122.562 57.5032 122.47 56.588 122.082 55.7836C121.853 55.4275 121.535 55.1369 121.159 54.9401C120.784 54.7433 120.364 54.6472 119.94 54.6608C119.561 54.6247 119.179 54.6833 118.828 54.8315C118.477 54.9797 118.168 55.2127 117.929 55.5097C117.493 56.0949 117.272 56.8133 117.306 57.5426C117.339 58.272 117.625 58.9671 118.114 59.5097C118.505 59.8248 118.972 60.0322 119.469 60.1115C119.965 60.1908 120.473 60.139 120.944 59.9616Z" fill="#38B5E9"/>
<path id="pHK7N4hXz" d="M146.855 61.3076C145.628 61.1776 144.622 60.8244 144.713 60.5764C144.781 60.4119 144.833 60.2415 144.869 60.0673C144.962 59.7013 145.014 59.6884 145.97 59.9494C146.999 60.2071 148.075 60.2071 149.104 59.9494C149.275 59.8867 149.417 59.7621 149.501 59.6003C149.586 59.4384 149.607 59.251 149.561 59.0744C148.872 58.4637 148.074 57.9888 147.209 57.6745C145.434 56.8255 144.846 56.1465 144.964 55.0895C145.004 54.7279 145.159 54.3885 145.405 54.1208C145.652 53.8531 145.977 53.6711 146.334 53.6015C147.524 53.3789 148.745 53.3789 149.935 53.6015L150.693 53.7714L150.628 54.2934C150.611 54.4848 150.572 54.6736 150.51 54.8554C150.298 54.8606 150.085 54.8297 149.883 54.7643C149.274 54.6628 148.658 54.6104 148.041 54.6074C146.971 54.5944 146.735 54.6335 146.501 54.8425C145.86 55.4165 146.214 55.8085 148.277 56.8005C148.942 57.1151 149.586 57.4683 150.209 57.8583C150.467 58.0522 150.668 58.3127 150.79 58.6118C150.912 58.9108 150.95 59.2375 150.901 59.5566C150.851 59.8756 150.715 60.1751 150.509 60.4233C150.302 60.6714 150.032 60.8589 149.728 60.9655C148.825 61.3621 147.825 61.4812 146.855 61.3076Z" fill="#38B5E9"/>
<path id="pR9jl7ukS" d="M31.8778 57.441L31.9168 53.5499H32.3738C32.8048 53.5499 32.8738 53.6151 33.6138 54.7501C34.0448 55.4021 34.6318 56.3431 34.9328 56.8131L35.4678 57.6749L36.7608 55.6119C37.9488 53.7319 38.1058 53.5491 38.4708 53.5121C38.7838 53.4861 38.9148 53.538 39.0188 53.734C39.1712 55.0251 39.2107 56.3272 39.1368 57.6251L39.0978 61.255H37.9228L37.8578 58.722L37.7928 56.1759L36.8928 57.639C36.568 58.1952 36.2104 58.7314 35.8218 59.245C35.4218 59.585 35.0908 59.31 34.2158 57.9C33.7328 57.129 33.2758 56.4251 33.1848 56.3331C33.0668 56.2161 33.0278 56.6989 33.0278 58.7489V61.3209H31.8518L31.8778 57.441Z" fill="#38B5E9"/>
<path id="pwGVjcXCG" d="M43.3424 61.2292C42.8424 61.0592 42.8204 60.8244 42.8204 57.3774C42.8204 54.1774 42.8334 53.9953 43.0814 53.7473C43.3294 53.4993 43.5125 53.4863 45.8235 53.4863H48.3044V54.6484L46.2544 54.6873L44.1914 54.7273L44.1525 55.6804L44.1134 56.6204H45.8204C47.3484 56.6204 47.5444 56.6463 47.7784 56.8813C48.0784 57.1813 48.0914 57.2732 47.8784 57.5732C47.7344 57.7562 47.4084 57.7953 45.9454 57.8223L44.1825 57.8613L44.1434 58.9324L44.1045 60.0034L46.1675 60.0432L48.2305 60.0823L48.2694 60.7092L48.3085 61.3232L45.9194 61.3103C44.6094 61.3073 43.4474 61.2682 43.3424 61.2292Z" fill="#38B5E9"/>
<path id="p11jnRrvvS" d="M51.8686 61.1891C51.4506 61.0201 51.4116 60.6152 51.4636 57.0372C51.5156 53.1732 51.3717 53.437 53.3957 53.525C55.5897 53.625 56.9956 54.3481 57.7436 55.7711C57.9715 56.2251 58.1023 56.7216 58.1274 57.2289C58.1526 57.7362 58.0717 58.2431 57.8899 58.7174C57.7081 59.1917 57.4294 59.623 57.0715 59.9835C56.7137 60.344 56.2847 60.6258 55.8118 60.8112C54.5485 61.2595 53.1941 61.3892 51.8686 61.1891ZM54.9888 59.8182C55.3381 59.7086 55.6597 59.5252 55.9324 59.2809C56.205 59.0366 56.4224 58.7367 56.5696 58.4015C56.7168 58.0663 56.7905 57.7036 56.7859 57.3375C56.7812 56.9714 56.6984 56.6106 56.5427 56.2792C56.2589 55.7898 55.8482 55.386 55.3542 55.1102C54.8603 54.8345 54.3011 54.6968 53.7356 54.712L52.8738 54.6212V60.014H53.6306C54.0901 60.0066 54.5459 59.9409 54.9888 59.8182Z" fill="#38B5E9"/>
<path id="pV4C00un1" d="M60.8022 61.2424C60.7502 61.1904 60.7112 59.4273 60.7112 57.3123V53.4863H62.0171L61.9912 57.3774L61.9521 61.2554L61.4302 61.2954C61.2198 61.3319 61.0036 61.3136 60.8022 61.2424Z" fill="#38B5E9"/>
<path id="p15CgmAkjV" d="M64.3953 61.0968C64.5263 60.6528 67.3955 53.8107 67.5425 53.6417C67.616 53.5854 67.7001 53.5448 67.7898 53.5223C67.8796 53.4998 67.9732 53.4959 68.0645 53.5108C68.4435 53.5498 68.4954 53.6418 70.0494 57.3758C71.1854 60.1048 71.6024 61.2277 71.4864 61.2667C71.2675 61.3131 71.0422 61.322 70.8204 61.2928C70.3204 61.2538 70.2974 61.2278 69.9324 60.3138L69.5403 59.3607H66.4463L66.1983 59.9879C65.6893 61.2279 65.6625 61.2538 64.9705 61.2938C64.4055 61.3328 64.3393 61.3058 64.3953 61.0968ZM69.0704 58.2118C68.7784 57.3429 68.4338 56.4928 68.0384 55.6659C67.5726 56.4445 67.2167 57.2837 66.9805 58.1598C66.9805 58.2598 67.2804 58.3167 68.0254 58.3167C68.376 58.3463 68.7289 58.3107 69.0665 58.2118H69.0704Z" fill="#38B5E9"/>
<path id="pJJGDy5IV" d="M77.9068 61.2297C77.7888 61.1297 77.7889 54.3095 77.8939 53.9045C77.9719 53.7365 78.1126 53.6057 78.2857 53.5398C78.4589 53.4739 78.6508 53.478 78.8209 53.5515C79.6191 54.3726 80.3525 55.2545 81.0147 56.1887L82.9727 58.7476L83.0379 56.1477L83.1029 53.5476L83.7298 53.5085L84.3438 53.4697V57.2427C84.3438 60.3767 84.3177 61.0555 84.1607 61.1855C83.7037 61.5515 83.3908 61.2766 81.4608 58.7966C80.4158 57.4386 79.4498 56.2376 79.3328 56.1196C79.1328 55.9196 79.1239 56.1065 79.1239 58.6135V61.3137H78.5618C78.34 61.3347 78.1162 61.306 77.9068 61.2297Z" fill="#38B5E9"/>
<path id="piHzXlL53" d="M88.429 61.1243C88.129 60.9153 88.1292 60.8893 88.1292 57.4163C88.1292 54.1913 88.142 53.9043 88.364 53.7083C88.586 53.5123 88.9642 53.4863 91.1062 53.4863H93.613V54.6614H89.4353V56.5933L91.198 56.6453C92.598 56.6713 92.9981 56.7244 93.0911 56.8804C93.2911 57.1804 93.248 57.6243 93.012 57.7163C92.3833 57.7825 91.7514 57.8087 91.1194 57.7944H89.4353V60.0012L91.4983 60.0413L93.5481 60.0803V61.2554L91.1321 61.2954C89.1081 61.3204 88.665 61.2943 88.429 61.1243Z" fill="#38B5E9"/>
<path id="pZ7jVPc5O" d="M98.4172 58.0303L98.3782 54.7302L97.1111 54.6904L95.8323 54.6514V53.4863H102.232V54.6614H99.7512L99.7253 57.9614L99.6863 61.2512L99.0725 61.2913L98.446 61.3303L98.4172 58.0303Z" fill="#38B5E9"/>
<path id="pf3LQ1Vq9" d="M106.27 61.1113C106.139 60.9543 104.899 56.7504 104.116 53.7864C104.038 53.4994 104.077 53.4863 104.69 53.4863H105.343L106.035 55.9673C106.231 56.7841 106.484 57.5863 106.793 58.3674C106.832 58.3284 107.224 57.2313 107.654 55.9253L108.437 53.5493L108.855 53.5093C109.364 53.4573 109.325 53.3663 110.213 56.1863C110.432 56.9517 110.689 57.7057 110.984 58.4453C111.22 57.8408 111.416 57.2215 111.571 56.5913C111.845 55.5603 112.159 54.4504 112.262 54.1104L112.446 53.4844H113.086C113.648 53.4844 113.739 53.5102 113.674 53.7192C113.634 53.8362 113.165 55.5194 112.63 57.4404C112.313 58.6921 111.935 59.9269 111.494 61.1404C111.375 61.2482 111.222 61.3099 111.061 61.3147C110.901 61.3195 110.744 61.2668 110.619 61.1663C110.554 61.0743 110.162 59.9392 109.744 58.6462C109.326 57.3532 108.96 56.2464 108.909 56.1914C108.858 56.1364 108.648 56.6353 108.438 57.3013C108.119 58.6497 107.649 59.9581 107.038 61.2014C106.922 61.2866 106.779 61.3246 106.636 61.3079C106.493 61.2912 106.362 61.2209 106.27 61.1113Z" fill="#38B5E9"/>
<path id="p1AyQALhkW" d="M126.74 61.2292C126.688 61.1902 126.649 59.5183 126.649 57.5293C126.649 54.1863 126.662 53.8994 126.884 53.7034C127.106 53.5074 127.446 53.4814 129.09 53.4814C130.983 53.4814 131.09 53.4944 131.753 53.8474C132.105 54.0101 132.408 54.2613 132.634 54.5767C132.86 54.892 132.999 55.2606 133.04 55.6462C133.08 56.0319 133.02 56.4212 132.864 56.7764C132.709 57.1316 132.463 57.4404 132.153 57.6724L131.619 58.1162L132.519 59.5522C132.864 60.0635 133.169 60.6006 133.432 61.1584C133.432 61.2624 133.222 61.3148 132.804 61.3154C132.047 61.3154 132.023 61.2892 131.017 59.6152C130.75 59.1456 130.449 58.6961 130.116 58.2703C129.747 58.1983 129.369 58.1765 128.994 58.2053L128.015 58.2444L127.977 59.7854L127.937 61.3132H127.376C127.16 61.3326 126.943 61.304 126.74 61.2292ZM131.363 56.6294C131.504 56.5148 131.612 56.3651 131.677 56.1956C131.743 56.026 131.763 55.8424 131.735 55.6628C131.707 55.4833 131.633 55.3139 131.52 55.1719C131.406 55.0299 131.258 54.92 131.089 54.8533C130.521 54.6665 129.92 54.5985 129.324 54.6533H127.955V57.0034H129.469C130.958 57.0114 130.983 57.0113 131.363 56.6323V56.6294Z" fill="#38B5E9"/>
<path id="p1Cf8DYvcS" d="M136.53 61.2292C136.477 61.1902 136.438 59.4293 136.438 57.3123V53.4863H137.744V54.9224C137.703 55.4037 137.738 55.8884 137.845 56.3594C137.898 56.3594 138.654 55.7064 139.545 54.9224L141.152 53.4863H142.013C142.73 53.4863 142.849 53.5124 142.718 53.6694C142.626 53.7694 141.712 54.6094 140.681 55.5364C139.65 56.4634 138.785 57.2364 138.785 57.2734C138.785 57.3104 139.661 58.1222 140.733 59.0732C143.433 61.4892 143.317 61.3193 142.272 61.3193H141.41L139.701 59.7913C138.76 58.9423 137.925 58.2374 137.858 58.2114C137.735 58.7108 137.696 59.2271 137.742 59.7393V61.3193H137.181C136.96 61.3382 136.737 61.3074 136.53 61.2292Z" fill="#38B5E9"/>
<path id="p13F39eqQQ" d="M43.4471 49.5825C42.6593 48.7563 41.9264 47.8794 41.2532 46.9575C40.1692 45.5575 39.2291 44.3985 39.1531 44.3725C39.0251 45.2279 38.9856 46.0941 39.0351 46.9575V49.5825L38.4211 49.5437L37.7941 49.5046L37.7551 46.0446C37.7421 44.1386 37.7551 42.4536 37.7941 42.2966C37.8437 42.1197 37.9597 41.9689 38.118 41.8757C38.2762 41.7825 38.4644 41.7541 38.6431 41.7966C39.4559 42.6331 40.2066 43.5278 40.8892 44.4736C41.9892 45.9096 42.9261 47.0734 42.9891 47.0844C43.081 46.2173 43.1114 45.345 43.0801 44.4736V41.8625H44.2551L44.2291 45.6626C44.1901 49.3316 44.1771 49.4755 43.9291 49.5625C43.7748 49.6207 43.6058 49.6278 43.4471 49.5825Z" fill="#38B5E9"/>
<path id="pJ7WYx2HM" d="M83.531 49.5818C82.7436 48.7555 82.0109 47.8786 81.3379 46.9568C80.2539 45.5568 79.314 44.3978 79.238 44.3718C79.1108 45.2272 79.0717 46.0934 79.1211 46.9568V49.5818L78.5071 49.543L77.8801 49.5039L77.841 46.0439C77.828 44.1379 77.8411 42.4529 77.8801 42.2959C77.9272 42.1203 78.0407 41.9698 78.1968 41.8765C78.3528 41.7831 78.5391 41.7544 78.716 41.7959C79.5309 42.6259 80.2816 43.5165 80.9619 44.46L82.9729 47.0598L83.0119 44.46L83.0381 41.8599H84.344V49.3938L84.0571 49.5239C83.8927 49.5997 83.708 49.6199 83.531 49.5818Z" fill="#38B5E9"/>
<path id="p18yIAohcM" d="M115.026 49.4513C114.411 49.2006 113.867 48.8023 113.442 48.2916C113.018 47.7809 112.726 47.1736 112.591 46.523C112.457 45.8725 112.485 45.1989 112.673 44.5619C112.861 43.9248 113.203 43.3437 113.669 42.8702C114.119 42.4275 114.669 42.0992 115.272 41.9127C115.875 41.7261 116.514 41.6869 117.136 41.7982C117.757 41.9094 118.343 42.1679 118.844 42.5521C119.345 42.9363 119.747 43.4351 120.015 44.0064C120.433 45.1085 120.433 46.3253 120.015 47.4273C119.588 48.3278 118.838 49.0353 117.914 49.41C116.99 49.7847 115.96 49.7993 115.026 49.4513ZM117.834 48.1324C118.162 47.8913 118.441 47.5897 118.656 47.2442C118.889 46.7821 119.016 46.2732 119.025 45.7555C119.034 45.2377 118.926 44.7244 118.709 44.2542C118.506 43.8973 118.222 43.5932 117.88 43.3661C117.538 43.1389 117.148 42.9953 116.74 42.9466C116.332 42.898 115.919 42.9457 115.533 43.086C115.147 43.2263 114.799 43.4551 114.518 43.7542C114.235 44.1028 114.034 44.5102 113.929 44.9464C113.823 45.3826 113.817 45.8369 113.91 46.276C114.002 46.7151 114.192 47.1278 114.464 47.4845C114.736 47.8411 115.085 48.1324 115.484 48.3372C116.264 48.5809 117.108 48.5068 117.834 48.1324Z" fill="#38B5E9"/>
<path id="pow48kdlR" d="M129.597 49.269C129.375 49.021 128.397 47.794 127.429 46.54L125.666 44.24L125.627 46.904L125.602 49.5678H124.297V45.8679C124.297 42.3559 124.311 42.147 124.559 41.925C124.63 41.8557 124.718 41.8057 124.814 41.7805C124.91 41.7552 125.011 41.7555 125.107 41.781C125.978 42.5939 126.757 43.4992 127.431 44.4809L129.455 47.1189L129.494 44.4809L129.519 41.8569H130.826V45.5649C130.826 49.2649 130.826 49.2859 130.539 49.4819C130.134 49.7779 130.068 49.765 129.597 49.269Z" fill="#38B5E9"/>
<path id="ptwjJNOET" d="M31.7863 49.4126C31.7473 49.3206 31.7343 47.5974 31.7473 45.5864L31.7863 41.9304L32.4783 41.8916L33.1573 41.8525L33.1313 45.6785L33.0923 49.5046L32.4653 49.5435C32.0473 49.5695 31.8253 49.5306 31.7863 49.4126Z" fill="#38B5E9"/>
<path id="p7wZbFI2U" d="M50.265 46.3042V43.0532L48.999 43.0142L47.719 42.9753V41.9312L50.892 41.8923L54.052 41.8662V43.0413H51.571V49.5703H50.265V46.3042Z" fill="#38B5E9"/>
<path id="pUUT4EH6e" d="M57.6675 49.3342C57.4675 49.1252 57.4456 48.6682 57.4456 45.6782C57.4456 42.7532 57.4715 42.2441 57.6545 42.0781C57.8375 41.9121 58.2545 41.8691 60.3965 41.8691H62.9294V43.0442H58.7515V44.9902L60.5276 45.0293C62.1596 45.0683 62.3276 45.0943 62.4856 45.3293C62.6436 45.5643 62.6295 45.6431 62.4595 45.8911C62.2765 46.1651 62.1725 46.1782 60.5015 46.1782H58.7515V48.3982H62.9294V49.5732H60.4097C58.1247 49.5652 57.8455 49.5422 57.6675 49.3342Z" fill="#38B5E9"/>
<path id="psritmL8u" d="M67.2385 45.9263C67.2385 42.7793 67.2645 42.2442 67.4475 42.0742C67.6305 41.9042 68.0096 41.8652 69.6936 41.8652C71.8606 41.8652 72.4875 42.0092 73.0095 42.5962C73.3755 43.071 73.5933 43.6432 73.6355 44.2412C73.5708 44.9522 73.2285 45.6092 72.6826 46.0693C72.4476 46.2253 72.2516 46.3563 72.2256 46.3823C72.4726 46.8717 72.747 47.3467 73.0476 47.8052C74.2226 49.6992 74.2096 49.5942 73.3086 49.5422L72.5515 49.5032L71.6765 48.0671L70.7886 46.6313L69.6655 46.5923L68.5425 46.5522V49.5681H67.2385V45.9263ZM71.6914 45.1953C71.8541 45.1217 71.996 45.0083 72.1035 44.8657C72.211 44.7231 72.2809 44.5559 72.3069 44.3792C72.3329 44.2024 72.3141 44.022 72.2522 43.8545C72.1903 43.687 72.0873 43.5375 71.9526 43.4202C71.5736 43.0412 71.5526 43.0413 70.0586 43.0413H68.5435V45.3923H69.9146C70.5142 45.4465 71.1184 45.3802 71.6914 45.1953Z" fill="#38B5E9"/>
<path id="pmvdhnzgM" d="M88.0002 49.4771C88.0002 49.4121 88.6921 47.7021 89.5281 45.6641C91.1211 41.8391 91.3033 41.5253 91.8523 41.8263C92.0343 41.9263 95.1814 49.1512 95.1814 49.4642C95.1814 49.5292 94.8943 49.5643 94.5413 49.5643H93.9011L93.5232 48.6241L93.1453 47.6712H90.0383L89.6594 48.6241L89.28 49.5643H88.6414C88.2874 49.5693 88.0002 49.5301 88.0002 49.4771ZM92.426 45.8861C92.27 45.5081 92.0342 44.8813 91.8782 44.5023C91.804 44.2758 91.7078 44.057 91.5911 43.8492C91.5651 43.8752 91.3301 44.4231 91.0681 45.0631C90.8061 45.7031 90.5593 46.3163 90.5203 46.4073C90.4683 46.5253 90.7294 46.5643 91.5784 46.5643H92.7014L92.426 45.8861Z" fill="#38B5E9"/>
<path id="pHT1P0nb8" d="M99.6213 46.3042V43.0532L98.3542 43.0142L97.0754 42.9753L97.0364 42.4272L96.9963 41.8652H103.407V43.0403H100.927V49.5693H99.6213V46.3042Z" fill="#38B5E9"/>
<path id="p7Kc9icZV" d="M107.063 45.7173V41.8652H108.369V49.5652H107.063V45.7173Z" fill="#38B5E9"/>
<path id="pkqVsgeEd" d="M134.352 49.4771C134.352 49.4121 135.03 47.7021 135.878 45.6641C137.471 41.8391 137.653 41.5253 138.201 41.8263C138.385 41.9263 141.531 49.1511 141.531 49.4771C141.531 49.5291 141.245 49.5682 140.892 49.5682H140.251L139.871 48.6283L139.494 47.6751H136.387L135.994 48.6283L135.603 49.5682H134.976C134.639 49.5692 134.352 49.5301 134.352 49.4771ZM138.778 45.8861C138.621 45.5081 138.386 44.8813 138.229 44.5023C138.155 44.2754 138.059 44.0565 137.941 43.8492C137.917 43.8752 137.68 44.4231 137.42 45.0631C137.16 45.7031 136.91 46.3163 136.87 46.4073C136.818 46.5253 137.08 46.5643 137.93 46.5643H139.053L138.778 45.8861Z" fill="#38B5E9"/>
<path id="psmo2DgUv" d="M145.474 49.4124C145.355 49.2954 145.317 48.2633 145.317 45.5603V41.8652H146.622V48.3943H150.669V49.5693H148.15C147.255 49.654 146.353 49.601 145.474 49.4124Z" fill="#38B5E9"/>
<path id="p1H0WGALGe" d="M108.302 37.5044C107.206 37.364 106.14 37.0511 105.142 36.5774C103.987 36.0632 102.968 35.2868 102.166 34.3099C101.363 33.3329 100.8 32.1823 100.52 30.9494C100.144 29.2072 100.139 27.4053 100.507 25.6614C101.447 22.1364 104.107 19.8384 108.093 19.1454C109.811 18.9318 111.551 18.9537 113.264 19.2104C118.278 20.2544 120.98 23.7024 120.733 28.7944C120.761 30.5682 120.229 32.3058 119.215 33.7612C118.2 35.2165 116.754 36.3158 115.08 36.9034C112.892 37.6012 110.578 37.8065 108.302 37.5044ZM112.859 33.2604C113.527 32.9292 114.107 32.446 114.554 31.8495C115.001 31.2531 115.301 30.5601 115.432 29.8263C115.616 28.5281 115.545 27.2063 115.223 25.9353C114.887 25.088 114.333 24.3447 113.617 23.7814C112.71 23.1026 111.585 22.7822 110.457 22.8814C109.822 22.8291 109.183 22.9139 108.584 23.1301C107.985 23.3463 107.439 23.6888 106.984 24.1344C104.647 26.3544 104.921 31.1464 107.493 32.9084C108.465 33.5684 109.642 33.8557 110.809 33.7174C111.521 33.7534 112.23 33.5954 112.859 33.2604Z" fill="#38B5E9"/>
<path id="pe9QGeTLk" d="M32.7934 28.5201C30.7694 23.6111 29.0724 19.4981 29.0334 19.3671C28.9424 19.1321 29.0464 19.1191 31.2794 19.1671C33.4464 19.2061 33.6554 19.2322 34.0994 19.5062C34.4182 19.7146 34.6716 20.0089 34.8304 20.3552C34.9744 20.6552 36.0844 23.4761 37.2854 26.6221C38.4864 29.7681 39.5054 32.3281 39.5444 32.3281C39.5834 32.3281 40.7064 29.5861 42.0384 26.2281C44.6104 19.7651 44.7284 19.5432 45.6684 19.2692C46.4308 19.1685 47.1996 19.1247 47.9684 19.1381C49.6264 19.1381 49.7684 19.1512 49.6924 19.3602C49.6404 19.4912 47.8924 23.6041 45.8014 28.5131L42.0014 37.4131H36.4784L32.7934 28.5201Z" fill="#38B5E9"/>
<path id="pIyIkvG3o" d="M53.1741 37.1775C52.8462 37.0193 52.5632 36.7814 52.3511 36.4855C52.1031 36.0675 52.0901 35.8455 52.0901 27.5935V19.1455L54.5442 19.1715L56.9861 19.2105V37.3595L55.354 37.3855C54.6212 37.4927 53.8734 37.4213 53.1741 37.1775Z" fill="#38B5E9"/>
<path id="p90Nfnzqg" d="M65.1884 37.2291C64.4972 37.1621 63.8271 36.9552 63.2184 36.621C62.6097 36.2868 62.0753 35.8322 61.6478 35.285C61.2204 34.7378 60.9088 34.1093 60.7318 33.4379C60.5549 32.7664 60.5163 32.066 60.6185 31.3792C60.8015 28.9372 62.1335 27.3792 64.7055 26.6392C65.3455 26.4562 66.2335 26.4041 69.9545 26.3651L74.4335 26.3002L74.3556 25.5692C74.3511 25.1331 74.2268 24.7066 73.9965 24.3363C73.7662 23.966 73.4386 23.666 73.0495 23.4691L72.4096 23.1301L67.8915 23.0651C63.4785 23.0001 63.3735 23.0002 62.9035 22.6992C62.1855 22.2552 61.8844 21.5241 61.8844 20.2051V19.1191L67.9955 19.1841C74.6025 19.2361 74.9544 19.2751 76.3954 20.0071C77.0769 20.3402 77.6727 20.8254 78.1369 21.4254C78.601 22.0253 78.9211 22.7239 79.0724 23.4672C79.427 26.6602 79.4358 29.8822 79.0985 33.0771C78.8716 34.1739 78.299 35.1691 77.4647 35.9164C76.6305 36.6637 75.5786 37.1238 74.4635 37.2291C71.3768 37.4774 68.275 37.4774 65.1884 37.2291ZM71.8085 33.7692C72.5251 33.6997 73.1884 33.36 73.6637 32.8192C74.139 32.2783 74.3907 31.5768 74.3676 30.8571L74.4584 29.9691L70.7504 30.0081C67.2384 30.0471 67.0155 30.0602 66.5065 30.3342C66.2199 30.4704 65.9843 30.6946 65.8341 30.9742C65.6839 31.2537 65.6269 31.5739 65.6715 31.8881C65.6715 33.0371 66.2455 33.5991 67.6295 33.7681C69.0188 33.9122 70.4192 33.9126 71.8085 33.7692Z" fill="#38B5E9"/>
<path id="pNGbi0bKx" d="M90.0187 37.3342C88.4219 37.1792 86.9133 36.5298 85.7033 35.4764C84.4933 34.4231 83.6422 33.0183 83.2687 31.4581C82.8639 29.3665 82.8639 27.2167 83.2687 25.1251C83.5835 23.7206 84.2993 22.4377 85.3288 21.4318C86.3583 20.4259 87.6576 19.7403 89.069 19.4581C89.735 19.2751 90.7787 19.2231 94.4347 19.1841L98.966 19.1191V20.1641C99.0223 20.534 99.0017 20.9115 98.9049 21.2729C98.8082 21.6344 98.6375 21.9719 98.404 22.2642C97.842 22.8782 97.386 22.9691 94.383 23.0471L91.549 23.1381L90.5568 23.6212C88.7288 24.5352 88.0499 25.9451 88.1569 28.6481C88.1006 29.4219 88.2353 30.1976 88.549 30.9072C88.9386 31.8428 89.6658 32.5977 90.5861 33.0222C91.6041 33.4792 92.7397 33.6362 95.1857 33.6362C97.0407 33.6362 97.275 33.6622 97.798 33.9362C98.712 34.3932 98.8809 34.7461 98.9469 36.1821L98.9987 37.4221L94.7169 37.4091C92.3469 37.3991 90.2447 37.3602 90.0187 37.3342Z" fill="#38B5E9"/>
<path id="pCX2ZSC3S" d="M124.426 28.2728V19.1328L127.926 19.1718C131.673 19.2108 132.012 19.2718 132.757 19.9718C133.266 20.4418 133.567 21.1858 135.538 26.8268C136.569 29.7778 137.444 32.2068 137.482 32.2068C137.797 31.4942 138.076 30.7663 138.318 30.0258C141.018 22.2698 141.583 20.7418 141.883 20.3378C142.191 20.0159 142.553 19.7509 142.953 19.5548C143.684 19.2158 143.684 19.2158 147.079 19.2158H150.474L150.513 28.3298L150.539 37.4568L148.725 37.4048C146.74 37.3658 146.531 37.2868 145.917 36.4648C145.656 36.1128 145.643 35.9168 145.577 29.3228L145.512 22.5458L142.705 29.9888L139.897 37.4318L137.22 37.4058L134.543 37.3668L131.736 29.9238L128.928 22.4808L128.863 29.2708C128.785 36.9348 128.824 36.6478 127.78 37.1568C127.161 37.4117 126.487 37.5059 125.821 37.4308H124.426V28.2728Z" fill="#38B5E9"/>
</g>
</g>
</g>
<defs>
<clipPath id="clip0_605_3635">
<rect width="180" height="80" fill="white" transform="translate(0.0119629)"/>
</clipPath>
</defs>
</svg>
